G04 #@! TF.GenerationSoftware,KiCad,Pcbnew,(5.0.2)-1*
G04 #@! TF.CreationDate,2019-05-12T20:06:40-07:00*
G04 #@! TF.ProjectId,7_segment_display,375f7365-676d-4656-9e74-5f646973706c,rev?*
G04 #@! TF.SameCoordinates,Original*
G04 #@! TF.FileFunction,Legend,Top*
G04 #@! TF.FilePolarity,Positive*
%FSLAX46Y46*%
G04 Gerber Fmt 4.6, Leading zero omitted, Abs format (unit mm)*
G04 Created by KiCad (PCBNEW (5.0.2)-1) date 5/12/2019 8:06:40 PM*
%MOMM*%
%LPD*%
G01*
G04 APERTURE LIST*
%ADD10C,0.120000*%
%ADD11C,0.150000*%
G04 APERTURE END LIST*
D10*
G04 #@! TO.C,J1*
X5080000Y-16510000D02*
X3810000Y-16510000D01*
X5080000Y-15240000D02*
X5080000Y-16510000D01*
X2767071Y-4700000D02*
X2370000Y-4700000D01*
X2767071Y-5460000D02*
X2370000Y-5460000D01*
X-6290000Y-4700000D02*
X-290000Y-4700000D01*
X-6290000Y-5460000D02*
X-6290000Y-4700000D01*
X-290000Y-5460000D02*
X-6290000Y-5460000D01*
X2370000Y-6350000D02*
X-290000Y-6350000D01*
X2767071Y-7240000D02*
X2370000Y-7240000D01*
X2767071Y-8000000D02*
X2370000Y-8000000D01*
X-6290000Y-7240000D02*
X-290000Y-7240000D01*
X-6290000Y-8000000D02*
X-6290000Y-7240000D01*
X-290000Y-8000000D02*
X-6290000Y-8000000D01*
X2370000Y-8890000D02*
X-290000Y-8890000D01*
X2767071Y-9780000D02*
X2370000Y-9780000D01*
X2767071Y-10540000D02*
X2370000Y-10540000D01*
X-6290000Y-9780000D02*
X-290000Y-9780000D01*
X-6290000Y-10540000D02*
X-6290000Y-9780000D01*
X-290000Y-10540000D02*
X-6290000Y-10540000D01*
X2370000Y-11430000D02*
X-290000Y-11430000D01*
X2767071Y-12320000D02*
X2370000Y-12320000D01*
X2767071Y-13080000D02*
X2370000Y-13080000D01*
X-6290000Y-12320000D02*
X-290000Y-12320000D01*
X-6290000Y-13080000D02*
X-6290000Y-12320000D01*
X-290000Y-13080000D02*
X-6290000Y-13080000D01*
X2370000Y-13970000D02*
X-290000Y-13970000D01*
X2700000Y-14860000D02*
X2370000Y-14860000D01*
X2700000Y-15620000D02*
X2370000Y-15620000D01*
X-290000Y-14960000D02*
X-6290000Y-14960000D01*
X-290000Y-15080000D02*
X-6290000Y-15080000D01*
X-290000Y-15200000D02*
X-6290000Y-15200000D01*
X-290000Y-15320000D02*
X-6290000Y-15320000D01*
X-290000Y-15440000D02*
X-6290000Y-15440000D01*
X-290000Y-15560000D02*
X-6290000Y-15560000D01*
X-6290000Y-14860000D02*
X-290000Y-14860000D01*
X-6290000Y-15620000D02*
X-6290000Y-14860000D01*
X-290000Y-15620000D02*
X-6290000Y-15620000D01*
X-290000Y-16570000D02*
X2370000Y-16570000D01*
X-290000Y-3750000D02*
X-290000Y-16570000D01*
X2370000Y-3750000D02*
X-290000Y-3750000D01*
X2370000Y-16570000D02*
X2370000Y-3750000D01*
G04 #@! TO.C,J2*
X30480000Y-16570000D02*
X29370000Y-16570000D01*
X29370000Y-16570000D02*
X29370000Y-15240000D01*
X40570000Y-16570000D02*
X40570000Y-3750000D01*
X40570000Y-3750000D02*
X31940000Y-3750000D01*
X31940000Y-16570000D02*
X31940000Y-3750000D01*
X40570000Y-16570000D02*
X31940000Y-16570000D01*
X40570000Y-6350000D02*
X31940000Y-6350000D01*
X40570000Y-8890000D02*
X31940000Y-8890000D01*
X40570000Y-11430000D02*
X31940000Y-11430000D01*
X40570000Y-13970000D02*
X31940000Y-13970000D01*
X31940000Y-4720000D02*
X31530000Y-4720000D01*
X31940000Y-5440000D02*
X31530000Y-5440000D01*
X31940000Y-7260000D02*
X31530000Y-7260000D01*
X31940000Y-7980000D02*
X31530000Y-7980000D01*
X31940000Y-9800000D02*
X31530000Y-9800000D01*
X31940000Y-10520000D02*
X31530000Y-10520000D01*
X31940000Y-12340000D02*
X31530000Y-12340000D01*
X31940000Y-13060000D02*
X31530000Y-13060000D01*
X31940000Y-14880000D02*
X31590000Y-14880000D01*
X31940000Y-15600000D02*
X31590000Y-15600000D01*
X40570000Y-14088100D02*
X31940000Y-14088100D01*
X40570000Y-14206195D02*
X31940000Y-14206195D01*
X40570000Y-14324290D02*
X31940000Y-14324290D01*
X40570000Y-14442385D02*
X31940000Y-14442385D01*
X40570000Y-14560480D02*
X31940000Y-14560480D01*
X40570000Y-14678575D02*
X31940000Y-14678575D01*
X40570000Y-14796670D02*
X31940000Y-14796670D01*
X40570000Y-14914765D02*
X31940000Y-14914765D01*
X40570000Y-15032860D02*
X31940000Y-15032860D01*
X40570000Y-15150955D02*
X31940000Y-15150955D01*
X40570000Y-15269050D02*
X31940000Y-15269050D01*
X40570000Y-15387145D02*
X31940000Y-15387145D01*
X40570000Y-15505240D02*
X31940000Y-15505240D01*
X40570000Y-15623335D02*
X31940000Y-15623335D01*
X40570000Y-15741430D02*
X31940000Y-15741430D01*
X40570000Y-15859525D02*
X31940000Y-15859525D01*
X40570000Y-15977620D02*
X31940000Y-15977620D01*
X40570000Y-16095715D02*
X31940000Y-16095715D01*
X40570000Y-16213810D02*
X31940000Y-16213810D01*
X40570000Y-16331905D02*
X31940000Y-16331905D01*
X40570000Y-16450000D02*
X31940000Y-16450000D01*
G04 #@! TO.C,R1*
X9015000Y-7609721D02*
X9015000Y-7935279D01*
X10035000Y-7609721D02*
X10035000Y-7935279D01*
G04 #@! TO.C,R2*
X9997221Y-11940000D02*
X10322779Y-11940000D01*
X9997221Y-10920000D02*
X10322779Y-10920000D01*
D11*
G04 #@! TO.C,U2*
X15065001Y-19115001D02*
X15065001Y-115001D01*
X27665001Y-19115001D02*
X15065001Y-19115001D01*
X27665001Y-115001D02*
X27665001Y-19115001D01*
X15065001Y-115001D02*
X27665001Y-115001D01*
G04 #@! TO.C,J1*
X936666Y-17232380D02*
X936666Y-17946666D01*
X889047Y-18089523D01*
X793809Y-18184761D01*
X650952Y-18232380D01*
X555714Y-18232380D01*
X1936666Y-18232380D02*
X1365238Y-18232380D01*
X1650952Y-18232380D02*
X1650952Y-17232380D01*
X1555714Y-17375238D01*
X1460476Y-17470476D01*
X1365238Y-17518095D01*
G04 #@! TO.C,J2*
X30146666Y-17232380D02*
X30146666Y-17946666D01*
X30099047Y-18089523D01*
X30003809Y-18184761D01*
X29860952Y-18232380D01*
X29765714Y-18232380D01*
X30575238Y-17327619D02*
X30622857Y-17280000D01*
X30718095Y-17232380D01*
X30956190Y-17232380D01*
X31051428Y-17280000D01*
X31099047Y-17327619D01*
X31146666Y-17422857D01*
X31146666Y-17518095D01*
X31099047Y-17660952D01*
X30527619Y-18232380D01*
X31146666Y-18232380D01*
G04 #@! TO.C,R1*
X9358333Y-6167380D02*
X9025000Y-5691190D01*
X8786904Y-6167380D02*
X8786904Y-5167380D01*
X9167857Y-5167380D01*
X9263095Y-5215000D01*
X9310714Y-5262619D01*
X9358333Y-5357857D01*
X9358333Y-5500714D01*
X9310714Y-5595952D01*
X9263095Y-5643571D01*
X9167857Y-5691190D01*
X8786904Y-5691190D01*
X10310714Y-6167380D02*
X9739285Y-6167380D01*
X10025000Y-6167380D02*
X10025000Y-5167380D01*
X9929761Y-5310238D01*
X9834523Y-5405476D01*
X9739285Y-5453095D01*
G04 #@! TO.C,R2*
X9993333Y-13152380D02*
X9660000Y-12676190D01*
X9421904Y-13152380D02*
X9421904Y-12152380D01*
X9802857Y-12152380D01*
X9898095Y-12200000D01*
X9945714Y-12247619D01*
X9993333Y-12342857D01*
X9993333Y-12485714D01*
X9945714Y-12580952D01*
X9898095Y-12628571D01*
X9802857Y-12676190D01*
X9421904Y-12676190D01*
X10374285Y-12247619D02*
X10421904Y-12200000D01*
X10517142Y-12152380D01*
X10755238Y-12152380D01*
X10850476Y-12200000D01*
X10898095Y-12247619D01*
X10945714Y-12342857D01*
X10945714Y-12438095D01*
X10898095Y-12580952D01*
X10326666Y-13152380D01*
X10945714Y-13152380D01*
G04 #@! TO.C,U2*
X12573095Y-722380D02*
X12573095Y-1531904D01*
X12620714Y-1627142D01*
X12668333Y-1674761D01*
X12763571Y-1722380D01*
X12954047Y-1722380D01*
X13049285Y-1674761D01*
X13096904Y-1627142D01*
X13144523Y-1531904D01*
X13144523Y-722380D01*
X13573095Y-817619D02*
X13620714Y-770000D01*
X13715952Y-722380D01*
X13954047Y-722380D01*
X14049285Y-770000D01*
X14096904Y-817619D01*
X14144523Y-912857D01*
X14144523Y-1008095D01*
X14096904Y-1150952D01*
X13525476Y-1722380D01*
X14144523Y-1722380D01*
G04 #@! TD*
M02*
