G04 #@! TF.GenerationSoftware,KiCad,Pcbnew,(5.0.2)-1*
G04 #@! TF.CreationDate,2019-05-12T20:06:40-07:00*
G04 #@! TF.ProjectId,7_segment_display,375f7365-676d-4656-9e74-5f646973706c,rev?*
G04 #@! TF.SameCoordinates,Original*
G04 #@! TF.FileFunction,Soldermask,Top*
G04 #@! TF.FilePolarity,Negative*
%FSLAX46Y46*%
G04 Gerber Fmt 4.6, Leading zero omitted, Abs format (unit mm)*
G04 Created by KiCad (PCBNEW (5.0.2)-1) date 5/12/2019 8:06:40 PM*
%MOMM*%
%LPD*%
G01*
G04 APERTURE LIST*
%ADD10C,0.100000*%
G04 APERTURE END LIST*
D10*
G36*
X26751566Y-16224390D02*
X26942835Y-16303616D01*
X27114977Y-16418638D01*
X27261364Y-16565025D01*
X27376386Y-16737167D01*
X27455612Y-16928436D01*
X27496001Y-17131485D01*
X27496001Y-17338517D01*
X27455612Y-17541566D01*
X27376386Y-17732835D01*
X27261364Y-17904977D01*
X27114977Y-18051364D01*
X26942835Y-18166386D01*
X26751566Y-18245612D01*
X26548517Y-18286001D01*
X26341485Y-18286001D01*
X26138436Y-18245612D01*
X25947167Y-18166386D01*
X25775025Y-18051364D01*
X25628638Y-17904977D01*
X25513616Y-17732835D01*
X25434390Y-17541566D01*
X25394001Y-17338517D01*
X25394001Y-17131485D01*
X25434390Y-16928436D01*
X25513616Y-16737167D01*
X25628638Y-16565025D01*
X25775025Y-16418638D01*
X25947167Y-16303616D01*
X26138436Y-16224390D01*
X26341485Y-16184001D01*
X26548517Y-16184001D01*
X26751566Y-16224390D01*
X26751566Y-16224390D01*
G37*
G36*
X24211566Y-16224390D02*
X24402835Y-16303616D01*
X24574977Y-16418638D01*
X24721364Y-16565025D01*
X24836386Y-16737167D01*
X24915612Y-16928436D01*
X24956001Y-17131485D01*
X24956001Y-17338517D01*
X24915612Y-17541566D01*
X24836386Y-17732835D01*
X24721364Y-17904977D01*
X24574977Y-18051364D01*
X24402835Y-18166386D01*
X24211566Y-18245612D01*
X24008517Y-18286001D01*
X23801485Y-18286001D01*
X23598436Y-18245612D01*
X23407167Y-18166386D01*
X23235025Y-18051364D01*
X23088638Y-17904977D01*
X22973616Y-17732835D01*
X22894390Y-17541566D01*
X22854001Y-17338517D01*
X22854001Y-17131485D01*
X22894390Y-16928436D01*
X22973616Y-16737167D01*
X23088638Y-16565025D01*
X23235025Y-16418638D01*
X23407167Y-16303616D01*
X23598436Y-16224390D01*
X23801485Y-16184001D01*
X24008517Y-16184001D01*
X24211566Y-16224390D01*
X24211566Y-16224390D01*
G37*
G36*
X17336001Y-18286001D02*
X15234001Y-18286001D01*
X15234001Y-16184001D01*
X17336001Y-16184001D01*
X17336001Y-18286001D01*
X17336001Y-18286001D01*
G37*
G36*
X21671566Y-16224390D02*
X21862835Y-16303616D01*
X22034977Y-16418638D01*
X22181364Y-16565025D01*
X22296386Y-16737167D01*
X22375612Y-16928436D01*
X22416001Y-17131485D01*
X22416001Y-17338517D01*
X22375612Y-17541566D01*
X22296386Y-17732835D01*
X22181364Y-17904977D01*
X22034977Y-18051364D01*
X21862835Y-18166386D01*
X21671566Y-18245612D01*
X21468517Y-18286001D01*
X21261485Y-18286001D01*
X21058436Y-18245612D01*
X20867167Y-18166386D01*
X20695025Y-18051364D01*
X20548638Y-17904977D01*
X20433616Y-17732835D01*
X20354390Y-17541566D01*
X20314001Y-17338517D01*
X20314001Y-17131485D01*
X20354390Y-16928436D01*
X20433616Y-16737167D01*
X20548638Y-16565025D01*
X20695025Y-16418638D01*
X20867167Y-16303616D01*
X21058436Y-16224390D01*
X21261485Y-16184001D01*
X21468517Y-16184001D01*
X21671566Y-16224390D01*
X21671566Y-16224390D01*
G37*
G36*
X19131566Y-16224390D02*
X19322835Y-16303616D01*
X19494977Y-16418638D01*
X19641364Y-16565025D01*
X19756386Y-16737167D01*
X19835612Y-16928436D01*
X19876001Y-17131485D01*
X19876001Y-17338517D01*
X19835612Y-17541566D01*
X19756386Y-17732835D01*
X19641364Y-17904977D01*
X19494977Y-18051364D01*
X19322835Y-18166386D01*
X19131566Y-18245612D01*
X18928517Y-18286001D01*
X18721485Y-18286001D01*
X18518436Y-18245612D01*
X18327167Y-18166386D01*
X18155025Y-18051364D01*
X18008638Y-17904977D01*
X17893616Y-17732835D01*
X17814390Y-17541566D01*
X17774001Y-17338517D01*
X17774001Y-17131485D01*
X17814390Y-16928436D01*
X17893616Y-16737167D01*
X18008638Y-16565025D01*
X18155025Y-16418638D01*
X18327167Y-16303616D01*
X18518436Y-16224390D01*
X18721485Y-16184001D01*
X18928517Y-16184001D01*
X19131566Y-16224390D01*
X19131566Y-16224390D01*
G37*
G36*
X14101552Y-16711331D02*
X14183625Y-16745327D01*
X14183626Y-16745328D01*
X14183629Y-16745329D01*
X14257496Y-16794686D01*
X14257500Y-16794689D01*
X14320311Y-16857500D01*
X14320313Y-16857503D01*
X14320314Y-16857504D01*
X14369671Y-16931371D01*
X14369672Y-16931374D01*
X14369673Y-16931375D01*
X14403669Y-17013448D01*
X14421000Y-17100579D01*
X14421000Y-17189421D01*
X14403669Y-17276552D01*
X14378002Y-17338517D01*
X14369671Y-17358629D01*
X14320314Y-17432496D01*
X14320311Y-17432500D01*
X14257500Y-17495311D01*
X14257497Y-17495313D01*
X14257496Y-17495314D01*
X14183629Y-17544671D01*
X14183626Y-17544672D01*
X14183625Y-17544673D01*
X14101552Y-17578669D01*
X14014421Y-17596000D01*
X13925579Y-17596000D01*
X13838448Y-17578669D01*
X13756375Y-17544673D01*
X13756374Y-17544672D01*
X13756371Y-17544671D01*
X13682504Y-17495314D01*
X13682503Y-17495313D01*
X13682500Y-17495311D01*
X13619689Y-17432500D01*
X13619686Y-17432496D01*
X13570329Y-17358629D01*
X13561998Y-17338517D01*
X13536331Y-17276552D01*
X13519000Y-17189421D01*
X13519000Y-17100579D01*
X13536331Y-17013448D01*
X13570327Y-16931375D01*
X13570328Y-16931374D01*
X13570329Y-16931371D01*
X13619686Y-16857504D01*
X13619687Y-16857503D01*
X13619689Y-16857500D01*
X13682500Y-16794689D01*
X13682504Y-16794686D01*
X13756371Y-16745329D01*
X13756374Y-16745328D01*
X13756375Y-16745327D01*
X13838448Y-16711331D01*
X13925579Y-16694000D01*
X14014421Y-16694000D01*
X14101552Y-16711331D01*
X14101552Y-16711331D01*
G37*
G36*
X4711000Y-16141000D02*
X2909000Y-16141000D01*
X2909000Y-14339000D01*
X4711000Y-14339000D01*
X4711000Y-16141000D01*
X4711000Y-16141000D01*
G37*
G36*
X31381000Y-16141000D02*
X29579000Y-16141000D01*
X29579000Y-14339000D01*
X31381000Y-14339000D01*
X31381000Y-16141000D01*
X31381000Y-16141000D01*
G37*
G36*
X5846552Y-14806331D02*
X5928625Y-14840327D01*
X5928626Y-14840328D01*
X5928629Y-14840329D01*
X6002496Y-14889686D01*
X6002500Y-14889689D01*
X6065311Y-14952500D01*
X6065313Y-14952503D01*
X6065314Y-14952504D01*
X6114671Y-15026371D01*
X6114672Y-15026374D01*
X6114673Y-15026375D01*
X6148669Y-15108448D01*
X6166000Y-15195579D01*
X6166000Y-15284421D01*
X6148669Y-15371552D01*
X6114673Y-15453625D01*
X6114671Y-15453629D01*
X6065314Y-15527496D01*
X6065311Y-15527500D01*
X6002500Y-15590311D01*
X6002497Y-15590313D01*
X6002496Y-15590314D01*
X5928629Y-15639671D01*
X5928626Y-15639672D01*
X5928625Y-15639673D01*
X5846552Y-15673669D01*
X5759421Y-15691000D01*
X5670579Y-15691000D01*
X5583448Y-15673669D01*
X5501375Y-15639673D01*
X5501374Y-15639672D01*
X5501371Y-15639671D01*
X5427504Y-15590314D01*
X5427503Y-15590313D01*
X5427500Y-15590311D01*
X5364689Y-15527500D01*
X5364686Y-15527496D01*
X5315329Y-15453629D01*
X5315327Y-15453625D01*
X5281331Y-15371552D01*
X5264000Y-15284421D01*
X5264000Y-15195579D01*
X5281331Y-15108448D01*
X5315327Y-15026375D01*
X5315328Y-15026374D01*
X5315329Y-15026371D01*
X5364686Y-14952504D01*
X5364687Y-14952503D01*
X5364689Y-14952500D01*
X5427500Y-14889689D01*
X5427504Y-14889686D01*
X5501371Y-14840329D01*
X5501374Y-14840328D01*
X5501375Y-14840327D01*
X5583448Y-14806331D01*
X5670579Y-14789000D01*
X5759421Y-14789000D01*
X5846552Y-14806331D01*
X5846552Y-14806331D01*
G37*
G36*
X30587412Y-11805220D02*
X30656627Y-11812037D01*
X30760574Y-11843569D01*
X30826467Y-11863557D01*
X30922402Y-11914836D01*
X30982991Y-11947222D01*
X31018729Y-11976552D01*
X31120186Y-12059814D01*
X31203448Y-12161271D01*
X31232778Y-12197009D01*
X31232779Y-12197011D01*
X31316443Y-12353533D01*
X31333616Y-12410147D01*
X31367963Y-12523373D01*
X31385359Y-12700000D01*
X31367963Y-12876627D01*
X31334331Y-12987496D01*
X31316443Y-13046467D01*
X31288004Y-13099671D01*
X31232778Y-13202991D01*
X31203448Y-13238729D01*
X31120186Y-13340186D01*
X31018729Y-13423448D01*
X30982991Y-13452778D01*
X30982989Y-13452779D01*
X30826467Y-13536443D01*
X30769853Y-13553616D01*
X30656627Y-13587963D01*
X30590443Y-13594481D01*
X30524260Y-13601000D01*
X30435740Y-13601000D01*
X30369557Y-13594481D01*
X30303373Y-13587963D01*
X30190147Y-13553616D01*
X30133533Y-13536443D01*
X29977011Y-13452779D01*
X29977009Y-13452778D01*
X29941271Y-13423448D01*
X29839814Y-13340186D01*
X29756552Y-13238729D01*
X29727222Y-13202991D01*
X29671996Y-13099671D01*
X29643557Y-13046467D01*
X29625669Y-12987496D01*
X29592037Y-12876627D01*
X29574641Y-12700000D01*
X29592037Y-12523373D01*
X29626384Y-12410147D01*
X29643557Y-12353533D01*
X29727221Y-12197011D01*
X29727222Y-12197009D01*
X29756552Y-12161271D01*
X29839814Y-12059814D01*
X29941271Y-11976552D01*
X29977009Y-11947222D01*
X30037598Y-11914836D01*
X30133533Y-11863557D01*
X30199426Y-11843569D01*
X30303373Y-11812037D01*
X30372588Y-11805220D01*
X30435740Y-11799000D01*
X30524260Y-11799000D01*
X30587412Y-11805220D01*
X30587412Y-11805220D01*
G37*
G36*
X3917412Y-11805220D02*
X3986627Y-11812037D01*
X4090574Y-11843569D01*
X4156467Y-11863557D01*
X4252402Y-11914836D01*
X4312991Y-11947222D01*
X4348729Y-11976552D01*
X4450186Y-12059814D01*
X4533448Y-12161271D01*
X4562778Y-12197009D01*
X4562779Y-12197011D01*
X4646443Y-12353533D01*
X4663616Y-12410147D01*
X4697963Y-12523373D01*
X4715359Y-12700000D01*
X4697963Y-12876627D01*
X4664331Y-12987496D01*
X4646443Y-13046467D01*
X4618004Y-13099671D01*
X4562778Y-13202991D01*
X4533448Y-13238729D01*
X4450186Y-13340186D01*
X4348729Y-13423448D01*
X4312991Y-13452778D01*
X4312989Y-13452779D01*
X4156467Y-13536443D01*
X4099853Y-13553616D01*
X3986627Y-13587963D01*
X3920443Y-13594481D01*
X3854260Y-13601000D01*
X3765740Y-13601000D01*
X3699557Y-13594481D01*
X3633373Y-13587963D01*
X3520147Y-13553616D01*
X3463533Y-13536443D01*
X3307011Y-13452779D01*
X3307009Y-13452778D01*
X3271271Y-13423448D01*
X3169814Y-13340186D01*
X3086552Y-13238729D01*
X3057222Y-13202991D01*
X3001996Y-13099671D01*
X2973557Y-13046467D01*
X2955669Y-12987496D01*
X2922037Y-12876627D01*
X2904641Y-12700000D01*
X2922037Y-12523373D01*
X2956384Y-12410147D01*
X2973557Y-12353533D01*
X3057221Y-12197011D01*
X3057222Y-12197009D01*
X3086552Y-12161271D01*
X3169814Y-12059814D01*
X3271271Y-11976552D01*
X3307009Y-11947222D01*
X3367598Y-11914836D01*
X3463533Y-11863557D01*
X3529426Y-11843569D01*
X3633373Y-11812037D01*
X3702588Y-11805220D01*
X3765740Y-11799000D01*
X3854260Y-11799000D01*
X3917412Y-11805220D01*
X3917412Y-11805220D01*
G37*
G36*
X19186980Y-12524729D02*
X19269053Y-12558725D01*
X19269054Y-12558726D01*
X19269057Y-12558727D01*
X19342924Y-12608084D01*
X19342928Y-12608087D01*
X19405739Y-12670898D01*
X19405741Y-12670901D01*
X19405742Y-12670902D01*
X19455099Y-12744769D01*
X19455100Y-12744772D01*
X19455101Y-12744773D01*
X19489097Y-12826846D01*
X19506428Y-12913977D01*
X19506428Y-13002819D01*
X19489097Y-13089950D01*
X19463809Y-13151000D01*
X19455099Y-13172027D01*
X19434409Y-13202991D01*
X19405739Y-13245898D01*
X19342928Y-13308709D01*
X19342925Y-13308711D01*
X19342924Y-13308712D01*
X19269057Y-13358069D01*
X19269054Y-13358070D01*
X19269053Y-13358071D01*
X19186980Y-13392067D01*
X19099849Y-13409398D01*
X19011007Y-13409398D01*
X18923876Y-13392067D01*
X18841803Y-13358071D01*
X18841802Y-13358070D01*
X18841799Y-13358069D01*
X18767932Y-13308712D01*
X18767931Y-13308711D01*
X18767928Y-13308709D01*
X18705117Y-13245898D01*
X18676447Y-13202991D01*
X18655757Y-13172027D01*
X18647047Y-13151000D01*
X18621759Y-13089950D01*
X18604428Y-13002819D01*
X18604428Y-12913977D01*
X18621759Y-12826846D01*
X18655755Y-12744773D01*
X18655756Y-12744772D01*
X18655757Y-12744769D01*
X18705114Y-12670902D01*
X18705115Y-12670901D01*
X18705117Y-12670898D01*
X18767928Y-12608087D01*
X18767932Y-12608084D01*
X18841799Y-12558727D01*
X18841802Y-12558726D01*
X18841803Y-12558725D01*
X18923876Y-12524729D01*
X19011007Y-12507398D01*
X19099849Y-12507398D01*
X19186980Y-12524729D01*
X19186980Y-12524729D01*
G37*
G36*
X5846552Y-12266331D02*
X5928625Y-12300327D01*
X5928626Y-12300328D01*
X5928629Y-12300329D01*
X6002496Y-12349686D01*
X6002500Y-12349689D01*
X6065311Y-12412500D01*
X6065313Y-12412503D01*
X6065314Y-12412504D01*
X6114671Y-12486371D01*
X6114672Y-12486374D01*
X6114673Y-12486375D01*
X6148669Y-12568448D01*
X6166000Y-12655579D01*
X6166000Y-12744421D01*
X6148669Y-12831552D01*
X6129998Y-12876627D01*
X6114671Y-12913629D01*
X6065314Y-12987496D01*
X6065311Y-12987500D01*
X6002500Y-13050311D01*
X6002497Y-13050313D01*
X6002496Y-13050314D01*
X5928629Y-13099671D01*
X5928626Y-13099672D01*
X5928625Y-13099673D01*
X5846552Y-13133669D01*
X5759421Y-13151000D01*
X5670579Y-13151000D01*
X5583448Y-13133669D01*
X5501375Y-13099673D01*
X5501374Y-13099672D01*
X5501371Y-13099671D01*
X5427504Y-13050314D01*
X5427503Y-13050313D01*
X5427500Y-13050311D01*
X5364689Y-12987500D01*
X5364686Y-12987496D01*
X5315329Y-12913629D01*
X5300002Y-12876627D01*
X5281331Y-12831552D01*
X5264000Y-12744421D01*
X5264000Y-12655579D01*
X5281331Y-12568448D01*
X5315327Y-12486375D01*
X5315328Y-12486374D01*
X5315329Y-12486371D01*
X5364686Y-12412504D01*
X5364687Y-12412503D01*
X5364689Y-12412500D01*
X5427500Y-12349689D01*
X5427504Y-12349686D01*
X5501371Y-12300329D01*
X5501374Y-12300328D01*
X5501375Y-12300327D01*
X5583448Y-12266331D01*
X5670579Y-12249000D01*
X5759421Y-12249000D01*
X5846552Y-12266331D01*
X5846552Y-12266331D01*
G37*
G36*
X20451552Y-11796341D02*
X20533625Y-11830337D01*
X20533626Y-11830338D01*
X20533629Y-11830339D01*
X20607496Y-11879696D01*
X20607500Y-11879699D01*
X20670311Y-11942510D01*
X20670313Y-11942513D01*
X20670314Y-11942514D01*
X20719671Y-12016381D01*
X20719672Y-12016384D01*
X20719673Y-12016385D01*
X20753669Y-12098458D01*
X20771000Y-12185589D01*
X20771000Y-12274431D01*
X20753669Y-12361562D01*
X20719673Y-12443635D01*
X20719671Y-12443639D01*
X20691118Y-12486371D01*
X20670311Y-12517510D01*
X20607500Y-12580321D01*
X20607497Y-12580323D01*
X20607496Y-12580324D01*
X20533629Y-12629681D01*
X20533626Y-12629682D01*
X20533625Y-12629683D01*
X20451552Y-12663679D01*
X20364421Y-12681010D01*
X20275579Y-12681010D01*
X20188448Y-12663679D01*
X20106375Y-12629683D01*
X20106374Y-12629682D01*
X20106371Y-12629681D01*
X20032504Y-12580324D01*
X20032503Y-12580323D01*
X20032500Y-12580321D01*
X19969689Y-12517510D01*
X19948882Y-12486371D01*
X19920329Y-12443639D01*
X19920327Y-12443635D01*
X19886331Y-12361562D01*
X19869000Y-12274431D01*
X19869000Y-12185589D01*
X19886331Y-12098458D01*
X19920327Y-12016385D01*
X19920328Y-12016384D01*
X19920329Y-12016381D01*
X19969686Y-11942514D01*
X19969687Y-11942513D01*
X19969689Y-11942510D01*
X20032500Y-11879699D01*
X20032504Y-11879696D01*
X20106371Y-11830339D01*
X20106374Y-11830338D01*
X20106375Y-11830337D01*
X20188448Y-11796341D01*
X20275579Y-11779010D01*
X20364421Y-11779010D01*
X20451552Y-11796341D01*
X20451552Y-11796341D01*
G37*
G36*
X9714591Y-10908085D02*
X9748569Y-10918393D01*
X9779887Y-10935133D01*
X9807339Y-10957661D01*
X9829867Y-10985113D01*
X9846607Y-11016431D01*
X9856915Y-11050409D01*
X9861000Y-11091890D01*
X9861000Y-11768110D01*
X9856915Y-11809591D01*
X9846607Y-11843569D01*
X9829867Y-11874887D01*
X9807339Y-11902339D01*
X9779887Y-11924867D01*
X9748569Y-11941607D01*
X9714591Y-11951915D01*
X9673110Y-11956000D01*
X9071890Y-11956000D01*
X9030409Y-11951915D01*
X8996431Y-11941607D01*
X8965113Y-11924867D01*
X8937661Y-11902339D01*
X8915133Y-11874887D01*
X8898393Y-11843569D01*
X8888085Y-11809591D01*
X8884000Y-11768110D01*
X8884000Y-11091890D01*
X8888085Y-11050409D01*
X8898393Y-11016431D01*
X8915133Y-10985113D01*
X8937661Y-10957661D01*
X8965113Y-10935133D01*
X8996431Y-10918393D01*
X9030409Y-10908085D01*
X9071890Y-10904000D01*
X9673110Y-10904000D01*
X9714591Y-10908085D01*
X9714591Y-10908085D01*
G37*
G36*
X11289591Y-10908085D02*
X11323569Y-10918393D01*
X11354887Y-10935133D01*
X11382339Y-10957661D01*
X11404867Y-10985113D01*
X11421607Y-11016431D01*
X11431915Y-11050409D01*
X11436000Y-11091890D01*
X11436000Y-11147516D01*
X11438402Y-11171902D01*
X11445515Y-11195351D01*
X11457066Y-11216962D01*
X11472612Y-11235904D01*
X11491554Y-11251450D01*
X11513165Y-11263001D01*
X11536614Y-11270114D01*
X11561000Y-11272516D01*
X11585386Y-11270114D01*
X11608835Y-11263001D01*
X11630446Y-11251450D01*
X11649388Y-11235904D01*
X11664933Y-11216963D01*
X11714686Y-11142503D01*
X11777500Y-11079689D01*
X11777504Y-11079686D01*
X11851371Y-11030329D01*
X11851374Y-11030328D01*
X11851375Y-11030327D01*
X11933448Y-10996331D01*
X12020579Y-10979000D01*
X12109421Y-10979000D01*
X12196552Y-10996331D01*
X12278625Y-11030327D01*
X12278626Y-11030328D01*
X12278629Y-11030329D01*
X12352496Y-11079686D01*
X12352500Y-11079689D01*
X12415311Y-11142500D01*
X12415313Y-11142503D01*
X12415314Y-11142504D01*
X12464671Y-11216371D01*
X12464672Y-11216374D01*
X12464673Y-11216375D01*
X12498669Y-11298448D01*
X12516000Y-11385579D01*
X12516000Y-11474421D01*
X12498669Y-11561552D01*
X12464916Y-11643038D01*
X12464671Y-11643629D01*
X12434957Y-11688098D01*
X12415311Y-11717500D01*
X12352500Y-11780311D01*
X12352497Y-11780313D01*
X12352496Y-11780314D01*
X12278629Y-11829671D01*
X12278626Y-11829672D01*
X12278625Y-11829673D01*
X12196552Y-11863669D01*
X12109421Y-11881000D01*
X12020579Y-11881000D01*
X11933448Y-11863669D01*
X11851375Y-11829673D01*
X11851374Y-11829672D01*
X11851371Y-11829671D01*
X11777504Y-11780314D01*
X11777503Y-11780313D01*
X11777500Y-11780311D01*
X11714686Y-11717497D01*
X11664933Y-11643037D01*
X11649388Y-11624095D01*
X11630446Y-11608550D01*
X11608835Y-11596999D01*
X11585386Y-11589886D01*
X11560999Y-11587484D01*
X11536613Y-11589886D01*
X11513164Y-11596999D01*
X11491553Y-11608551D01*
X11472611Y-11624096D01*
X11457066Y-11643038D01*
X11445515Y-11664649D01*
X11438402Y-11688098D01*
X11436000Y-11712484D01*
X11436000Y-11768110D01*
X11431915Y-11809591D01*
X11421607Y-11843569D01*
X11404867Y-11874887D01*
X11382339Y-11902339D01*
X11354887Y-11924867D01*
X11323569Y-11941607D01*
X11289591Y-11951915D01*
X11248110Y-11956000D01*
X10646890Y-11956000D01*
X10605409Y-11951915D01*
X10571431Y-11941607D01*
X10540113Y-11924867D01*
X10512661Y-11902339D01*
X10490133Y-11874887D01*
X10473393Y-11843569D01*
X10463085Y-11809591D01*
X10459000Y-11768110D01*
X10459000Y-11091890D01*
X10463085Y-11050409D01*
X10473393Y-11016431D01*
X10490133Y-10985113D01*
X10512661Y-10957661D01*
X10540113Y-10935133D01*
X10571431Y-10918393D01*
X10605409Y-10908085D01*
X10646890Y-10904000D01*
X11248110Y-10904000D01*
X11289591Y-10908085D01*
X11289591Y-10908085D01*
G37*
G36*
X22991552Y-10996331D02*
X23073625Y-11030327D01*
X23073626Y-11030328D01*
X23073629Y-11030329D01*
X23147496Y-11079686D01*
X23147500Y-11079689D01*
X23210311Y-11142500D01*
X23210313Y-11142503D01*
X23210314Y-11142504D01*
X23259671Y-11216371D01*
X23259672Y-11216374D01*
X23259673Y-11216375D01*
X23293669Y-11298448D01*
X23311000Y-11385579D01*
X23311000Y-11474421D01*
X23293669Y-11561552D01*
X23259916Y-11643038D01*
X23259671Y-11643629D01*
X23229957Y-11688098D01*
X23210311Y-11717500D01*
X23147500Y-11780311D01*
X23147497Y-11780313D01*
X23147496Y-11780314D01*
X23073629Y-11829671D01*
X23073626Y-11829672D01*
X23073625Y-11829673D01*
X22991552Y-11863669D01*
X22904421Y-11881000D01*
X22815579Y-11881000D01*
X22728448Y-11863669D01*
X22646375Y-11829673D01*
X22646374Y-11829672D01*
X22646371Y-11829671D01*
X22572504Y-11780314D01*
X22572503Y-11780313D01*
X22572500Y-11780311D01*
X22509689Y-11717500D01*
X22490043Y-11688098D01*
X22460329Y-11643629D01*
X22460084Y-11643038D01*
X22426331Y-11561552D01*
X22409000Y-11474421D01*
X22409000Y-11385579D01*
X22426331Y-11298448D01*
X22460327Y-11216375D01*
X22460328Y-11216374D01*
X22460329Y-11216371D01*
X22509686Y-11142504D01*
X22509687Y-11142503D01*
X22509689Y-11142500D01*
X22572500Y-11079689D01*
X22572504Y-11079686D01*
X22646371Y-11030329D01*
X22646374Y-11030328D01*
X22646375Y-11030327D01*
X22728448Y-10996331D01*
X22815579Y-10979000D01*
X22904421Y-10979000D01*
X22991552Y-10996331D01*
X22991552Y-10996331D01*
G37*
G36*
X3920442Y-9265518D02*
X3986627Y-9272037D01*
X4099853Y-9306384D01*
X4156467Y-9323557D01*
X4291081Y-9395511D01*
X4312991Y-9407222D01*
X4348729Y-9436552D01*
X4450186Y-9519814D01*
X4533448Y-9621271D01*
X4562778Y-9657009D01*
X4562779Y-9657011D01*
X4646443Y-9813533D01*
X4646443Y-9813534D01*
X4697963Y-9983373D01*
X4715359Y-10160000D01*
X4697963Y-10336627D01*
X4689209Y-10365484D01*
X4646443Y-10506467D01*
X4573174Y-10643542D01*
X4562778Y-10662991D01*
X4533448Y-10698729D01*
X4450186Y-10800186D01*
X4348729Y-10883448D01*
X4312991Y-10912778D01*
X4312989Y-10912779D01*
X4156467Y-10996443D01*
X4103362Y-11012552D01*
X3986627Y-11047963D01*
X3920443Y-11054481D01*
X3854260Y-11061000D01*
X3765740Y-11061000D01*
X3699557Y-11054481D01*
X3633373Y-11047963D01*
X3516638Y-11012552D01*
X3463533Y-10996443D01*
X3307011Y-10912779D01*
X3307009Y-10912778D01*
X3271271Y-10883448D01*
X3169814Y-10800186D01*
X3086552Y-10698729D01*
X3057222Y-10662991D01*
X3046826Y-10643542D01*
X2973557Y-10506467D01*
X2930791Y-10365484D01*
X2922037Y-10336627D01*
X2904641Y-10160000D01*
X2922037Y-9983373D01*
X2973557Y-9813534D01*
X2973557Y-9813533D01*
X3057221Y-9657011D01*
X3057222Y-9657009D01*
X3086552Y-9621271D01*
X3169814Y-9519814D01*
X3271271Y-9436552D01*
X3307009Y-9407222D01*
X3328919Y-9395511D01*
X3463533Y-9323557D01*
X3520147Y-9306384D01*
X3633373Y-9272037D01*
X3699558Y-9265518D01*
X3765740Y-9259000D01*
X3854260Y-9259000D01*
X3920442Y-9265518D01*
X3920442Y-9265518D01*
G37*
G36*
X30590442Y-9265518D02*
X30656627Y-9272037D01*
X30769853Y-9306384D01*
X30826467Y-9323557D01*
X30961081Y-9395511D01*
X30982991Y-9407222D01*
X31018729Y-9436552D01*
X31120186Y-9519814D01*
X31203448Y-9621271D01*
X31232778Y-9657009D01*
X31232779Y-9657011D01*
X31316443Y-9813533D01*
X31316443Y-9813534D01*
X31367963Y-9983373D01*
X31385359Y-10160000D01*
X31367963Y-10336627D01*
X31359209Y-10365484D01*
X31316443Y-10506467D01*
X31243174Y-10643542D01*
X31232778Y-10662991D01*
X31203448Y-10698729D01*
X31120186Y-10800186D01*
X31018729Y-10883448D01*
X30982991Y-10912778D01*
X30982989Y-10912779D01*
X30826467Y-10996443D01*
X30773362Y-11012552D01*
X30656627Y-11047963D01*
X30590443Y-11054481D01*
X30524260Y-11061000D01*
X30435740Y-11061000D01*
X30369557Y-11054481D01*
X30303373Y-11047963D01*
X30186638Y-11012552D01*
X30133533Y-10996443D01*
X29977011Y-10912779D01*
X29977009Y-10912778D01*
X29941271Y-10883448D01*
X29839814Y-10800186D01*
X29756552Y-10698729D01*
X29727222Y-10662991D01*
X29716826Y-10643542D01*
X29643557Y-10506467D01*
X29600791Y-10365484D01*
X29592037Y-10336627D01*
X29574641Y-10160000D01*
X29592037Y-9983373D01*
X29643557Y-9813534D01*
X29643557Y-9813533D01*
X29727221Y-9657011D01*
X29727222Y-9657009D01*
X29756552Y-9621271D01*
X29839814Y-9519814D01*
X29941271Y-9436552D01*
X29977009Y-9407222D01*
X29998919Y-9395511D01*
X30133533Y-9323557D01*
X30190147Y-9306384D01*
X30303373Y-9272037D01*
X30369558Y-9265518D01*
X30435740Y-9259000D01*
X30524260Y-9259000D01*
X30590442Y-9265518D01*
X30590442Y-9265518D01*
G37*
G36*
X8965879Y-9758873D02*
X9047952Y-9792869D01*
X9047953Y-9792870D01*
X9047956Y-9792871D01*
X9121823Y-9842228D01*
X9121827Y-9842231D01*
X9184638Y-9905042D01*
X9184640Y-9905045D01*
X9184641Y-9905046D01*
X9233998Y-9978913D01*
X9233999Y-9978916D01*
X9234000Y-9978917D01*
X9267996Y-10060990D01*
X9285327Y-10148121D01*
X9285327Y-10236963D01*
X9267996Y-10324094D01*
X9234000Y-10406167D01*
X9233998Y-10406171D01*
X9184641Y-10480038D01*
X9184638Y-10480042D01*
X9121827Y-10542853D01*
X9121824Y-10542855D01*
X9121823Y-10542856D01*
X9047956Y-10592213D01*
X9047953Y-10592214D01*
X9047952Y-10592215D01*
X8965879Y-10626211D01*
X8878748Y-10643542D01*
X8789906Y-10643542D01*
X8702775Y-10626211D01*
X8620702Y-10592215D01*
X8620701Y-10592214D01*
X8620698Y-10592213D01*
X8546831Y-10542856D01*
X8546830Y-10542855D01*
X8546827Y-10542853D01*
X8484016Y-10480042D01*
X8484013Y-10480038D01*
X8434656Y-10406171D01*
X8434654Y-10406167D01*
X8400658Y-10324094D01*
X8383327Y-10236963D01*
X8383327Y-10148121D01*
X8400658Y-10060990D01*
X8434654Y-9978917D01*
X8434655Y-9978916D01*
X8434656Y-9978913D01*
X8484013Y-9905046D01*
X8484014Y-9905045D01*
X8484016Y-9905042D01*
X8546827Y-9842231D01*
X8546831Y-9842228D01*
X8620698Y-9792871D01*
X8620701Y-9792870D01*
X8620702Y-9792869D01*
X8702775Y-9758873D01*
X8789906Y-9741542D01*
X8878748Y-9741542D01*
X8965879Y-9758873D01*
X8965879Y-9758873D01*
G37*
G36*
X10216124Y-9498146D02*
X10298197Y-9532142D01*
X10298198Y-9532143D01*
X10298201Y-9532144D01*
X10372068Y-9581501D01*
X10372072Y-9581504D01*
X10434883Y-9644315D01*
X10434885Y-9644318D01*
X10434886Y-9644319D01*
X10484243Y-9718186D01*
X10484244Y-9718189D01*
X10484245Y-9718190D01*
X10518241Y-9800263D01*
X10535572Y-9887394D01*
X10535572Y-9976236D01*
X10518241Y-10063367D01*
X10484245Y-10145440D01*
X10484243Y-10145444D01*
X10434886Y-10219311D01*
X10434883Y-10219315D01*
X10372072Y-10282126D01*
X10372069Y-10282128D01*
X10372068Y-10282129D01*
X10298201Y-10331486D01*
X10298198Y-10331487D01*
X10298197Y-10331488D01*
X10216124Y-10365484D01*
X10128993Y-10382815D01*
X10040151Y-10382815D01*
X9953020Y-10365484D01*
X9870947Y-10331488D01*
X9870946Y-10331487D01*
X9870943Y-10331486D01*
X9797076Y-10282129D01*
X9797075Y-10282128D01*
X9797072Y-10282126D01*
X9734261Y-10219315D01*
X9734258Y-10219311D01*
X9684901Y-10145444D01*
X9684899Y-10145440D01*
X9650903Y-10063367D01*
X9633572Y-9976236D01*
X9633572Y-9887394D01*
X9650903Y-9800263D01*
X9684899Y-9718190D01*
X9684900Y-9718189D01*
X9684901Y-9718186D01*
X9734258Y-9644319D01*
X9734259Y-9644318D01*
X9734261Y-9644315D01*
X9797072Y-9581504D01*
X9797076Y-9581501D01*
X9870943Y-9532144D01*
X9870946Y-9532143D01*
X9870947Y-9532142D01*
X9953020Y-9498146D01*
X10040151Y-9480815D01*
X10128993Y-9480815D01*
X10216124Y-9498146D01*
X10216124Y-9498146D01*
G37*
G36*
X15694028Y-8917422D02*
X15776101Y-8951418D01*
X15776102Y-8951419D01*
X15776105Y-8951420D01*
X15814329Y-8976961D01*
X15849976Y-9000780D01*
X15912787Y-9063591D01*
X15912789Y-9063594D01*
X15912790Y-9063595D01*
X15962147Y-9137462D01*
X15962148Y-9137465D01*
X15962149Y-9137466D01*
X15996145Y-9219539D01*
X16013476Y-9306670D01*
X16013476Y-9395512D01*
X15996145Y-9482643D01*
X15962149Y-9564716D01*
X15962147Y-9564720D01*
X15950934Y-9581501D01*
X15912787Y-9638591D01*
X15849976Y-9701402D01*
X15849973Y-9701404D01*
X15849972Y-9701405D01*
X15776105Y-9750762D01*
X15776102Y-9750763D01*
X15776101Y-9750764D01*
X15694028Y-9784760D01*
X15606897Y-9802091D01*
X15518055Y-9802091D01*
X15430924Y-9784760D01*
X15348851Y-9750764D01*
X15348850Y-9750763D01*
X15348847Y-9750762D01*
X15274980Y-9701405D01*
X15274979Y-9701404D01*
X15274976Y-9701402D01*
X15212165Y-9638591D01*
X15174018Y-9581501D01*
X15162805Y-9564720D01*
X15162803Y-9564716D01*
X15128807Y-9482643D01*
X15111476Y-9395512D01*
X15111476Y-9306670D01*
X15128807Y-9219539D01*
X15162803Y-9137466D01*
X15162804Y-9137465D01*
X15162805Y-9137462D01*
X15212162Y-9063595D01*
X15212163Y-9063594D01*
X15212165Y-9063591D01*
X15274976Y-9000780D01*
X15310623Y-8976961D01*
X15348847Y-8951420D01*
X15348850Y-8951419D01*
X15348851Y-8951418D01*
X15430924Y-8917422D01*
X15518055Y-8900091D01*
X15606897Y-8900091D01*
X15694028Y-8917422D01*
X15694028Y-8917422D01*
G37*
G36*
X11726562Y-8456331D02*
X11808635Y-8490327D01*
X11808636Y-8490328D01*
X11808639Y-8490329D01*
X11882506Y-8539686D01*
X11882510Y-8539689D01*
X11945321Y-8602500D01*
X11945323Y-8602503D01*
X11945324Y-8602504D01*
X11994681Y-8676371D01*
X11994682Y-8676374D01*
X11994683Y-8676375D01*
X12028679Y-8758448D01*
X12046010Y-8845579D01*
X12046010Y-8934421D01*
X12028679Y-9021552D01*
X11994683Y-9103625D01*
X11994681Y-9103629D01*
X11945324Y-9177496D01*
X11945321Y-9177500D01*
X11882510Y-9240311D01*
X11882507Y-9240313D01*
X11882506Y-9240314D01*
X11808639Y-9289671D01*
X11808636Y-9289672D01*
X11808635Y-9289673D01*
X11726562Y-9323669D01*
X11639431Y-9341000D01*
X11550589Y-9341000D01*
X11463458Y-9323669D01*
X11381385Y-9289673D01*
X11381384Y-9289672D01*
X11381381Y-9289671D01*
X11307514Y-9240314D01*
X11307513Y-9240313D01*
X11307510Y-9240311D01*
X11244699Y-9177500D01*
X11244696Y-9177496D01*
X11195339Y-9103629D01*
X11195337Y-9103625D01*
X11161341Y-9021552D01*
X11144010Y-8934421D01*
X11144010Y-8845579D01*
X11161341Y-8758448D01*
X11195337Y-8676375D01*
X11195338Y-8676374D01*
X11195339Y-8676371D01*
X11244696Y-8602504D01*
X11244697Y-8602503D01*
X11244699Y-8602500D01*
X11307510Y-8539689D01*
X11307514Y-8539686D01*
X11381381Y-8490329D01*
X11381384Y-8490328D01*
X11381385Y-8490327D01*
X11463458Y-8456331D01*
X11550589Y-8439000D01*
X11639431Y-8439000D01*
X11726562Y-8456331D01*
X11726562Y-8456331D01*
G37*
G36*
X9904591Y-8075585D02*
X9938569Y-8085893D01*
X9969887Y-8102633D01*
X9997339Y-8125161D01*
X10019867Y-8152613D01*
X10036607Y-8183931D01*
X10046915Y-8217909D01*
X10051000Y-8259390D01*
X10051000Y-8860610D01*
X10046915Y-8902091D01*
X10036607Y-8936069D01*
X10019867Y-8967387D01*
X9997339Y-8994839D01*
X9969887Y-9017367D01*
X9938569Y-9034107D01*
X9904591Y-9044415D01*
X9863110Y-9048500D01*
X9186890Y-9048500D01*
X9145409Y-9044415D01*
X9111431Y-9034107D01*
X9080113Y-9017367D01*
X9052661Y-8994839D01*
X9030133Y-8967387D01*
X9013393Y-8936069D01*
X9003085Y-8902091D01*
X8999000Y-8860610D01*
X8999000Y-8259390D01*
X9003085Y-8217909D01*
X9013393Y-8183931D01*
X9030133Y-8152613D01*
X9052661Y-8125161D01*
X9080113Y-8102633D01*
X9111431Y-8085893D01*
X9145409Y-8075585D01*
X9186890Y-8071500D01*
X9863110Y-8071500D01*
X9904591Y-8075585D01*
X9904591Y-8075585D01*
G37*
G36*
X3920442Y-6725518D02*
X3986627Y-6732037D01*
X4099853Y-6766384D01*
X4156467Y-6783557D01*
X4287222Y-6853448D01*
X4312991Y-6867222D01*
X4348729Y-6896552D01*
X4450186Y-6979814D01*
X4522151Y-7067505D01*
X4562778Y-7117009D01*
X4562779Y-7117011D01*
X4646443Y-7273533D01*
X4650106Y-7285610D01*
X4697963Y-7443373D01*
X4715359Y-7620000D01*
X4697963Y-7796627D01*
X4664331Y-7907496D01*
X4646443Y-7966467D01*
X4580363Y-8090092D01*
X4562778Y-8122991D01*
X4560997Y-8125161D01*
X4450186Y-8260186D01*
X4348729Y-8343448D01*
X4312991Y-8372778D01*
X4312989Y-8372779D01*
X4156467Y-8456443D01*
X4099853Y-8473616D01*
X3986627Y-8507963D01*
X3920443Y-8514481D01*
X3854260Y-8521000D01*
X3765740Y-8521000D01*
X3699557Y-8514481D01*
X3633373Y-8507963D01*
X3520147Y-8473616D01*
X3463533Y-8456443D01*
X3307011Y-8372779D01*
X3307009Y-8372778D01*
X3271271Y-8343448D01*
X3169814Y-8260186D01*
X3059003Y-8125161D01*
X3057222Y-8122991D01*
X3039637Y-8090092D01*
X2973557Y-7966467D01*
X2955669Y-7907496D01*
X2922037Y-7796627D01*
X2904641Y-7620000D01*
X2922037Y-7443373D01*
X2969894Y-7285610D01*
X2973557Y-7273533D01*
X3057221Y-7117011D01*
X3057222Y-7117009D01*
X3097849Y-7067505D01*
X3169814Y-6979814D01*
X3271271Y-6896552D01*
X3307009Y-6867222D01*
X3332778Y-6853448D01*
X3463533Y-6783557D01*
X3520147Y-6766384D01*
X3633373Y-6732037D01*
X3699558Y-6725518D01*
X3765740Y-6719000D01*
X3854260Y-6719000D01*
X3920442Y-6725518D01*
X3920442Y-6725518D01*
G37*
G36*
X30590442Y-6725518D02*
X30656627Y-6732037D01*
X30769853Y-6766384D01*
X30826467Y-6783557D01*
X30957222Y-6853448D01*
X30982991Y-6867222D01*
X31018729Y-6896552D01*
X31120186Y-6979814D01*
X31192151Y-7067505D01*
X31232778Y-7117009D01*
X31232779Y-7117011D01*
X31316443Y-7273533D01*
X31320106Y-7285610D01*
X31367963Y-7443373D01*
X31385359Y-7620000D01*
X31367963Y-7796627D01*
X31334331Y-7907496D01*
X31316443Y-7966467D01*
X31250363Y-8090092D01*
X31232778Y-8122991D01*
X31230997Y-8125161D01*
X31120186Y-8260186D01*
X31018729Y-8343448D01*
X30982991Y-8372778D01*
X30982989Y-8372779D01*
X30826467Y-8456443D01*
X30769853Y-8473616D01*
X30656627Y-8507963D01*
X30590443Y-8514481D01*
X30524260Y-8521000D01*
X30435740Y-8521000D01*
X30369557Y-8514481D01*
X30303373Y-8507963D01*
X30190147Y-8473616D01*
X30133533Y-8456443D01*
X29977011Y-8372779D01*
X29977009Y-8372778D01*
X29941271Y-8343448D01*
X29839814Y-8260186D01*
X29729003Y-8125161D01*
X29727222Y-8122991D01*
X29709637Y-8090092D01*
X29643557Y-7966467D01*
X29625669Y-7907496D01*
X29592037Y-7796627D01*
X29574641Y-7620000D01*
X29592037Y-7443373D01*
X29639894Y-7285610D01*
X29643557Y-7273533D01*
X29727221Y-7117011D01*
X29727222Y-7117009D01*
X29767849Y-7067505D01*
X29839814Y-6979814D01*
X29941271Y-6896552D01*
X29977009Y-6867222D01*
X30002778Y-6853448D01*
X30133533Y-6783557D01*
X30190147Y-6766384D01*
X30303373Y-6732037D01*
X30369558Y-6725518D01*
X30435740Y-6719000D01*
X30524260Y-6719000D01*
X30590442Y-6725518D01*
X30590442Y-6725518D01*
G37*
G36*
X10492759Y-6081341D02*
X10574832Y-6115337D01*
X10574833Y-6115338D01*
X10574836Y-6115339D01*
X10648703Y-6164696D01*
X10648707Y-6164699D01*
X10711518Y-6227510D01*
X10711520Y-6227513D01*
X10711521Y-6227514D01*
X10760878Y-6301381D01*
X10762617Y-6305579D01*
X10780119Y-6347832D01*
X10791671Y-6369443D01*
X10807216Y-6388385D01*
X10826159Y-6403930D01*
X10847769Y-6415481D01*
X10871219Y-6422594D01*
X10895605Y-6424996D01*
X10919991Y-6422594D01*
X10943440Y-6415481D01*
X10965051Y-6403929D01*
X10983993Y-6388384D01*
X10999538Y-6369441D01*
X11011089Y-6347831D01*
X11030327Y-6301385D01*
X11030328Y-6301384D01*
X11030329Y-6301381D01*
X11079686Y-6227514D01*
X11079687Y-6227513D01*
X11079689Y-6227510D01*
X11142500Y-6164699D01*
X11142504Y-6164696D01*
X11216371Y-6115339D01*
X11216374Y-6115338D01*
X11216375Y-6115337D01*
X11298448Y-6081341D01*
X11385579Y-6064010D01*
X11474421Y-6064010D01*
X11561552Y-6081341D01*
X11643625Y-6115337D01*
X11643626Y-6115338D01*
X11643629Y-6115339D01*
X11717496Y-6164696D01*
X11717500Y-6164699D01*
X11780311Y-6227510D01*
X11780313Y-6227513D01*
X11780314Y-6227514D01*
X11829671Y-6301381D01*
X11829672Y-6301384D01*
X11829673Y-6301385D01*
X11863669Y-6383458D01*
X11881000Y-6470589D01*
X11881000Y-6559431D01*
X11863669Y-6646562D01*
X11833664Y-6719000D01*
X11829671Y-6728639D01*
X11781320Y-6801000D01*
X11780311Y-6802510D01*
X11717500Y-6865321D01*
X11717497Y-6865323D01*
X11717496Y-6865324D01*
X11643629Y-6914681D01*
X11643626Y-6914682D01*
X11643625Y-6914683D01*
X11553485Y-6952020D01*
X11531874Y-6963571D01*
X11512932Y-6979117D01*
X11497386Y-6998059D01*
X11485835Y-7019669D01*
X11478722Y-7043119D01*
X11476320Y-7067505D01*
X11478722Y-7091891D01*
X11485835Y-7115340D01*
X11497386Y-7136951D01*
X11512932Y-7155893D01*
X11531874Y-7171439D01*
X11553485Y-7182990D01*
X11643625Y-7220327D01*
X11643626Y-7220328D01*
X11643629Y-7220329D01*
X11717496Y-7269686D01*
X11717500Y-7269689D01*
X11780311Y-7332500D01*
X11780313Y-7332503D01*
X11780314Y-7332504D01*
X11829671Y-7406371D01*
X11829672Y-7406374D01*
X11829673Y-7406375D01*
X11863669Y-7488448D01*
X11881000Y-7575579D01*
X11881000Y-7664421D01*
X11863669Y-7751552D01*
X11844998Y-7796627D01*
X11829671Y-7833629D01*
X11780314Y-7907496D01*
X11780311Y-7907500D01*
X11717500Y-7970311D01*
X11717497Y-7970313D01*
X11717496Y-7970314D01*
X11643629Y-8019671D01*
X11643626Y-8019672D01*
X11643625Y-8019673D01*
X11561552Y-8053669D01*
X11474421Y-8071000D01*
X11385579Y-8071000D01*
X11298448Y-8053669D01*
X11216375Y-8019673D01*
X11216374Y-8019672D01*
X11216371Y-8019671D01*
X11142504Y-7970314D01*
X11142503Y-7970313D01*
X11142500Y-7970311D01*
X11079689Y-7907500D01*
X11079686Y-7907496D01*
X11030329Y-7833629D01*
X11015002Y-7796627D01*
X10996331Y-7751552D01*
X10979000Y-7664421D01*
X10979000Y-7575579D01*
X10996331Y-7488448D01*
X11030327Y-7406375D01*
X11030328Y-7406374D01*
X11030329Y-7406371D01*
X11079686Y-7332504D01*
X11079687Y-7332503D01*
X11079689Y-7332500D01*
X11142500Y-7269689D01*
X11142504Y-7269686D01*
X11216371Y-7220329D01*
X11216374Y-7220328D01*
X11216375Y-7220327D01*
X11306515Y-7182990D01*
X11328126Y-7171439D01*
X11347068Y-7155893D01*
X11362614Y-7136951D01*
X11374165Y-7115341D01*
X11381278Y-7091891D01*
X11383680Y-7067505D01*
X11381278Y-7043119D01*
X11374165Y-7019670D01*
X11362614Y-6998059D01*
X11347068Y-6979117D01*
X11328126Y-6963571D01*
X11306515Y-6952020D01*
X11216375Y-6914683D01*
X11216374Y-6914682D01*
X11216371Y-6914681D01*
X11142504Y-6865324D01*
X11142503Y-6865323D01*
X11142500Y-6865321D01*
X11079689Y-6802510D01*
X11078680Y-6801000D01*
X11030329Y-6728639D01*
X11018597Y-6700314D01*
X11011089Y-6682189D01*
X10999538Y-6660578D01*
X10983993Y-6641636D01*
X10965051Y-6626091D01*
X10943440Y-6614539D01*
X10919991Y-6607426D01*
X10895605Y-6605024D01*
X10871219Y-6607426D01*
X10847769Y-6614539D01*
X10826158Y-6626090D01*
X10807216Y-6641635D01*
X10791671Y-6660577D01*
X10780119Y-6682188D01*
X10766446Y-6715196D01*
X10760878Y-6728639D01*
X10712527Y-6801000D01*
X10711518Y-6802510D01*
X10648707Y-6865321D01*
X10648704Y-6865323D01*
X10648703Y-6865324D01*
X10574836Y-6914681D01*
X10574833Y-6914682D01*
X10574832Y-6914683D01*
X10492759Y-6948679D01*
X10405628Y-6966010D01*
X10316786Y-6966010D01*
X10229655Y-6948679D01*
X10223835Y-6946268D01*
X10200386Y-6939155D01*
X10176000Y-6936753D01*
X10151614Y-6939155D01*
X10128165Y-6946268D01*
X10106554Y-6957819D01*
X10087612Y-6973365D01*
X10072066Y-6992307D01*
X10060515Y-7013918D01*
X10053402Y-7037367D01*
X10051000Y-7061753D01*
X10051000Y-7285610D01*
X10046915Y-7327091D01*
X10036607Y-7361069D01*
X10019867Y-7392387D01*
X9997339Y-7419839D01*
X9969887Y-7442367D01*
X9938569Y-7459107D01*
X9904591Y-7469415D01*
X9863110Y-7473500D01*
X9186890Y-7473500D01*
X9145409Y-7469415D01*
X9111431Y-7459107D01*
X9080113Y-7442367D01*
X9052661Y-7419839D01*
X9030133Y-7392387D01*
X9013393Y-7361069D01*
X9003085Y-7327091D01*
X8999000Y-7285610D01*
X8999000Y-6684390D01*
X9003085Y-6642909D01*
X9013393Y-6608931D01*
X9030133Y-6577613D01*
X9052661Y-6550161D01*
X9080113Y-6527633D01*
X9111431Y-6510893D01*
X9145409Y-6500585D01*
X9186890Y-6496500D01*
X9802468Y-6496500D01*
X9826854Y-6494098D01*
X9850303Y-6486985D01*
X9871914Y-6475434D01*
X9890856Y-6459888D01*
X9906402Y-6440946D01*
X9917953Y-6419335D01*
X9925066Y-6395887D01*
X9927538Y-6383458D01*
X9961534Y-6301385D01*
X9961535Y-6301384D01*
X9961536Y-6301381D01*
X10010893Y-6227514D01*
X10010894Y-6227513D01*
X10010896Y-6227510D01*
X10073707Y-6164699D01*
X10073711Y-6164696D01*
X10147578Y-6115339D01*
X10147581Y-6115338D01*
X10147582Y-6115337D01*
X10229655Y-6081341D01*
X10316786Y-6064010D01*
X10405628Y-6064010D01*
X10492759Y-6081341D01*
X10492759Y-6081341D01*
G37*
G36*
X19181552Y-6551331D02*
X19263625Y-6585327D01*
X19263626Y-6585328D01*
X19263629Y-6585329D01*
X19337496Y-6634686D01*
X19337500Y-6634689D01*
X19400311Y-6697500D01*
X19400313Y-6697503D01*
X19400314Y-6697504D01*
X19449671Y-6771371D01*
X19449672Y-6771374D01*
X19449673Y-6771375D01*
X19483669Y-6853448D01*
X19501000Y-6940579D01*
X19501000Y-7029421D01*
X19483669Y-7116552D01*
X19456149Y-7182990D01*
X19449671Y-7198629D01*
X19400314Y-7272496D01*
X19400311Y-7272500D01*
X19337500Y-7335311D01*
X19337497Y-7335313D01*
X19337496Y-7335314D01*
X19263629Y-7384671D01*
X19263626Y-7384672D01*
X19263625Y-7384673D01*
X19181552Y-7418669D01*
X19094421Y-7436000D01*
X19005579Y-7436000D01*
X18918448Y-7418669D01*
X18836375Y-7384673D01*
X18836374Y-7384672D01*
X18836371Y-7384671D01*
X18762504Y-7335314D01*
X18762503Y-7335313D01*
X18762500Y-7335311D01*
X18699689Y-7272500D01*
X18699686Y-7272496D01*
X18650329Y-7198629D01*
X18643851Y-7182990D01*
X18616331Y-7116552D01*
X18599000Y-7029421D01*
X18599000Y-6940579D01*
X18616331Y-6853448D01*
X18650327Y-6771375D01*
X18650328Y-6771374D01*
X18650329Y-6771371D01*
X18699686Y-6697504D01*
X18699687Y-6697503D01*
X18699689Y-6697500D01*
X18762500Y-6634689D01*
X18762504Y-6634686D01*
X18836371Y-6585329D01*
X18836374Y-6585328D01*
X18836375Y-6585327D01*
X18918448Y-6551331D01*
X19005579Y-6534000D01*
X19094421Y-6534000D01*
X19181552Y-6551331D01*
X19181552Y-6551331D01*
G37*
G36*
X22991552Y-5916331D02*
X23073625Y-5950327D01*
X23073626Y-5950328D01*
X23073629Y-5950329D01*
X23147496Y-5999686D01*
X23147500Y-5999689D01*
X23210311Y-6062500D01*
X23210313Y-6062503D01*
X23210314Y-6062504D01*
X23259671Y-6136371D01*
X23259672Y-6136374D01*
X23259673Y-6136375D01*
X23293669Y-6218448D01*
X23311000Y-6305579D01*
X23311000Y-6394421D01*
X23293669Y-6481552D01*
X23261410Y-6559431D01*
X23259671Y-6563629D01*
X23210314Y-6637496D01*
X23210311Y-6637500D01*
X23147500Y-6700311D01*
X23147497Y-6700313D01*
X23147496Y-6700314D01*
X23073629Y-6749671D01*
X23073626Y-6749672D01*
X23073625Y-6749673D01*
X22991552Y-6783669D01*
X22904421Y-6801000D01*
X22815579Y-6801000D01*
X22728448Y-6783669D01*
X22646375Y-6749673D01*
X22646374Y-6749672D01*
X22646371Y-6749671D01*
X22572504Y-6700314D01*
X22572503Y-6700313D01*
X22572500Y-6700311D01*
X22509689Y-6637500D01*
X22509686Y-6637496D01*
X22460329Y-6563629D01*
X22458590Y-6559431D01*
X22426331Y-6481552D01*
X22409000Y-6394421D01*
X22409000Y-6305579D01*
X22426331Y-6218448D01*
X22460327Y-6136375D01*
X22460328Y-6136374D01*
X22460329Y-6136371D01*
X22509686Y-6062504D01*
X22509687Y-6062503D01*
X22509689Y-6062500D01*
X22572500Y-5999689D01*
X22572504Y-5999686D01*
X22646371Y-5950329D01*
X22646374Y-5950328D01*
X22646375Y-5950327D01*
X22728448Y-5916331D01*
X22815579Y-5899000D01*
X22904421Y-5899000D01*
X22991552Y-5916331D01*
X22991552Y-5916331D01*
G37*
G36*
X8386552Y-5916331D02*
X8468625Y-5950327D01*
X8468626Y-5950328D01*
X8468629Y-5950329D01*
X8542496Y-5999686D01*
X8542500Y-5999689D01*
X8605311Y-6062500D01*
X8605313Y-6062503D01*
X8605314Y-6062504D01*
X8654671Y-6136371D01*
X8654672Y-6136374D01*
X8654673Y-6136375D01*
X8688669Y-6218448D01*
X8706000Y-6305579D01*
X8706000Y-6394421D01*
X8688669Y-6481552D01*
X8656410Y-6559431D01*
X8654671Y-6563629D01*
X8605314Y-6637496D01*
X8605311Y-6637500D01*
X8542500Y-6700311D01*
X8542497Y-6700313D01*
X8542496Y-6700314D01*
X8468629Y-6749671D01*
X8468626Y-6749672D01*
X8468625Y-6749673D01*
X8386552Y-6783669D01*
X8299421Y-6801000D01*
X8210579Y-6801000D01*
X8123448Y-6783669D01*
X8041375Y-6749673D01*
X8041374Y-6749672D01*
X8041371Y-6749671D01*
X7967504Y-6700314D01*
X7967503Y-6700313D01*
X7967500Y-6700311D01*
X7904689Y-6637500D01*
X7904686Y-6637496D01*
X7855329Y-6563629D01*
X7853590Y-6559431D01*
X7821331Y-6481552D01*
X7804000Y-6394421D01*
X7804000Y-6305579D01*
X7821331Y-6218448D01*
X7855327Y-6136375D01*
X7855328Y-6136374D01*
X7855329Y-6136371D01*
X7904686Y-6062504D01*
X7904687Y-6062503D01*
X7904689Y-6062500D01*
X7967500Y-5999689D01*
X7967504Y-5999686D01*
X8041371Y-5950329D01*
X8041374Y-5950328D01*
X8041375Y-5950327D01*
X8123448Y-5916331D01*
X8210579Y-5899000D01*
X8299421Y-5899000D01*
X8386552Y-5916331D01*
X8386552Y-5916331D01*
G37*
G36*
X30590443Y-4185519D02*
X30656627Y-4192037D01*
X30769853Y-4226384D01*
X30826467Y-4243557D01*
X30965087Y-4317652D01*
X30982991Y-4327222D01*
X31018729Y-4356552D01*
X31120186Y-4439814D01*
X31182150Y-4515319D01*
X31232778Y-4577009D01*
X31232779Y-4577011D01*
X31316443Y-4733533D01*
X31316443Y-4733534D01*
X31367963Y-4903373D01*
X31385359Y-5080000D01*
X31367963Y-5256627D01*
X31350358Y-5314663D01*
X31316443Y-5426467D01*
X31288004Y-5479671D01*
X31232778Y-5582991D01*
X31203448Y-5618729D01*
X31120186Y-5720186D01*
X31018729Y-5803448D01*
X30982991Y-5832778D01*
X30982989Y-5832779D01*
X30826467Y-5916443D01*
X30769853Y-5933616D01*
X30656627Y-5967963D01*
X30590443Y-5974481D01*
X30524260Y-5981000D01*
X30435740Y-5981000D01*
X30369557Y-5974481D01*
X30303373Y-5967963D01*
X30190147Y-5933616D01*
X30133533Y-5916443D01*
X29977011Y-5832779D01*
X29977009Y-5832778D01*
X29941271Y-5803448D01*
X29839814Y-5720186D01*
X29756552Y-5618729D01*
X29727222Y-5582991D01*
X29671996Y-5479671D01*
X29643557Y-5426467D01*
X29609642Y-5314663D01*
X29592037Y-5256627D01*
X29574641Y-5080000D01*
X29592037Y-4903373D01*
X29643557Y-4733534D01*
X29643557Y-4733533D01*
X29727221Y-4577011D01*
X29727222Y-4577009D01*
X29777850Y-4515319D01*
X29839814Y-4439814D01*
X29941271Y-4356552D01*
X29977009Y-4327222D01*
X29994913Y-4317652D01*
X30133533Y-4243557D01*
X30190147Y-4226384D01*
X30303373Y-4192037D01*
X30369558Y-4185518D01*
X30435740Y-4179000D01*
X30524260Y-4179000D01*
X30590443Y-4185519D01*
X30590443Y-4185519D01*
G37*
G36*
X3920443Y-4185519D02*
X3986627Y-4192037D01*
X4099853Y-4226384D01*
X4156467Y-4243557D01*
X4295087Y-4317652D01*
X4312991Y-4327222D01*
X4348729Y-4356552D01*
X4450186Y-4439814D01*
X4512150Y-4515319D01*
X4562778Y-4577009D01*
X4562779Y-4577011D01*
X4646443Y-4733533D01*
X4646443Y-4733534D01*
X4697963Y-4903373D01*
X4715359Y-5080000D01*
X4697963Y-5256627D01*
X4680358Y-5314663D01*
X4646443Y-5426467D01*
X4618004Y-5479671D01*
X4562778Y-5582991D01*
X4533448Y-5618729D01*
X4450186Y-5720186D01*
X4348729Y-5803448D01*
X4312991Y-5832778D01*
X4312989Y-5832779D01*
X4156467Y-5916443D01*
X4099853Y-5933616D01*
X3986627Y-5967963D01*
X3920443Y-5974481D01*
X3854260Y-5981000D01*
X3765740Y-5981000D01*
X3699557Y-5974481D01*
X3633373Y-5967963D01*
X3520147Y-5933616D01*
X3463533Y-5916443D01*
X3307011Y-5832779D01*
X3307009Y-5832778D01*
X3271271Y-5803448D01*
X3169814Y-5720186D01*
X3086552Y-5618729D01*
X3057222Y-5582991D01*
X3001996Y-5479671D01*
X2973557Y-5426467D01*
X2939642Y-5314663D01*
X2922037Y-5256627D01*
X2904641Y-5080000D01*
X2922037Y-4903373D01*
X2973557Y-4733534D01*
X2973557Y-4733533D01*
X3057221Y-4577011D01*
X3057222Y-4577009D01*
X3107850Y-4515319D01*
X3169814Y-4439814D01*
X3271271Y-4356552D01*
X3307009Y-4327222D01*
X3324913Y-4317652D01*
X3463533Y-4243557D01*
X3520147Y-4226384D01*
X3633373Y-4192037D01*
X3699557Y-4185519D01*
X3765740Y-4179000D01*
X3854260Y-4179000D01*
X3920443Y-4185519D01*
X3920443Y-4185519D01*
G37*
G36*
X25531552Y-4646331D02*
X25613625Y-4680327D01*
X25613626Y-4680328D01*
X25613629Y-4680329D01*
X25687496Y-4729686D01*
X25687500Y-4729689D01*
X25750311Y-4792500D01*
X25750313Y-4792503D01*
X25750314Y-4792504D01*
X25799671Y-4866371D01*
X25799672Y-4866374D01*
X25799673Y-4866375D01*
X25833669Y-4948448D01*
X25851000Y-5035579D01*
X25851000Y-5124421D01*
X25833669Y-5211552D01*
X25799673Y-5293625D01*
X25799671Y-5293629D01*
X25751320Y-5365990D01*
X25750311Y-5367500D01*
X25687500Y-5430311D01*
X25687497Y-5430313D01*
X25687496Y-5430314D01*
X25613629Y-5479671D01*
X25613626Y-5479672D01*
X25613625Y-5479673D01*
X25531552Y-5513669D01*
X25444421Y-5531000D01*
X25355579Y-5531000D01*
X25268448Y-5513669D01*
X25186375Y-5479673D01*
X25186374Y-5479672D01*
X25186371Y-5479671D01*
X25112504Y-5430314D01*
X25112503Y-5430313D01*
X25112500Y-5430311D01*
X25049689Y-5367500D01*
X25048680Y-5365990D01*
X25000329Y-5293629D01*
X25000327Y-5293625D01*
X24966331Y-5211552D01*
X24949000Y-5124421D01*
X24949000Y-5035579D01*
X24966331Y-4948448D01*
X25000327Y-4866375D01*
X25000328Y-4866374D01*
X25000329Y-4866371D01*
X25049686Y-4792504D01*
X25049687Y-4792503D01*
X25049689Y-4792500D01*
X25112500Y-4729689D01*
X25112504Y-4729686D01*
X25186371Y-4680329D01*
X25186374Y-4680328D01*
X25186375Y-4680327D01*
X25268448Y-4646331D01*
X25355579Y-4629000D01*
X25444421Y-4629000D01*
X25531552Y-4646331D01*
X25531552Y-4646331D01*
G37*
G36*
X14736552Y-4481321D02*
X14818625Y-4515317D01*
X14818626Y-4515318D01*
X14818629Y-4515319D01*
X14892496Y-4564676D01*
X14892500Y-4564679D01*
X14955311Y-4627490D01*
X14955313Y-4627493D01*
X14955314Y-4627494D01*
X15004671Y-4701361D01*
X15004672Y-4701364D01*
X15004673Y-4701365D01*
X15038669Y-4783438D01*
X15056000Y-4870569D01*
X15056000Y-4959411D01*
X15038669Y-5046542D01*
X15006410Y-5124421D01*
X15004671Y-5128619D01*
X14955314Y-5202486D01*
X14955311Y-5202490D01*
X14892500Y-5265301D01*
X14892497Y-5265303D01*
X14892496Y-5265304D01*
X14818629Y-5314661D01*
X14818626Y-5314662D01*
X14818625Y-5314663D01*
X14736552Y-5348659D01*
X14649421Y-5365990D01*
X14560579Y-5365990D01*
X14473448Y-5348659D01*
X14391375Y-5314663D01*
X14391374Y-5314662D01*
X14391371Y-5314661D01*
X14317504Y-5265304D01*
X14317503Y-5265303D01*
X14317500Y-5265301D01*
X14254689Y-5202490D01*
X14254686Y-5202486D01*
X14205329Y-5128619D01*
X14203590Y-5124421D01*
X14171331Y-5046542D01*
X14154000Y-4959411D01*
X14154000Y-4870569D01*
X14171331Y-4783438D01*
X14205327Y-4701365D01*
X14205328Y-4701364D01*
X14205329Y-4701361D01*
X14254686Y-4627494D01*
X14254687Y-4627493D01*
X14254689Y-4627490D01*
X14317500Y-4564679D01*
X14317504Y-4564676D01*
X14391371Y-4515319D01*
X14391374Y-4515318D01*
X14391375Y-4515317D01*
X14473448Y-4481321D01*
X14560579Y-4463990D01*
X14649421Y-4463990D01*
X14736552Y-4481321D01*
X14736552Y-4481321D01*
G37*
G36*
X3941552Y-2741331D02*
X4023625Y-2775327D01*
X4023626Y-2775328D01*
X4023629Y-2775329D01*
X4077558Y-2811364D01*
X4097500Y-2824689D01*
X4160311Y-2887500D01*
X4160313Y-2887503D01*
X4160314Y-2887504D01*
X4209671Y-2961371D01*
X4209672Y-2961374D01*
X4209673Y-2961375D01*
X4243669Y-3043448D01*
X4261000Y-3130579D01*
X4261000Y-3219421D01*
X4243669Y-3306552D01*
X4209673Y-3388625D01*
X4209671Y-3388629D01*
X4160314Y-3462496D01*
X4160311Y-3462500D01*
X4097500Y-3525311D01*
X4097497Y-3525313D01*
X4097496Y-3525314D01*
X4023629Y-3574671D01*
X4023626Y-3574672D01*
X4023625Y-3574673D01*
X3941552Y-3608669D01*
X3854421Y-3626000D01*
X3765579Y-3626000D01*
X3678448Y-3608669D01*
X3596375Y-3574673D01*
X3596374Y-3574672D01*
X3596371Y-3574671D01*
X3522504Y-3525314D01*
X3522503Y-3525313D01*
X3522500Y-3525311D01*
X3459689Y-3462500D01*
X3459686Y-3462496D01*
X3410329Y-3388629D01*
X3410327Y-3388625D01*
X3376331Y-3306552D01*
X3359000Y-3219421D01*
X3359000Y-3130579D01*
X3376331Y-3043448D01*
X3410327Y-2961375D01*
X3410328Y-2961374D01*
X3410329Y-2961371D01*
X3459686Y-2887504D01*
X3459687Y-2887503D01*
X3459689Y-2887500D01*
X3522500Y-2824689D01*
X3542442Y-2811364D01*
X3596371Y-2775329D01*
X3596374Y-2775328D01*
X3596375Y-2775327D01*
X3678448Y-2741331D01*
X3765579Y-2724000D01*
X3854421Y-2724000D01*
X3941552Y-2741331D01*
X3941552Y-2741331D01*
G37*
G36*
X29976552Y-2741331D02*
X30058625Y-2775327D01*
X30058626Y-2775328D01*
X30058629Y-2775329D01*
X30112558Y-2811364D01*
X30132500Y-2824689D01*
X30195311Y-2887500D01*
X30195313Y-2887503D01*
X30195314Y-2887504D01*
X30244671Y-2961371D01*
X30244672Y-2961374D01*
X30244673Y-2961375D01*
X30278669Y-3043448D01*
X30296000Y-3130579D01*
X30296000Y-3219421D01*
X30278669Y-3306552D01*
X30244673Y-3388625D01*
X30244671Y-3388629D01*
X30195314Y-3462496D01*
X30195311Y-3462500D01*
X30132500Y-3525311D01*
X30132497Y-3525313D01*
X30132496Y-3525314D01*
X30058629Y-3574671D01*
X30058626Y-3574672D01*
X30058625Y-3574673D01*
X29976552Y-3608669D01*
X29889421Y-3626000D01*
X29800579Y-3626000D01*
X29713448Y-3608669D01*
X29631375Y-3574673D01*
X29631374Y-3574672D01*
X29631371Y-3574671D01*
X29557504Y-3525314D01*
X29557503Y-3525313D01*
X29557500Y-3525311D01*
X29494689Y-3462500D01*
X29494686Y-3462496D01*
X29445329Y-3388629D01*
X29445327Y-3388625D01*
X29411331Y-3306552D01*
X29394000Y-3219421D01*
X29394000Y-3130579D01*
X29411331Y-3043448D01*
X29445327Y-2961375D01*
X29445328Y-2961374D01*
X29445329Y-2961371D01*
X29494686Y-2887504D01*
X29494687Y-2887503D01*
X29494689Y-2887500D01*
X29557500Y-2824689D01*
X29577442Y-2811364D01*
X29631371Y-2775329D01*
X29631374Y-2775328D01*
X29631375Y-2775327D01*
X29713448Y-2741331D01*
X29800579Y-2724000D01*
X29889421Y-2724000D01*
X29976552Y-2741331D01*
X29976552Y-2741331D01*
G37*
G36*
X16591566Y-984390D02*
X16782835Y-1063616D01*
X16954977Y-1178638D01*
X17101364Y-1325025D01*
X17216386Y-1497167D01*
X17295612Y-1688436D01*
X17336001Y-1891485D01*
X17336001Y-2098517D01*
X17295612Y-2301566D01*
X17216386Y-2492835D01*
X17101364Y-2664977D01*
X16954977Y-2811364D01*
X16782835Y-2926386D01*
X16591566Y-3005612D01*
X16388517Y-3046001D01*
X16181485Y-3046001D01*
X15978436Y-3005612D01*
X15787167Y-2926386D01*
X15615025Y-2811364D01*
X15468638Y-2664977D01*
X15353616Y-2492835D01*
X15274390Y-2301566D01*
X15234001Y-2098517D01*
X15234001Y-1891485D01*
X15274390Y-1688436D01*
X15353616Y-1497167D01*
X15468638Y-1325025D01*
X15615025Y-1178638D01*
X15787167Y-1063616D01*
X15978436Y-984390D01*
X16181485Y-944001D01*
X16388517Y-944001D01*
X16591566Y-984390D01*
X16591566Y-984390D01*
G37*
G36*
X19131566Y-984390D02*
X19322835Y-1063616D01*
X19494977Y-1178638D01*
X19641364Y-1325025D01*
X19756386Y-1497167D01*
X19835612Y-1688436D01*
X19876001Y-1891485D01*
X19876001Y-2098517D01*
X19835612Y-2301566D01*
X19756386Y-2492835D01*
X19641364Y-2664977D01*
X19494977Y-2811364D01*
X19322835Y-2926386D01*
X19131566Y-3005612D01*
X18928517Y-3046001D01*
X18721485Y-3046001D01*
X18518436Y-3005612D01*
X18327167Y-2926386D01*
X18155025Y-2811364D01*
X18008638Y-2664977D01*
X17893616Y-2492835D01*
X17814390Y-2301566D01*
X17774001Y-2098517D01*
X17774001Y-1891485D01*
X17814390Y-1688436D01*
X17893616Y-1497167D01*
X18008638Y-1325025D01*
X18155025Y-1178638D01*
X18327167Y-1063616D01*
X18518436Y-984390D01*
X18721485Y-944001D01*
X18928517Y-944001D01*
X19131566Y-984390D01*
X19131566Y-984390D01*
G37*
G36*
X21671566Y-984390D02*
X21862835Y-1063616D01*
X22034977Y-1178638D01*
X22181364Y-1325025D01*
X22296386Y-1497167D01*
X22375612Y-1688436D01*
X22416001Y-1891485D01*
X22416001Y-2098517D01*
X22375612Y-2301566D01*
X22296386Y-2492835D01*
X22181364Y-2664977D01*
X22034977Y-2811364D01*
X21862835Y-2926386D01*
X21671566Y-3005612D01*
X21468517Y-3046001D01*
X21261485Y-3046001D01*
X21058436Y-3005612D01*
X20867167Y-2926386D01*
X20695025Y-2811364D01*
X20548638Y-2664977D01*
X20433616Y-2492835D01*
X20354390Y-2301566D01*
X20314001Y-2098517D01*
X20314001Y-1891485D01*
X20354390Y-1688436D01*
X20433616Y-1497167D01*
X20548638Y-1325025D01*
X20695025Y-1178638D01*
X20867167Y-1063616D01*
X21058436Y-984390D01*
X21261485Y-944001D01*
X21468517Y-944001D01*
X21671566Y-984390D01*
X21671566Y-984390D01*
G37*
G36*
X24211566Y-984390D02*
X24402835Y-1063616D01*
X24574977Y-1178638D01*
X24721364Y-1325025D01*
X24836386Y-1497167D01*
X24915612Y-1688436D01*
X24956001Y-1891485D01*
X24956001Y-2098517D01*
X24915612Y-2301566D01*
X24836386Y-2492835D01*
X24721364Y-2664977D01*
X24574977Y-2811364D01*
X24402835Y-2926386D01*
X24211566Y-3005612D01*
X24008517Y-3046001D01*
X23801485Y-3046001D01*
X23598436Y-3005612D01*
X23407167Y-2926386D01*
X23235025Y-2811364D01*
X23088638Y-2664977D01*
X22973616Y-2492835D01*
X22894390Y-2301566D01*
X22854001Y-2098517D01*
X22854001Y-1891485D01*
X22894390Y-1688436D01*
X22973616Y-1497167D01*
X23088638Y-1325025D01*
X23235025Y-1178638D01*
X23407167Y-1063616D01*
X23598436Y-984390D01*
X23801485Y-944001D01*
X24008517Y-944001D01*
X24211566Y-984390D01*
X24211566Y-984390D01*
G37*
G36*
X26751566Y-984390D02*
X26942835Y-1063616D01*
X27114977Y-1178638D01*
X27261364Y-1325025D01*
X27376386Y-1497167D01*
X27455612Y-1688436D01*
X27496001Y-1891485D01*
X27496001Y-2098517D01*
X27455612Y-2301566D01*
X27376386Y-2492835D01*
X27261364Y-2664977D01*
X27114977Y-2811364D01*
X26942835Y-2926386D01*
X26751566Y-3005612D01*
X26548517Y-3046001D01*
X26341485Y-3046001D01*
X26138436Y-3005612D01*
X25947167Y-2926386D01*
X25775025Y-2811364D01*
X25628638Y-2664977D01*
X25513616Y-2492835D01*
X25434390Y-2301566D01*
X25394001Y-2098517D01*
X25394001Y-1891485D01*
X25434390Y-1688436D01*
X25513616Y-1497167D01*
X25628638Y-1325025D01*
X25775025Y-1178638D01*
X25947167Y-1063616D01*
X26138436Y-984390D01*
X26341485Y-944001D01*
X26548517Y-944001D01*
X26751566Y-984390D01*
X26751566Y-984390D01*
G37*
M02*
