G04 #@! TF.GenerationSoftware,KiCad,Pcbnew,(5.0.2)-1*
G04 #@! TF.CreationDate,2019-05-13T14:34:42-07:00*
G04 #@! TF.ProjectId,7_segment_display,375f7365-676d-4656-9e74-5f646973706c,rev?*
G04 #@! TF.SameCoordinates,Original*
G04 #@! TF.FileFunction,Legend,Bot*
G04 #@! TF.FilePolarity,Positive*
%FSLAX46Y46*%
G04 Gerber Fmt 4.6, Leading zero omitted, Abs format (unit mm)*
G04 Created by KiCad (PCBNEW (5.0.2)-1) date 5/13/2019 2:34:42 PM*
%MOMM*%
%LPD*%
G01*
G04 APERTURE LIST*
%ADD10C,0.120000*%
%ADD11C,0.150000*%
G04 APERTURE END LIST*
D10*
G04 #@! TO.C,C1*
X38897779Y-18290000D02*
X38572221Y-18290000D01*
X38897779Y-17270000D02*
X38572221Y-17270000D01*
G04 #@! TO.C,R1*
X34762221Y-1395000D02*
X35087779Y-1395000D01*
X34762221Y-2415000D02*
X35087779Y-2415000D01*
G04 #@! TO.C,R2*
X33339721Y-17270000D02*
X33665279Y-17270000D01*
X33339721Y-18290000D02*
X33665279Y-18290000D01*
G04 #@! TO.C,R3*
X24640000Y-4917221D02*
X24640000Y-5242779D01*
X23620000Y-4917221D02*
X23620000Y-5242779D01*
G04 #@! TO.C,R4*
X27180000Y-4917221D02*
X27180000Y-5242779D01*
X26160000Y-4917221D02*
X26160000Y-5242779D01*
G04 #@! TO.C,R5*
X23620000Y-14132779D02*
X23620000Y-13807221D01*
X24640000Y-14132779D02*
X24640000Y-13807221D01*
G04 #@! TO.C,R6*
X21080000Y-14132779D02*
X21080000Y-13807221D01*
X22100000Y-14132779D02*
X22100000Y-13807221D01*
G04 #@! TO.C,R7*
X18540000Y-14132779D02*
X18540000Y-13807221D01*
X19560000Y-14132779D02*
X19560000Y-13807221D01*
G04 #@! TO.C,R8*
X19560000Y-4917221D02*
X19560000Y-5242779D01*
X18540000Y-4917221D02*
X18540000Y-5242779D01*
G04 #@! TO.C,R9*
X17020000Y-4917221D02*
X17020000Y-5242779D01*
X16000000Y-4917221D02*
X16000000Y-5242779D01*
G04 #@! TO.C,R10*
X26160000Y-14132779D02*
X26160000Y-13807221D01*
X27180000Y-14132779D02*
X27180000Y-13807221D01*
G04 #@! TO.C,U1*
X33795000Y-4760000D02*
X38595000Y-4760000D01*
X33795000Y-15560000D02*
X38595000Y-15560000D01*
X33795000Y-15160000D02*
X32395000Y-15160000D01*
X33795000Y-15560000D02*
X33795000Y-15160000D01*
G04 #@! TO.C,C1*
D11*
X38901666Y-16867142D02*
X38949285Y-16914761D01*
X39092142Y-16962380D01*
X39187380Y-16962380D01*
X39330238Y-16914761D01*
X39425476Y-16819523D01*
X39473095Y-16724285D01*
X39520714Y-16533809D01*
X39520714Y-16390952D01*
X39473095Y-16200476D01*
X39425476Y-16105238D01*
X39330238Y-16010000D01*
X39187380Y-15962380D01*
X39092142Y-15962380D01*
X38949285Y-16010000D01*
X38901666Y-16057619D01*
X37949285Y-16962380D02*
X38520714Y-16962380D01*
X38235000Y-16962380D02*
X38235000Y-15962380D01*
X38330238Y-16105238D01*
X38425476Y-16200476D01*
X38520714Y-16248095D01*
G04 #@! TO.C,R1*
X37631666Y-2357380D02*
X37965000Y-1881190D01*
X38203095Y-2357380D02*
X38203095Y-1357380D01*
X37822142Y-1357380D01*
X37726904Y-1405000D01*
X37679285Y-1452619D01*
X37631666Y-1547857D01*
X37631666Y-1690714D01*
X37679285Y-1785952D01*
X37726904Y-1833571D01*
X37822142Y-1881190D01*
X38203095Y-1881190D01*
X36679285Y-2357380D02*
X37250714Y-2357380D01*
X36965000Y-2357380D02*
X36965000Y-1357380D01*
X37060238Y-1500238D01*
X37155476Y-1595476D01*
X37250714Y-1643095D01*
G04 #@! TO.C,R2*
X33821666Y-16962380D02*
X34155000Y-16486190D01*
X34393095Y-16962380D02*
X34393095Y-15962380D01*
X34012142Y-15962380D01*
X33916904Y-16010000D01*
X33869285Y-16057619D01*
X33821666Y-16152857D01*
X33821666Y-16295714D01*
X33869285Y-16390952D01*
X33916904Y-16438571D01*
X34012142Y-16486190D01*
X34393095Y-16486190D01*
X33440714Y-16057619D02*
X33393095Y-16010000D01*
X33297857Y-15962380D01*
X33059761Y-15962380D01*
X32964523Y-16010000D01*
X32916904Y-16057619D01*
X32869285Y-16152857D01*
X32869285Y-16248095D01*
X32916904Y-16390952D01*
X33488333Y-16962380D01*
X32869285Y-16962380D01*
G04 #@! TO.C,R3*
X24582380Y-7300833D02*
X24106190Y-6967500D01*
X24582380Y-6729404D02*
X23582380Y-6729404D01*
X23582380Y-7110357D01*
X23630000Y-7205595D01*
X23677619Y-7253214D01*
X23772857Y-7300833D01*
X23915714Y-7300833D01*
X24010952Y-7253214D01*
X24058571Y-7205595D01*
X24106190Y-7110357D01*
X24106190Y-6729404D01*
X23582380Y-7634166D02*
X23582380Y-8253214D01*
X23963333Y-7919880D01*
X23963333Y-8062738D01*
X24010952Y-8157976D01*
X24058571Y-8205595D01*
X24153809Y-8253214D01*
X24391904Y-8253214D01*
X24487142Y-8205595D01*
X24534761Y-8157976D01*
X24582380Y-8062738D01*
X24582380Y-7777023D01*
X24534761Y-7681785D01*
X24487142Y-7634166D01*
G04 #@! TO.C,R4*
X27122380Y-7453333D02*
X26646190Y-7120000D01*
X27122380Y-6881904D02*
X26122380Y-6881904D01*
X26122380Y-7262857D01*
X26170000Y-7358095D01*
X26217619Y-7405714D01*
X26312857Y-7453333D01*
X26455714Y-7453333D01*
X26550952Y-7405714D01*
X26598571Y-7358095D01*
X26646190Y-7262857D01*
X26646190Y-6881904D01*
X26455714Y-8310476D02*
X27122380Y-8310476D01*
X26074761Y-8072380D02*
X26789047Y-7834285D01*
X26789047Y-8453333D01*
G04 #@! TO.C,R5*
X24582380Y-11263333D02*
X24106190Y-10930000D01*
X24582380Y-10691904D02*
X23582380Y-10691904D01*
X23582380Y-11072857D01*
X23630000Y-11168095D01*
X23677619Y-11215714D01*
X23772857Y-11263333D01*
X23915714Y-11263333D01*
X24010952Y-11215714D01*
X24058571Y-11168095D01*
X24106190Y-11072857D01*
X24106190Y-10691904D01*
X23582380Y-12168095D02*
X23582380Y-11691904D01*
X24058571Y-11644285D01*
X24010952Y-11691904D01*
X23963333Y-11787142D01*
X23963333Y-12025238D01*
X24010952Y-12120476D01*
X24058571Y-12168095D01*
X24153809Y-12215714D01*
X24391904Y-12215714D01*
X24487142Y-12168095D01*
X24534761Y-12120476D01*
X24582380Y-12025238D01*
X24582380Y-11787142D01*
X24534761Y-11691904D01*
X24487142Y-11644285D01*
G04 #@! TO.C,R6*
X22042380Y-11263333D02*
X21566190Y-10930000D01*
X22042380Y-10691904D02*
X21042380Y-10691904D01*
X21042380Y-11072857D01*
X21090000Y-11168095D01*
X21137619Y-11215714D01*
X21232857Y-11263333D01*
X21375714Y-11263333D01*
X21470952Y-11215714D01*
X21518571Y-11168095D01*
X21566190Y-11072857D01*
X21566190Y-10691904D01*
X21042380Y-12120476D02*
X21042380Y-11930000D01*
X21090000Y-11834761D01*
X21137619Y-11787142D01*
X21280476Y-11691904D01*
X21470952Y-11644285D01*
X21851904Y-11644285D01*
X21947142Y-11691904D01*
X21994761Y-11739523D01*
X22042380Y-11834761D01*
X22042380Y-12025238D01*
X21994761Y-12120476D01*
X21947142Y-12168095D01*
X21851904Y-12215714D01*
X21613809Y-12215714D01*
X21518571Y-12168095D01*
X21470952Y-12120476D01*
X21423333Y-12025238D01*
X21423333Y-11834761D01*
X21470952Y-11739523D01*
X21518571Y-11691904D01*
X21613809Y-11644285D01*
G04 #@! TO.C,R7*
X19502380Y-11263333D02*
X19026190Y-10930000D01*
X19502380Y-10691904D02*
X18502380Y-10691904D01*
X18502380Y-11072857D01*
X18550000Y-11168095D01*
X18597619Y-11215714D01*
X18692857Y-11263333D01*
X18835714Y-11263333D01*
X18930952Y-11215714D01*
X18978571Y-11168095D01*
X19026190Y-11072857D01*
X19026190Y-10691904D01*
X18502380Y-11596666D02*
X18502380Y-12263333D01*
X19502380Y-11834761D01*
G04 #@! TO.C,R8*
X19502380Y-7453333D02*
X19026190Y-7120000D01*
X19502380Y-6881904D02*
X18502380Y-6881904D01*
X18502380Y-7262857D01*
X18550000Y-7358095D01*
X18597619Y-7405714D01*
X18692857Y-7453333D01*
X18835714Y-7453333D01*
X18930952Y-7405714D01*
X18978571Y-7358095D01*
X19026190Y-7262857D01*
X19026190Y-6881904D01*
X18930952Y-8024761D02*
X18883333Y-7929523D01*
X18835714Y-7881904D01*
X18740476Y-7834285D01*
X18692857Y-7834285D01*
X18597619Y-7881904D01*
X18550000Y-7929523D01*
X18502380Y-8024761D01*
X18502380Y-8215238D01*
X18550000Y-8310476D01*
X18597619Y-8358095D01*
X18692857Y-8405714D01*
X18740476Y-8405714D01*
X18835714Y-8358095D01*
X18883333Y-8310476D01*
X18930952Y-8215238D01*
X18930952Y-8024761D01*
X18978571Y-7929523D01*
X19026190Y-7881904D01*
X19121428Y-7834285D01*
X19311904Y-7834285D01*
X19407142Y-7881904D01*
X19454761Y-7929523D01*
X19502380Y-8024761D01*
X19502380Y-8215238D01*
X19454761Y-8310476D01*
X19407142Y-8358095D01*
X19311904Y-8405714D01*
X19121428Y-8405714D01*
X19026190Y-8358095D01*
X18978571Y-8310476D01*
X18930952Y-8215238D01*
G04 #@! TO.C,R9*
X16962380Y-7453333D02*
X16486190Y-7120000D01*
X16962380Y-6881904D02*
X15962380Y-6881904D01*
X15962380Y-7262857D01*
X16010000Y-7358095D01*
X16057619Y-7405714D01*
X16152857Y-7453333D01*
X16295714Y-7453333D01*
X16390952Y-7405714D01*
X16438571Y-7358095D01*
X16486190Y-7262857D01*
X16486190Y-6881904D01*
X16962380Y-7929523D02*
X16962380Y-8120000D01*
X16914761Y-8215238D01*
X16867142Y-8262857D01*
X16724285Y-8358095D01*
X16533809Y-8405714D01*
X16152857Y-8405714D01*
X16057619Y-8358095D01*
X16010000Y-8310476D01*
X15962380Y-8215238D01*
X15962380Y-8024761D01*
X16010000Y-7929523D01*
X16057619Y-7881904D01*
X16152857Y-7834285D01*
X16390952Y-7834285D01*
X16486190Y-7881904D01*
X16533809Y-7929523D01*
X16581428Y-8024761D01*
X16581428Y-8215238D01*
X16533809Y-8310476D01*
X16486190Y-8358095D01*
X16390952Y-8405714D01*
G04 #@! TO.C,R10*
X27122380Y-10152142D02*
X26646190Y-9818809D01*
X27122380Y-9580714D02*
X26122380Y-9580714D01*
X26122380Y-9961666D01*
X26170000Y-10056904D01*
X26217619Y-10104523D01*
X26312857Y-10152142D01*
X26455714Y-10152142D01*
X26550952Y-10104523D01*
X26598571Y-10056904D01*
X26646190Y-9961666D01*
X26646190Y-9580714D01*
X27122380Y-11104523D02*
X27122380Y-10533095D01*
X27122380Y-10818809D02*
X26122380Y-10818809D01*
X26265238Y-10723571D01*
X26360476Y-10628333D01*
X26408095Y-10533095D01*
X26122380Y-11723571D02*
X26122380Y-11818809D01*
X26170000Y-11914047D01*
X26217619Y-11961666D01*
X26312857Y-12009285D01*
X26503333Y-12056904D01*
X26741428Y-12056904D01*
X26931904Y-12009285D01*
X27027142Y-11961666D01*
X27074761Y-11914047D01*
X27122380Y-11818809D01*
X27122380Y-11723571D01*
X27074761Y-11628333D01*
X27027142Y-11580714D01*
X26931904Y-11533095D01*
X26741428Y-11485476D01*
X26503333Y-11485476D01*
X26312857Y-11533095D01*
X26217619Y-11580714D01*
X26170000Y-11628333D01*
X26122380Y-11723571D01*
G04 #@! TO.C,U1*
X36956904Y-3262380D02*
X36956904Y-4071904D01*
X36909285Y-4167142D01*
X36861666Y-4214761D01*
X36766428Y-4262380D01*
X36575952Y-4262380D01*
X36480714Y-4214761D01*
X36433095Y-4167142D01*
X36385476Y-4071904D01*
X36385476Y-3262380D01*
X35385476Y-4262380D02*
X35956904Y-4262380D01*
X35671190Y-4262380D02*
X35671190Y-3262380D01*
X35766428Y-3405238D01*
X35861666Y-3500476D01*
X35956904Y-3548095D01*
G04 #@! TD*
M02*
