M48
;DRILL file {KiCad (5.0.2)-1} date 5/12/2019 8:11:41 PM
;FORMAT={-:-/ absolute / metric / decimal}
FMAT,2
METRIC,TZ
T1C0.400
T2C1.000
%
G90
G05
T1
X3.81Y-3.175
X5.715Y-12.7
X5.715Y-15.24
X8.255Y-6.35
X8.834Y-10.193
X10.085Y-9.932
X10.361Y-6.515
X11.43Y-6.515
X11.43Y-7.62
X11.595Y-8.89
X12.065Y-11.43
X13.97Y-17.145
X14.605Y-4.915
X15.562Y-9.351
X19.05Y-6.985
X19.055Y-12.958
X20.32Y-12.23
X22.86Y-6.35
X22.86Y-11.43
X25.4Y-5.08
X29.845Y-3.175
T2
X3.81Y-5.08
X3.81Y-7.62
X3.81Y-10.16
X3.81Y-12.7
X3.81Y-15.24
X16.285Y-1.995
X16.285Y-17.235
X18.825Y-1.995
X18.825Y-17.235
X21.365Y-1.995
X21.365Y-17.235
X23.905Y-1.995
X23.905Y-17.235
X26.445Y-1.995
X26.445Y-17.235
X30.48Y-5.08
X30.48Y-7.62
X30.48Y-10.16
X30.48Y-12.7
X30.48Y-15.24
T0
M30
