G04 #@! TF.GenerationSoftware,KiCad,Pcbnew,(5.0.2)-1*
G04 #@! TF.CreationDate,2019-05-12T20:06:40-07:00*
G04 #@! TF.ProjectId,7_segment_display,375f7365-676d-4656-9e74-5f646973706c,rev?*
G04 #@! TF.SameCoordinates,Original*
G04 #@! TF.FileFunction,Paste,Bot*
G04 #@! TF.FilePolarity,Positive*
%FSLAX46Y46*%
G04 Gerber Fmt 4.6, Leading zero omitted, Abs format (unit mm)*
G04 Created by KiCad (PCBNEW (5.0.2)-1) date 5/12/2019 8:06:40 PM*
%MOMM*%
%LPD*%
G01*
G04 APERTURE LIST*
%ADD10C,0.100000*%
%ADD11C,0.875000*%
%ADD12R,1.300000X0.800000*%
G04 APERTURE END LIST*
D10*
G04 #@! TO.C,C1*
G36*
X11035191Y-16036053D02*
X11056426Y-16039203D01*
X11077250Y-16044419D01*
X11097462Y-16051651D01*
X11116868Y-16060830D01*
X11135281Y-16071866D01*
X11152524Y-16084654D01*
X11168430Y-16099070D01*
X11182846Y-16114976D01*
X11195634Y-16132219D01*
X11206670Y-16150632D01*
X11215849Y-16170038D01*
X11223081Y-16190250D01*
X11228297Y-16211074D01*
X11231447Y-16232309D01*
X11232500Y-16253750D01*
X11232500Y-16766250D01*
X11231447Y-16787691D01*
X11228297Y-16808926D01*
X11223081Y-16829750D01*
X11215849Y-16849962D01*
X11206670Y-16869368D01*
X11195634Y-16887781D01*
X11182846Y-16905024D01*
X11168430Y-16920930D01*
X11152524Y-16935346D01*
X11135281Y-16948134D01*
X11116868Y-16959170D01*
X11097462Y-16968349D01*
X11077250Y-16975581D01*
X11056426Y-16980797D01*
X11035191Y-16983947D01*
X11013750Y-16985000D01*
X10576250Y-16985000D01*
X10554809Y-16983947D01*
X10533574Y-16980797D01*
X10512750Y-16975581D01*
X10492538Y-16968349D01*
X10473132Y-16959170D01*
X10454719Y-16948134D01*
X10437476Y-16935346D01*
X10421570Y-16920930D01*
X10407154Y-16905024D01*
X10394366Y-16887781D01*
X10383330Y-16869368D01*
X10374151Y-16849962D01*
X10366919Y-16829750D01*
X10361703Y-16808926D01*
X10358553Y-16787691D01*
X10357500Y-16766250D01*
X10357500Y-16253750D01*
X10358553Y-16232309D01*
X10361703Y-16211074D01*
X10366919Y-16190250D01*
X10374151Y-16170038D01*
X10383330Y-16150632D01*
X10394366Y-16132219D01*
X10407154Y-16114976D01*
X10421570Y-16099070D01*
X10437476Y-16084654D01*
X10454719Y-16071866D01*
X10473132Y-16060830D01*
X10492538Y-16051651D01*
X10512750Y-16044419D01*
X10533574Y-16039203D01*
X10554809Y-16036053D01*
X10576250Y-16035000D01*
X11013750Y-16035000D01*
X11035191Y-16036053D01*
X11035191Y-16036053D01*
G37*
D11*
X10795000Y-16510000D03*
D10*
G36*
X9460191Y-16036053D02*
X9481426Y-16039203D01*
X9502250Y-16044419D01*
X9522462Y-16051651D01*
X9541868Y-16060830D01*
X9560281Y-16071866D01*
X9577524Y-16084654D01*
X9593430Y-16099070D01*
X9607846Y-16114976D01*
X9620634Y-16132219D01*
X9631670Y-16150632D01*
X9640849Y-16170038D01*
X9648081Y-16190250D01*
X9653297Y-16211074D01*
X9656447Y-16232309D01*
X9657500Y-16253750D01*
X9657500Y-16766250D01*
X9656447Y-16787691D01*
X9653297Y-16808926D01*
X9648081Y-16829750D01*
X9640849Y-16849962D01*
X9631670Y-16869368D01*
X9620634Y-16887781D01*
X9607846Y-16905024D01*
X9593430Y-16920930D01*
X9577524Y-16935346D01*
X9560281Y-16948134D01*
X9541868Y-16959170D01*
X9522462Y-16968349D01*
X9502250Y-16975581D01*
X9481426Y-16980797D01*
X9460191Y-16983947D01*
X9438750Y-16985000D01*
X9001250Y-16985000D01*
X8979809Y-16983947D01*
X8958574Y-16980797D01*
X8937750Y-16975581D01*
X8917538Y-16968349D01*
X8898132Y-16959170D01*
X8879719Y-16948134D01*
X8862476Y-16935346D01*
X8846570Y-16920930D01*
X8832154Y-16905024D01*
X8819366Y-16887781D01*
X8808330Y-16869368D01*
X8799151Y-16849962D01*
X8791919Y-16829750D01*
X8786703Y-16808926D01*
X8783553Y-16787691D01*
X8782500Y-16766250D01*
X8782500Y-16253750D01*
X8783553Y-16232309D01*
X8786703Y-16211074D01*
X8791919Y-16190250D01*
X8799151Y-16170038D01*
X8808330Y-16150632D01*
X8819366Y-16132219D01*
X8832154Y-16114976D01*
X8846570Y-16099070D01*
X8862476Y-16084654D01*
X8879719Y-16071866D01*
X8898132Y-16060830D01*
X8917538Y-16051651D01*
X8937750Y-16044419D01*
X8958574Y-16039203D01*
X8979809Y-16036053D01*
X9001250Y-16035000D01*
X9438750Y-16035000D01*
X9460191Y-16036053D01*
X9460191Y-16036053D01*
G37*
D11*
X9220000Y-16510000D03*
G04 #@! TD*
D10*
G04 #@! TO.C,R3*
G36*
X24407691Y-5583553D02*
X24428926Y-5586703D01*
X24449750Y-5591919D01*
X24469962Y-5599151D01*
X24489368Y-5608330D01*
X24507781Y-5619366D01*
X24525024Y-5632154D01*
X24540930Y-5646570D01*
X24555346Y-5662476D01*
X24568134Y-5679719D01*
X24579170Y-5698132D01*
X24588349Y-5717538D01*
X24595581Y-5737750D01*
X24600797Y-5758574D01*
X24603947Y-5779809D01*
X24605000Y-5801250D01*
X24605000Y-6238750D01*
X24603947Y-6260191D01*
X24600797Y-6281426D01*
X24595581Y-6302250D01*
X24588349Y-6322462D01*
X24579170Y-6341868D01*
X24568134Y-6360281D01*
X24555346Y-6377524D01*
X24540930Y-6393430D01*
X24525024Y-6407846D01*
X24507781Y-6420634D01*
X24489368Y-6431670D01*
X24469962Y-6440849D01*
X24449750Y-6448081D01*
X24428926Y-6453297D01*
X24407691Y-6456447D01*
X24386250Y-6457500D01*
X23873750Y-6457500D01*
X23852309Y-6456447D01*
X23831074Y-6453297D01*
X23810250Y-6448081D01*
X23790038Y-6440849D01*
X23770632Y-6431670D01*
X23752219Y-6420634D01*
X23734976Y-6407846D01*
X23719070Y-6393430D01*
X23704654Y-6377524D01*
X23691866Y-6360281D01*
X23680830Y-6341868D01*
X23671651Y-6322462D01*
X23664419Y-6302250D01*
X23659203Y-6281426D01*
X23656053Y-6260191D01*
X23655000Y-6238750D01*
X23655000Y-5801250D01*
X23656053Y-5779809D01*
X23659203Y-5758574D01*
X23664419Y-5737750D01*
X23671651Y-5717538D01*
X23680830Y-5698132D01*
X23691866Y-5679719D01*
X23704654Y-5662476D01*
X23719070Y-5646570D01*
X23734976Y-5632154D01*
X23752219Y-5619366D01*
X23770632Y-5608330D01*
X23790038Y-5599151D01*
X23810250Y-5591919D01*
X23831074Y-5586703D01*
X23852309Y-5583553D01*
X23873750Y-5582500D01*
X24386250Y-5582500D01*
X24407691Y-5583553D01*
X24407691Y-5583553D01*
G37*
D11*
X24130000Y-6020000D03*
D10*
G36*
X24407691Y-4008553D02*
X24428926Y-4011703D01*
X24449750Y-4016919D01*
X24469962Y-4024151D01*
X24489368Y-4033330D01*
X24507781Y-4044366D01*
X24525024Y-4057154D01*
X24540930Y-4071570D01*
X24555346Y-4087476D01*
X24568134Y-4104719D01*
X24579170Y-4123132D01*
X24588349Y-4142538D01*
X24595581Y-4162750D01*
X24600797Y-4183574D01*
X24603947Y-4204809D01*
X24605000Y-4226250D01*
X24605000Y-4663750D01*
X24603947Y-4685191D01*
X24600797Y-4706426D01*
X24595581Y-4727250D01*
X24588349Y-4747462D01*
X24579170Y-4766868D01*
X24568134Y-4785281D01*
X24555346Y-4802524D01*
X24540930Y-4818430D01*
X24525024Y-4832846D01*
X24507781Y-4845634D01*
X24489368Y-4856670D01*
X24469962Y-4865849D01*
X24449750Y-4873081D01*
X24428926Y-4878297D01*
X24407691Y-4881447D01*
X24386250Y-4882500D01*
X23873750Y-4882500D01*
X23852309Y-4881447D01*
X23831074Y-4878297D01*
X23810250Y-4873081D01*
X23790038Y-4865849D01*
X23770632Y-4856670D01*
X23752219Y-4845634D01*
X23734976Y-4832846D01*
X23719070Y-4818430D01*
X23704654Y-4802524D01*
X23691866Y-4785281D01*
X23680830Y-4766868D01*
X23671651Y-4747462D01*
X23664419Y-4727250D01*
X23659203Y-4706426D01*
X23656053Y-4685191D01*
X23655000Y-4663750D01*
X23655000Y-4226250D01*
X23656053Y-4204809D01*
X23659203Y-4183574D01*
X23664419Y-4162750D01*
X23671651Y-4142538D01*
X23680830Y-4123132D01*
X23691866Y-4104719D01*
X23704654Y-4087476D01*
X23719070Y-4071570D01*
X23734976Y-4057154D01*
X23752219Y-4044366D01*
X23770632Y-4033330D01*
X23790038Y-4024151D01*
X23810250Y-4016919D01*
X23831074Y-4011703D01*
X23852309Y-4008553D01*
X23873750Y-4007500D01*
X24386250Y-4007500D01*
X24407691Y-4008553D01*
X24407691Y-4008553D01*
G37*
D11*
X24130000Y-4445000D03*
G04 #@! TD*
D10*
G04 #@! TO.C,R4*
G36*
X26947691Y-5431053D02*
X26968926Y-5434203D01*
X26989750Y-5439419D01*
X27009962Y-5446651D01*
X27029368Y-5455830D01*
X27047781Y-5466866D01*
X27065024Y-5479654D01*
X27080930Y-5494070D01*
X27095346Y-5509976D01*
X27108134Y-5527219D01*
X27119170Y-5545632D01*
X27128349Y-5565038D01*
X27135581Y-5585250D01*
X27140797Y-5606074D01*
X27143947Y-5627309D01*
X27145000Y-5648750D01*
X27145000Y-6086250D01*
X27143947Y-6107691D01*
X27140797Y-6128926D01*
X27135581Y-6149750D01*
X27128349Y-6169962D01*
X27119170Y-6189368D01*
X27108134Y-6207781D01*
X27095346Y-6225024D01*
X27080930Y-6240930D01*
X27065024Y-6255346D01*
X27047781Y-6268134D01*
X27029368Y-6279170D01*
X27009962Y-6288349D01*
X26989750Y-6295581D01*
X26968926Y-6300797D01*
X26947691Y-6303947D01*
X26926250Y-6305000D01*
X26413750Y-6305000D01*
X26392309Y-6303947D01*
X26371074Y-6300797D01*
X26350250Y-6295581D01*
X26330038Y-6288349D01*
X26310632Y-6279170D01*
X26292219Y-6268134D01*
X26274976Y-6255346D01*
X26259070Y-6240930D01*
X26244654Y-6225024D01*
X26231866Y-6207781D01*
X26220830Y-6189368D01*
X26211651Y-6169962D01*
X26204419Y-6149750D01*
X26199203Y-6128926D01*
X26196053Y-6107691D01*
X26195000Y-6086250D01*
X26195000Y-5648750D01*
X26196053Y-5627309D01*
X26199203Y-5606074D01*
X26204419Y-5585250D01*
X26211651Y-5565038D01*
X26220830Y-5545632D01*
X26231866Y-5527219D01*
X26244654Y-5509976D01*
X26259070Y-5494070D01*
X26274976Y-5479654D01*
X26292219Y-5466866D01*
X26310632Y-5455830D01*
X26330038Y-5446651D01*
X26350250Y-5439419D01*
X26371074Y-5434203D01*
X26392309Y-5431053D01*
X26413750Y-5430000D01*
X26926250Y-5430000D01*
X26947691Y-5431053D01*
X26947691Y-5431053D01*
G37*
D11*
X26670000Y-5867500D03*
D10*
G36*
X26947691Y-3856053D02*
X26968926Y-3859203D01*
X26989750Y-3864419D01*
X27009962Y-3871651D01*
X27029368Y-3880830D01*
X27047781Y-3891866D01*
X27065024Y-3904654D01*
X27080930Y-3919070D01*
X27095346Y-3934976D01*
X27108134Y-3952219D01*
X27119170Y-3970632D01*
X27128349Y-3990038D01*
X27135581Y-4010250D01*
X27140797Y-4031074D01*
X27143947Y-4052309D01*
X27145000Y-4073750D01*
X27145000Y-4511250D01*
X27143947Y-4532691D01*
X27140797Y-4553926D01*
X27135581Y-4574750D01*
X27128349Y-4594962D01*
X27119170Y-4614368D01*
X27108134Y-4632781D01*
X27095346Y-4650024D01*
X27080930Y-4665930D01*
X27065024Y-4680346D01*
X27047781Y-4693134D01*
X27029368Y-4704170D01*
X27009962Y-4713349D01*
X26989750Y-4720581D01*
X26968926Y-4725797D01*
X26947691Y-4728947D01*
X26926250Y-4730000D01*
X26413750Y-4730000D01*
X26392309Y-4728947D01*
X26371074Y-4725797D01*
X26350250Y-4720581D01*
X26330038Y-4713349D01*
X26310632Y-4704170D01*
X26292219Y-4693134D01*
X26274976Y-4680346D01*
X26259070Y-4665930D01*
X26244654Y-4650024D01*
X26231866Y-4632781D01*
X26220830Y-4614368D01*
X26211651Y-4594962D01*
X26204419Y-4574750D01*
X26199203Y-4553926D01*
X26196053Y-4532691D01*
X26195000Y-4511250D01*
X26195000Y-4073750D01*
X26196053Y-4052309D01*
X26199203Y-4031074D01*
X26204419Y-4010250D01*
X26211651Y-3990038D01*
X26220830Y-3970632D01*
X26231866Y-3952219D01*
X26244654Y-3934976D01*
X26259070Y-3919070D01*
X26274976Y-3904654D01*
X26292219Y-3891866D01*
X26310632Y-3880830D01*
X26330038Y-3871651D01*
X26350250Y-3864419D01*
X26371074Y-3859203D01*
X26392309Y-3856053D01*
X26413750Y-3855000D01*
X26926250Y-3855000D01*
X26947691Y-3856053D01*
X26947691Y-3856053D01*
G37*
D11*
X26670000Y-4292500D03*
G04 #@! TD*
D10*
G04 #@! TO.C,R5*
G36*
X24407691Y-12746053D02*
X24428926Y-12749203D01*
X24449750Y-12754419D01*
X24469962Y-12761651D01*
X24489368Y-12770830D01*
X24507781Y-12781866D01*
X24525024Y-12794654D01*
X24540930Y-12809070D01*
X24555346Y-12824976D01*
X24568134Y-12842219D01*
X24579170Y-12860632D01*
X24588349Y-12880038D01*
X24595581Y-12900250D01*
X24600797Y-12921074D01*
X24603947Y-12942309D01*
X24605000Y-12963750D01*
X24605000Y-13401250D01*
X24603947Y-13422691D01*
X24600797Y-13443926D01*
X24595581Y-13464750D01*
X24588349Y-13484962D01*
X24579170Y-13504368D01*
X24568134Y-13522781D01*
X24555346Y-13540024D01*
X24540930Y-13555930D01*
X24525024Y-13570346D01*
X24507781Y-13583134D01*
X24489368Y-13594170D01*
X24469962Y-13603349D01*
X24449750Y-13610581D01*
X24428926Y-13615797D01*
X24407691Y-13618947D01*
X24386250Y-13620000D01*
X23873750Y-13620000D01*
X23852309Y-13618947D01*
X23831074Y-13615797D01*
X23810250Y-13610581D01*
X23790038Y-13603349D01*
X23770632Y-13594170D01*
X23752219Y-13583134D01*
X23734976Y-13570346D01*
X23719070Y-13555930D01*
X23704654Y-13540024D01*
X23691866Y-13522781D01*
X23680830Y-13504368D01*
X23671651Y-13484962D01*
X23664419Y-13464750D01*
X23659203Y-13443926D01*
X23656053Y-13422691D01*
X23655000Y-13401250D01*
X23655000Y-12963750D01*
X23656053Y-12942309D01*
X23659203Y-12921074D01*
X23664419Y-12900250D01*
X23671651Y-12880038D01*
X23680830Y-12860632D01*
X23691866Y-12842219D01*
X23704654Y-12824976D01*
X23719070Y-12809070D01*
X23734976Y-12794654D01*
X23752219Y-12781866D01*
X23770632Y-12770830D01*
X23790038Y-12761651D01*
X23810250Y-12754419D01*
X23831074Y-12749203D01*
X23852309Y-12746053D01*
X23873750Y-12745000D01*
X24386250Y-12745000D01*
X24407691Y-12746053D01*
X24407691Y-12746053D01*
G37*
D11*
X24130000Y-13182500D03*
D10*
G36*
X24407691Y-14321053D02*
X24428926Y-14324203D01*
X24449750Y-14329419D01*
X24469962Y-14336651D01*
X24489368Y-14345830D01*
X24507781Y-14356866D01*
X24525024Y-14369654D01*
X24540930Y-14384070D01*
X24555346Y-14399976D01*
X24568134Y-14417219D01*
X24579170Y-14435632D01*
X24588349Y-14455038D01*
X24595581Y-14475250D01*
X24600797Y-14496074D01*
X24603947Y-14517309D01*
X24605000Y-14538750D01*
X24605000Y-14976250D01*
X24603947Y-14997691D01*
X24600797Y-15018926D01*
X24595581Y-15039750D01*
X24588349Y-15059962D01*
X24579170Y-15079368D01*
X24568134Y-15097781D01*
X24555346Y-15115024D01*
X24540930Y-15130930D01*
X24525024Y-15145346D01*
X24507781Y-15158134D01*
X24489368Y-15169170D01*
X24469962Y-15178349D01*
X24449750Y-15185581D01*
X24428926Y-15190797D01*
X24407691Y-15193947D01*
X24386250Y-15195000D01*
X23873750Y-15195000D01*
X23852309Y-15193947D01*
X23831074Y-15190797D01*
X23810250Y-15185581D01*
X23790038Y-15178349D01*
X23770632Y-15169170D01*
X23752219Y-15158134D01*
X23734976Y-15145346D01*
X23719070Y-15130930D01*
X23704654Y-15115024D01*
X23691866Y-15097781D01*
X23680830Y-15079368D01*
X23671651Y-15059962D01*
X23664419Y-15039750D01*
X23659203Y-15018926D01*
X23656053Y-14997691D01*
X23655000Y-14976250D01*
X23655000Y-14538750D01*
X23656053Y-14517309D01*
X23659203Y-14496074D01*
X23664419Y-14475250D01*
X23671651Y-14455038D01*
X23680830Y-14435632D01*
X23691866Y-14417219D01*
X23704654Y-14399976D01*
X23719070Y-14384070D01*
X23734976Y-14369654D01*
X23752219Y-14356866D01*
X23770632Y-14345830D01*
X23790038Y-14336651D01*
X23810250Y-14329419D01*
X23831074Y-14324203D01*
X23852309Y-14321053D01*
X23873750Y-14320000D01*
X24386250Y-14320000D01*
X24407691Y-14321053D01*
X24407691Y-14321053D01*
G37*
D11*
X24130000Y-14757500D03*
G04 #@! TD*
D10*
G04 #@! TO.C,R6*
G36*
X21867691Y-12746053D02*
X21888926Y-12749203D01*
X21909750Y-12754419D01*
X21929962Y-12761651D01*
X21949368Y-12770830D01*
X21967781Y-12781866D01*
X21985024Y-12794654D01*
X22000930Y-12809070D01*
X22015346Y-12824976D01*
X22028134Y-12842219D01*
X22039170Y-12860632D01*
X22048349Y-12880038D01*
X22055581Y-12900250D01*
X22060797Y-12921074D01*
X22063947Y-12942309D01*
X22065000Y-12963750D01*
X22065000Y-13401250D01*
X22063947Y-13422691D01*
X22060797Y-13443926D01*
X22055581Y-13464750D01*
X22048349Y-13484962D01*
X22039170Y-13504368D01*
X22028134Y-13522781D01*
X22015346Y-13540024D01*
X22000930Y-13555930D01*
X21985024Y-13570346D01*
X21967781Y-13583134D01*
X21949368Y-13594170D01*
X21929962Y-13603349D01*
X21909750Y-13610581D01*
X21888926Y-13615797D01*
X21867691Y-13618947D01*
X21846250Y-13620000D01*
X21333750Y-13620000D01*
X21312309Y-13618947D01*
X21291074Y-13615797D01*
X21270250Y-13610581D01*
X21250038Y-13603349D01*
X21230632Y-13594170D01*
X21212219Y-13583134D01*
X21194976Y-13570346D01*
X21179070Y-13555930D01*
X21164654Y-13540024D01*
X21151866Y-13522781D01*
X21140830Y-13504368D01*
X21131651Y-13484962D01*
X21124419Y-13464750D01*
X21119203Y-13443926D01*
X21116053Y-13422691D01*
X21115000Y-13401250D01*
X21115000Y-12963750D01*
X21116053Y-12942309D01*
X21119203Y-12921074D01*
X21124419Y-12900250D01*
X21131651Y-12880038D01*
X21140830Y-12860632D01*
X21151866Y-12842219D01*
X21164654Y-12824976D01*
X21179070Y-12809070D01*
X21194976Y-12794654D01*
X21212219Y-12781866D01*
X21230632Y-12770830D01*
X21250038Y-12761651D01*
X21270250Y-12754419D01*
X21291074Y-12749203D01*
X21312309Y-12746053D01*
X21333750Y-12745000D01*
X21846250Y-12745000D01*
X21867691Y-12746053D01*
X21867691Y-12746053D01*
G37*
D11*
X21590000Y-13182500D03*
D10*
G36*
X21867691Y-14321053D02*
X21888926Y-14324203D01*
X21909750Y-14329419D01*
X21929962Y-14336651D01*
X21949368Y-14345830D01*
X21967781Y-14356866D01*
X21985024Y-14369654D01*
X22000930Y-14384070D01*
X22015346Y-14399976D01*
X22028134Y-14417219D01*
X22039170Y-14435632D01*
X22048349Y-14455038D01*
X22055581Y-14475250D01*
X22060797Y-14496074D01*
X22063947Y-14517309D01*
X22065000Y-14538750D01*
X22065000Y-14976250D01*
X22063947Y-14997691D01*
X22060797Y-15018926D01*
X22055581Y-15039750D01*
X22048349Y-15059962D01*
X22039170Y-15079368D01*
X22028134Y-15097781D01*
X22015346Y-15115024D01*
X22000930Y-15130930D01*
X21985024Y-15145346D01*
X21967781Y-15158134D01*
X21949368Y-15169170D01*
X21929962Y-15178349D01*
X21909750Y-15185581D01*
X21888926Y-15190797D01*
X21867691Y-15193947D01*
X21846250Y-15195000D01*
X21333750Y-15195000D01*
X21312309Y-15193947D01*
X21291074Y-15190797D01*
X21270250Y-15185581D01*
X21250038Y-15178349D01*
X21230632Y-15169170D01*
X21212219Y-15158134D01*
X21194976Y-15145346D01*
X21179070Y-15130930D01*
X21164654Y-15115024D01*
X21151866Y-15097781D01*
X21140830Y-15079368D01*
X21131651Y-15059962D01*
X21124419Y-15039750D01*
X21119203Y-15018926D01*
X21116053Y-14997691D01*
X21115000Y-14976250D01*
X21115000Y-14538750D01*
X21116053Y-14517309D01*
X21119203Y-14496074D01*
X21124419Y-14475250D01*
X21131651Y-14455038D01*
X21140830Y-14435632D01*
X21151866Y-14417219D01*
X21164654Y-14399976D01*
X21179070Y-14384070D01*
X21194976Y-14369654D01*
X21212219Y-14356866D01*
X21230632Y-14345830D01*
X21250038Y-14336651D01*
X21270250Y-14329419D01*
X21291074Y-14324203D01*
X21312309Y-14321053D01*
X21333750Y-14320000D01*
X21846250Y-14320000D01*
X21867691Y-14321053D01*
X21867691Y-14321053D01*
G37*
D11*
X21590000Y-14757500D03*
G04 #@! TD*
D10*
G04 #@! TO.C,R7*
G36*
X19327691Y-12746053D02*
X19348926Y-12749203D01*
X19369750Y-12754419D01*
X19389962Y-12761651D01*
X19409368Y-12770830D01*
X19427781Y-12781866D01*
X19445024Y-12794654D01*
X19460930Y-12809070D01*
X19475346Y-12824976D01*
X19488134Y-12842219D01*
X19499170Y-12860632D01*
X19508349Y-12880038D01*
X19515581Y-12900250D01*
X19520797Y-12921074D01*
X19523947Y-12942309D01*
X19525000Y-12963750D01*
X19525000Y-13401250D01*
X19523947Y-13422691D01*
X19520797Y-13443926D01*
X19515581Y-13464750D01*
X19508349Y-13484962D01*
X19499170Y-13504368D01*
X19488134Y-13522781D01*
X19475346Y-13540024D01*
X19460930Y-13555930D01*
X19445024Y-13570346D01*
X19427781Y-13583134D01*
X19409368Y-13594170D01*
X19389962Y-13603349D01*
X19369750Y-13610581D01*
X19348926Y-13615797D01*
X19327691Y-13618947D01*
X19306250Y-13620000D01*
X18793750Y-13620000D01*
X18772309Y-13618947D01*
X18751074Y-13615797D01*
X18730250Y-13610581D01*
X18710038Y-13603349D01*
X18690632Y-13594170D01*
X18672219Y-13583134D01*
X18654976Y-13570346D01*
X18639070Y-13555930D01*
X18624654Y-13540024D01*
X18611866Y-13522781D01*
X18600830Y-13504368D01*
X18591651Y-13484962D01*
X18584419Y-13464750D01*
X18579203Y-13443926D01*
X18576053Y-13422691D01*
X18575000Y-13401250D01*
X18575000Y-12963750D01*
X18576053Y-12942309D01*
X18579203Y-12921074D01*
X18584419Y-12900250D01*
X18591651Y-12880038D01*
X18600830Y-12860632D01*
X18611866Y-12842219D01*
X18624654Y-12824976D01*
X18639070Y-12809070D01*
X18654976Y-12794654D01*
X18672219Y-12781866D01*
X18690632Y-12770830D01*
X18710038Y-12761651D01*
X18730250Y-12754419D01*
X18751074Y-12749203D01*
X18772309Y-12746053D01*
X18793750Y-12745000D01*
X19306250Y-12745000D01*
X19327691Y-12746053D01*
X19327691Y-12746053D01*
G37*
D11*
X19050000Y-13182500D03*
D10*
G36*
X19327691Y-14321053D02*
X19348926Y-14324203D01*
X19369750Y-14329419D01*
X19389962Y-14336651D01*
X19409368Y-14345830D01*
X19427781Y-14356866D01*
X19445024Y-14369654D01*
X19460930Y-14384070D01*
X19475346Y-14399976D01*
X19488134Y-14417219D01*
X19499170Y-14435632D01*
X19508349Y-14455038D01*
X19515581Y-14475250D01*
X19520797Y-14496074D01*
X19523947Y-14517309D01*
X19525000Y-14538750D01*
X19525000Y-14976250D01*
X19523947Y-14997691D01*
X19520797Y-15018926D01*
X19515581Y-15039750D01*
X19508349Y-15059962D01*
X19499170Y-15079368D01*
X19488134Y-15097781D01*
X19475346Y-15115024D01*
X19460930Y-15130930D01*
X19445024Y-15145346D01*
X19427781Y-15158134D01*
X19409368Y-15169170D01*
X19389962Y-15178349D01*
X19369750Y-15185581D01*
X19348926Y-15190797D01*
X19327691Y-15193947D01*
X19306250Y-15195000D01*
X18793750Y-15195000D01*
X18772309Y-15193947D01*
X18751074Y-15190797D01*
X18730250Y-15185581D01*
X18710038Y-15178349D01*
X18690632Y-15169170D01*
X18672219Y-15158134D01*
X18654976Y-15145346D01*
X18639070Y-15130930D01*
X18624654Y-15115024D01*
X18611866Y-15097781D01*
X18600830Y-15079368D01*
X18591651Y-15059962D01*
X18584419Y-15039750D01*
X18579203Y-15018926D01*
X18576053Y-14997691D01*
X18575000Y-14976250D01*
X18575000Y-14538750D01*
X18576053Y-14517309D01*
X18579203Y-14496074D01*
X18584419Y-14475250D01*
X18591651Y-14455038D01*
X18600830Y-14435632D01*
X18611866Y-14417219D01*
X18624654Y-14399976D01*
X18639070Y-14384070D01*
X18654976Y-14369654D01*
X18672219Y-14356866D01*
X18690632Y-14345830D01*
X18710038Y-14336651D01*
X18730250Y-14329419D01*
X18751074Y-14324203D01*
X18772309Y-14321053D01*
X18793750Y-14320000D01*
X19306250Y-14320000D01*
X19327691Y-14321053D01*
X19327691Y-14321053D01*
G37*
D11*
X19050000Y-14757500D03*
G04 #@! TD*
D10*
G04 #@! TO.C,R8*
G36*
X19327691Y-5431053D02*
X19348926Y-5434203D01*
X19369750Y-5439419D01*
X19389962Y-5446651D01*
X19409368Y-5455830D01*
X19427781Y-5466866D01*
X19445024Y-5479654D01*
X19460930Y-5494070D01*
X19475346Y-5509976D01*
X19488134Y-5527219D01*
X19499170Y-5545632D01*
X19508349Y-5565038D01*
X19515581Y-5585250D01*
X19520797Y-5606074D01*
X19523947Y-5627309D01*
X19525000Y-5648750D01*
X19525000Y-6086250D01*
X19523947Y-6107691D01*
X19520797Y-6128926D01*
X19515581Y-6149750D01*
X19508349Y-6169962D01*
X19499170Y-6189368D01*
X19488134Y-6207781D01*
X19475346Y-6225024D01*
X19460930Y-6240930D01*
X19445024Y-6255346D01*
X19427781Y-6268134D01*
X19409368Y-6279170D01*
X19389962Y-6288349D01*
X19369750Y-6295581D01*
X19348926Y-6300797D01*
X19327691Y-6303947D01*
X19306250Y-6305000D01*
X18793750Y-6305000D01*
X18772309Y-6303947D01*
X18751074Y-6300797D01*
X18730250Y-6295581D01*
X18710038Y-6288349D01*
X18690632Y-6279170D01*
X18672219Y-6268134D01*
X18654976Y-6255346D01*
X18639070Y-6240930D01*
X18624654Y-6225024D01*
X18611866Y-6207781D01*
X18600830Y-6189368D01*
X18591651Y-6169962D01*
X18584419Y-6149750D01*
X18579203Y-6128926D01*
X18576053Y-6107691D01*
X18575000Y-6086250D01*
X18575000Y-5648750D01*
X18576053Y-5627309D01*
X18579203Y-5606074D01*
X18584419Y-5585250D01*
X18591651Y-5565038D01*
X18600830Y-5545632D01*
X18611866Y-5527219D01*
X18624654Y-5509976D01*
X18639070Y-5494070D01*
X18654976Y-5479654D01*
X18672219Y-5466866D01*
X18690632Y-5455830D01*
X18710038Y-5446651D01*
X18730250Y-5439419D01*
X18751074Y-5434203D01*
X18772309Y-5431053D01*
X18793750Y-5430000D01*
X19306250Y-5430000D01*
X19327691Y-5431053D01*
X19327691Y-5431053D01*
G37*
D11*
X19050000Y-5867500D03*
D10*
G36*
X19327691Y-3856053D02*
X19348926Y-3859203D01*
X19369750Y-3864419D01*
X19389962Y-3871651D01*
X19409368Y-3880830D01*
X19427781Y-3891866D01*
X19445024Y-3904654D01*
X19460930Y-3919070D01*
X19475346Y-3934976D01*
X19488134Y-3952219D01*
X19499170Y-3970632D01*
X19508349Y-3990038D01*
X19515581Y-4010250D01*
X19520797Y-4031074D01*
X19523947Y-4052309D01*
X19525000Y-4073750D01*
X19525000Y-4511250D01*
X19523947Y-4532691D01*
X19520797Y-4553926D01*
X19515581Y-4574750D01*
X19508349Y-4594962D01*
X19499170Y-4614368D01*
X19488134Y-4632781D01*
X19475346Y-4650024D01*
X19460930Y-4665930D01*
X19445024Y-4680346D01*
X19427781Y-4693134D01*
X19409368Y-4704170D01*
X19389962Y-4713349D01*
X19369750Y-4720581D01*
X19348926Y-4725797D01*
X19327691Y-4728947D01*
X19306250Y-4730000D01*
X18793750Y-4730000D01*
X18772309Y-4728947D01*
X18751074Y-4725797D01*
X18730250Y-4720581D01*
X18710038Y-4713349D01*
X18690632Y-4704170D01*
X18672219Y-4693134D01*
X18654976Y-4680346D01*
X18639070Y-4665930D01*
X18624654Y-4650024D01*
X18611866Y-4632781D01*
X18600830Y-4614368D01*
X18591651Y-4594962D01*
X18584419Y-4574750D01*
X18579203Y-4553926D01*
X18576053Y-4532691D01*
X18575000Y-4511250D01*
X18575000Y-4073750D01*
X18576053Y-4052309D01*
X18579203Y-4031074D01*
X18584419Y-4010250D01*
X18591651Y-3990038D01*
X18600830Y-3970632D01*
X18611866Y-3952219D01*
X18624654Y-3934976D01*
X18639070Y-3919070D01*
X18654976Y-3904654D01*
X18672219Y-3891866D01*
X18690632Y-3880830D01*
X18710038Y-3871651D01*
X18730250Y-3864419D01*
X18751074Y-3859203D01*
X18772309Y-3856053D01*
X18793750Y-3855000D01*
X19306250Y-3855000D01*
X19327691Y-3856053D01*
X19327691Y-3856053D01*
G37*
D11*
X19050000Y-4292500D03*
G04 #@! TD*
D10*
G04 #@! TO.C,R9*
G36*
X16787691Y-5431053D02*
X16808926Y-5434203D01*
X16829750Y-5439419D01*
X16849962Y-5446651D01*
X16869368Y-5455830D01*
X16887781Y-5466866D01*
X16905024Y-5479654D01*
X16920930Y-5494070D01*
X16935346Y-5509976D01*
X16948134Y-5527219D01*
X16959170Y-5545632D01*
X16968349Y-5565038D01*
X16975581Y-5585250D01*
X16980797Y-5606074D01*
X16983947Y-5627309D01*
X16985000Y-5648750D01*
X16985000Y-6086250D01*
X16983947Y-6107691D01*
X16980797Y-6128926D01*
X16975581Y-6149750D01*
X16968349Y-6169962D01*
X16959170Y-6189368D01*
X16948134Y-6207781D01*
X16935346Y-6225024D01*
X16920930Y-6240930D01*
X16905024Y-6255346D01*
X16887781Y-6268134D01*
X16869368Y-6279170D01*
X16849962Y-6288349D01*
X16829750Y-6295581D01*
X16808926Y-6300797D01*
X16787691Y-6303947D01*
X16766250Y-6305000D01*
X16253750Y-6305000D01*
X16232309Y-6303947D01*
X16211074Y-6300797D01*
X16190250Y-6295581D01*
X16170038Y-6288349D01*
X16150632Y-6279170D01*
X16132219Y-6268134D01*
X16114976Y-6255346D01*
X16099070Y-6240930D01*
X16084654Y-6225024D01*
X16071866Y-6207781D01*
X16060830Y-6189368D01*
X16051651Y-6169962D01*
X16044419Y-6149750D01*
X16039203Y-6128926D01*
X16036053Y-6107691D01*
X16035000Y-6086250D01*
X16035000Y-5648750D01*
X16036053Y-5627309D01*
X16039203Y-5606074D01*
X16044419Y-5585250D01*
X16051651Y-5565038D01*
X16060830Y-5545632D01*
X16071866Y-5527219D01*
X16084654Y-5509976D01*
X16099070Y-5494070D01*
X16114976Y-5479654D01*
X16132219Y-5466866D01*
X16150632Y-5455830D01*
X16170038Y-5446651D01*
X16190250Y-5439419D01*
X16211074Y-5434203D01*
X16232309Y-5431053D01*
X16253750Y-5430000D01*
X16766250Y-5430000D01*
X16787691Y-5431053D01*
X16787691Y-5431053D01*
G37*
D11*
X16510000Y-5867500D03*
D10*
G36*
X16787691Y-3856053D02*
X16808926Y-3859203D01*
X16829750Y-3864419D01*
X16849962Y-3871651D01*
X16869368Y-3880830D01*
X16887781Y-3891866D01*
X16905024Y-3904654D01*
X16920930Y-3919070D01*
X16935346Y-3934976D01*
X16948134Y-3952219D01*
X16959170Y-3970632D01*
X16968349Y-3990038D01*
X16975581Y-4010250D01*
X16980797Y-4031074D01*
X16983947Y-4052309D01*
X16985000Y-4073750D01*
X16985000Y-4511250D01*
X16983947Y-4532691D01*
X16980797Y-4553926D01*
X16975581Y-4574750D01*
X16968349Y-4594962D01*
X16959170Y-4614368D01*
X16948134Y-4632781D01*
X16935346Y-4650024D01*
X16920930Y-4665930D01*
X16905024Y-4680346D01*
X16887781Y-4693134D01*
X16869368Y-4704170D01*
X16849962Y-4713349D01*
X16829750Y-4720581D01*
X16808926Y-4725797D01*
X16787691Y-4728947D01*
X16766250Y-4730000D01*
X16253750Y-4730000D01*
X16232309Y-4728947D01*
X16211074Y-4725797D01*
X16190250Y-4720581D01*
X16170038Y-4713349D01*
X16150632Y-4704170D01*
X16132219Y-4693134D01*
X16114976Y-4680346D01*
X16099070Y-4665930D01*
X16084654Y-4650024D01*
X16071866Y-4632781D01*
X16060830Y-4614368D01*
X16051651Y-4594962D01*
X16044419Y-4574750D01*
X16039203Y-4553926D01*
X16036053Y-4532691D01*
X16035000Y-4511250D01*
X16035000Y-4073750D01*
X16036053Y-4052309D01*
X16039203Y-4031074D01*
X16044419Y-4010250D01*
X16051651Y-3990038D01*
X16060830Y-3970632D01*
X16071866Y-3952219D01*
X16084654Y-3934976D01*
X16099070Y-3919070D01*
X16114976Y-3904654D01*
X16132219Y-3891866D01*
X16150632Y-3880830D01*
X16170038Y-3871651D01*
X16190250Y-3864419D01*
X16211074Y-3859203D01*
X16232309Y-3856053D01*
X16253750Y-3855000D01*
X16766250Y-3855000D01*
X16787691Y-3856053D01*
X16787691Y-3856053D01*
G37*
D11*
X16510000Y-4292500D03*
G04 #@! TD*
D10*
G04 #@! TO.C,R10*
G36*
X21867691Y-5431053D02*
X21888926Y-5434203D01*
X21909750Y-5439419D01*
X21929962Y-5446651D01*
X21949368Y-5455830D01*
X21967781Y-5466866D01*
X21985024Y-5479654D01*
X22000930Y-5494070D01*
X22015346Y-5509976D01*
X22028134Y-5527219D01*
X22039170Y-5545632D01*
X22048349Y-5565038D01*
X22055581Y-5585250D01*
X22060797Y-5606074D01*
X22063947Y-5627309D01*
X22065000Y-5648750D01*
X22065000Y-6086250D01*
X22063947Y-6107691D01*
X22060797Y-6128926D01*
X22055581Y-6149750D01*
X22048349Y-6169962D01*
X22039170Y-6189368D01*
X22028134Y-6207781D01*
X22015346Y-6225024D01*
X22000930Y-6240930D01*
X21985024Y-6255346D01*
X21967781Y-6268134D01*
X21949368Y-6279170D01*
X21929962Y-6288349D01*
X21909750Y-6295581D01*
X21888926Y-6300797D01*
X21867691Y-6303947D01*
X21846250Y-6305000D01*
X21333750Y-6305000D01*
X21312309Y-6303947D01*
X21291074Y-6300797D01*
X21270250Y-6295581D01*
X21250038Y-6288349D01*
X21230632Y-6279170D01*
X21212219Y-6268134D01*
X21194976Y-6255346D01*
X21179070Y-6240930D01*
X21164654Y-6225024D01*
X21151866Y-6207781D01*
X21140830Y-6189368D01*
X21131651Y-6169962D01*
X21124419Y-6149750D01*
X21119203Y-6128926D01*
X21116053Y-6107691D01*
X21115000Y-6086250D01*
X21115000Y-5648750D01*
X21116053Y-5627309D01*
X21119203Y-5606074D01*
X21124419Y-5585250D01*
X21131651Y-5565038D01*
X21140830Y-5545632D01*
X21151866Y-5527219D01*
X21164654Y-5509976D01*
X21179070Y-5494070D01*
X21194976Y-5479654D01*
X21212219Y-5466866D01*
X21230632Y-5455830D01*
X21250038Y-5446651D01*
X21270250Y-5439419D01*
X21291074Y-5434203D01*
X21312309Y-5431053D01*
X21333750Y-5430000D01*
X21846250Y-5430000D01*
X21867691Y-5431053D01*
X21867691Y-5431053D01*
G37*
D11*
X21590000Y-5867500D03*
D10*
G36*
X21867691Y-3856053D02*
X21888926Y-3859203D01*
X21909750Y-3864419D01*
X21929962Y-3871651D01*
X21949368Y-3880830D01*
X21967781Y-3891866D01*
X21985024Y-3904654D01*
X22000930Y-3919070D01*
X22015346Y-3934976D01*
X22028134Y-3952219D01*
X22039170Y-3970632D01*
X22048349Y-3990038D01*
X22055581Y-4010250D01*
X22060797Y-4031074D01*
X22063947Y-4052309D01*
X22065000Y-4073750D01*
X22065000Y-4511250D01*
X22063947Y-4532691D01*
X22060797Y-4553926D01*
X22055581Y-4574750D01*
X22048349Y-4594962D01*
X22039170Y-4614368D01*
X22028134Y-4632781D01*
X22015346Y-4650024D01*
X22000930Y-4665930D01*
X21985024Y-4680346D01*
X21967781Y-4693134D01*
X21949368Y-4704170D01*
X21929962Y-4713349D01*
X21909750Y-4720581D01*
X21888926Y-4725797D01*
X21867691Y-4728947D01*
X21846250Y-4730000D01*
X21333750Y-4730000D01*
X21312309Y-4728947D01*
X21291074Y-4725797D01*
X21270250Y-4720581D01*
X21250038Y-4713349D01*
X21230632Y-4704170D01*
X21212219Y-4693134D01*
X21194976Y-4680346D01*
X21179070Y-4665930D01*
X21164654Y-4650024D01*
X21151866Y-4632781D01*
X21140830Y-4614368D01*
X21131651Y-4594962D01*
X21124419Y-4574750D01*
X21119203Y-4553926D01*
X21116053Y-4532691D01*
X21115000Y-4511250D01*
X21115000Y-4073750D01*
X21116053Y-4052309D01*
X21119203Y-4031074D01*
X21124419Y-4010250D01*
X21131651Y-3990038D01*
X21140830Y-3970632D01*
X21151866Y-3952219D01*
X21164654Y-3934976D01*
X21179070Y-3919070D01*
X21194976Y-3904654D01*
X21212219Y-3891866D01*
X21230632Y-3880830D01*
X21250038Y-3871651D01*
X21270250Y-3864419D01*
X21291074Y-3859203D01*
X21312309Y-3856053D01*
X21333750Y-3855000D01*
X21846250Y-3855000D01*
X21867691Y-3856053D01*
X21867691Y-3856053D01*
G37*
D11*
X21590000Y-4292500D03*
G04 #@! TD*
D12*
G04 #@! TO.C,U1*
X7035000Y-5075000D03*
X7035000Y-6355000D03*
X7035000Y-7615000D03*
X7035000Y-8885000D03*
X7035000Y-10165000D03*
X7035000Y-11435000D03*
X7035000Y-12695000D03*
X7035000Y-13975000D03*
X13335000Y-13975000D03*
X13335000Y-12695000D03*
X13335000Y-11435000D03*
X13335000Y-10165000D03*
X13335000Y-8885000D03*
X13335000Y-7615000D03*
X13335000Y-6355000D03*
X13335000Y-5075000D03*
G04 #@! TD*
M02*
