M48
;DRILL file {KiCad (5.0.2)-1} date 5/13/2019 2:34:45 PM
;FORMAT={-:-/ absolute / metric / decimal}
FMAT,2
METRIC,TZ
T1C0.400
T2C1.000
%
G90
G05
T1
X14.605Y-12.7
X16.51Y-6.985
X19.05Y-6.985
X19.05Y-12.065
X20.32Y-9.525
X22.218Y-11.34
X24.765Y-7.985
X24.992Y-11.34
X27.305Y-9.525
X27.94Y-12.065
X28.226Y-7.893
X29.78Y-8.89
X30.48Y-17.78
X31.777Y-12.052
X32.302Y-13.617
X32.385Y-1.905
X33.02Y-15.875
X34.255Y-9.563
X34.29Y-11.013
X34.765Y-7.971
X35.38Y-17.822
X35.47Y-8.68
X36.83Y-17.78
X37.392Y-10.726
X37.465Y-13.335
X38.1Y-5.715
X38.19Y-8.795
X39.37Y-16.51
T2
X12.065Y-5.08
X12.065Y-7.62
X12.065Y-10.16
X12.065Y-12.7
X12.065Y-15.24
X16.285Y-1.995
X16.285Y-17.235
X18.825Y-1.995
X18.825Y-17.235
X21.365Y-1.995
X21.365Y-17.235
X23.905Y-1.995
X23.905Y-17.235
X26.445Y-1.995
X26.445Y-17.235
X30.48Y-5.08
X30.48Y-7.62
X30.48Y-10.16
X30.48Y-12.7
X30.48Y-15.24
T0
M30
