G04 #@! TF.GenerationSoftware,KiCad,Pcbnew,(5.0.2)-1*
G04 #@! TF.CreationDate,2019-05-13T14:34:42-07:00*
G04 #@! TF.ProjectId,7_segment_display,375f7365-676d-4656-9e74-5f646973706c,rev?*
G04 #@! TF.SameCoordinates,Original*
G04 #@! TF.FileFunction,Legend,Top*
G04 #@! TF.FilePolarity,Positive*
%FSLAX46Y46*%
G04 Gerber Fmt 4.6, Leading zero omitted, Abs format (unit mm)*
G04 Created by KiCad (PCBNEW (5.0.2)-1) date 5/13/2019 2:34:42 PM*
%MOMM*%
%LPD*%
G01*
G04 APERTURE LIST*
%ADD10C,0.150000*%
%ADD11C,0.120000*%
G04 APERTURE END LIST*
D10*
X29194761Y-2262142D02*
X29147142Y-2309761D01*
X29004285Y-2357380D01*
X28909047Y-2357380D01*
X28766190Y-2309761D01*
X28670952Y-2214523D01*
X28623333Y-2119285D01*
X28575714Y-1928809D01*
X28575714Y-1785952D01*
X28623333Y-1595476D01*
X28670952Y-1500238D01*
X28766190Y-1405000D01*
X28909047Y-1357380D01*
X29004285Y-1357380D01*
X29147142Y-1405000D01*
X29194761Y-1452619D01*
X29623333Y-2357380D02*
X29623333Y-1357380D01*
X30051904Y-2357380D02*
X30051904Y-1833571D01*
X30004285Y-1738333D01*
X29909047Y-1690714D01*
X29766190Y-1690714D01*
X29670952Y-1738333D01*
X29623333Y-1785952D01*
X30956666Y-2357380D02*
X30956666Y-1833571D01*
X30909047Y-1738333D01*
X30813809Y-1690714D01*
X30623333Y-1690714D01*
X30528095Y-1738333D01*
X30956666Y-2309761D02*
X30861428Y-2357380D01*
X30623333Y-2357380D01*
X30528095Y-2309761D01*
X30480476Y-2214523D01*
X30480476Y-2119285D01*
X30528095Y-2024047D01*
X30623333Y-1976428D01*
X30861428Y-1976428D01*
X30956666Y-1928809D01*
X31432857Y-2357380D02*
X31432857Y-1690714D01*
X31432857Y-1357380D02*
X31385238Y-1405000D01*
X31432857Y-1452619D01*
X31480476Y-1405000D01*
X31432857Y-1357380D01*
X31432857Y-1452619D01*
X31909047Y-1690714D02*
X31909047Y-2357380D01*
X31909047Y-1785952D02*
X31956666Y-1738333D01*
X32051904Y-1690714D01*
X32194761Y-1690714D01*
X32290000Y-1738333D01*
X32337619Y-1833571D01*
X32337619Y-2357380D01*
X33242380Y-2357380D02*
X33242380Y-1833571D01*
X33194761Y-1738333D01*
X33099523Y-1690714D01*
X32909047Y-1690714D01*
X32813809Y-1738333D01*
X33242380Y-2309761D02*
X33147142Y-2357380D01*
X32909047Y-2357380D01*
X32813809Y-2309761D01*
X32766190Y-2214523D01*
X32766190Y-2119285D01*
X32813809Y-2024047D01*
X32909047Y-1976428D01*
X33147142Y-1976428D01*
X33242380Y-1928809D01*
X33718571Y-2357380D02*
X33718571Y-1357380D01*
X33718571Y-1738333D02*
X33813809Y-1690714D01*
X34004285Y-1690714D01*
X34099523Y-1738333D01*
X34147142Y-1785952D01*
X34194761Y-1881190D01*
X34194761Y-2166904D01*
X34147142Y-2262142D01*
X34099523Y-2309761D01*
X34004285Y-2357380D01*
X33813809Y-2357380D01*
X33718571Y-2309761D01*
X34766190Y-2357380D02*
X34670952Y-2309761D01*
X34623333Y-2214523D01*
X34623333Y-1357380D01*
X35528095Y-2309761D02*
X35432857Y-2357380D01*
X35242380Y-2357380D01*
X35147142Y-2309761D01*
X35099523Y-2214523D01*
X35099523Y-1833571D01*
X35147142Y-1738333D01*
X35242380Y-1690714D01*
X35432857Y-1690714D01*
X35528095Y-1738333D01*
X35575714Y-1833571D01*
X35575714Y-1928809D01*
X35099523Y-2024047D01*
X36670952Y-1357380D02*
X37337619Y-1357380D01*
X36909047Y-2357380D01*
X37670952Y-2309761D02*
X37813809Y-2357380D01*
X38051904Y-2357380D01*
X38147142Y-2309761D01*
X38194761Y-2262142D01*
X38242380Y-2166904D01*
X38242380Y-2071666D01*
X38194761Y-1976428D01*
X38147142Y-1928809D01*
X38051904Y-1881190D01*
X37861428Y-1833571D01*
X37766190Y-1785952D01*
X37718571Y-1738333D01*
X37670952Y-1643095D01*
X37670952Y-1547857D01*
X37718571Y-1452619D01*
X37766190Y-1405000D01*
X37861428Y-1357380D01*
X38099523Y-1357380D01*
X38242380Y-1405000D01*
X39051904Y-2309761D02*
X38956666Y-2357380D01*
X38766190Y-2357380D01*
X38670952Y-2309761D01*
X38623333Y-2214523D01*
X38623333Y-1833571D01*
X38670952Y-1738333D01*
X38766190Y-1690714D01*
X38956666Y-1690714D01*
X39051904Y-1738333D01*
X39099523Y-1833571D01*
X39099523Y-1928809D01*
X38623333Y-2024047D01*
X39956666Y-1690714D02*
X39956666Y-2500238D01*
X39909047Y-2595476D01*
X39861428Y-2643095D01*
X39766190Y-2690714D01*
X39623333Y-2690714D01*
X39528095Y-2643095D01*
X39956666Y-2309761D02*
X39861428Y-2357380D01*
X39670952Y-2357380D01*
X39575714Y-2309761D01*
X39528095Y-2262142D01*
X39480476Y-2166904D01*
X39480476Y-1881190D01*
X39528095Y-1785952D01*
X39575714Y-1738333D01*
X39670952Y-1690714D01*
X39861428Y-1690714D01*
X39956666Y-1738333D01*
X10001428Y-1690714D02*
X10239523Y-2357380D01*
X10477619Y-1690714D01*
X11382380Y-2357380D02*
X10810952Y-2357380D01*
X11096666Y-2357380D02*
X11096666Y-1357380D01*
X11001428Y-1500238D01*
X10906190Y-1595476D01*
X10810952Y-1643095D01*
X11810952Y-2262142D02*
X11858571Y-2309761D01*
X11810952Y-2357380D01*
X11763333Y-2309761D01*
X11810952Y-2262142D01*
X11810952Y-2357380D01*
X12477619Y-1357380D02*
X12572857Y-1357380D01*
X12668095Y-1405000D01*
X12715714Y-1452619D01*
X12763333Y-1547857D01*
X12810952Y-1738333D01*
X12810952Y-1976428D01*
X12763333Y-2166904D01*
X12715714Y-2262142D01*
X12668095Y-2309761D01*
X12572857Y-2357380D01*
X12477619Y-2357380D01*
X12382380Y-2309761D01*
X12334761Y-2262142D01*
X12287142Y-2166904D01*
X12239523Y-1976428D01*
X12239523Y-1738333D01*
X12287142Y-1547857D01*
X12334761Y-1452619D01*
X12382380Y-1405000D01*
X12477619Y-1357380D01*
D11*
G04 #@! TO.C,J1*
X13335000Y-16510000D02*
X12065000Y-16510000D01*
X13335000Y-15240000D02*
X13335000Y-16510000D01*
X11022071Y-4700000D02*
X10625000Y-4700000D01*
X11022071Y-5460000D02*
X10625000Y-5460000D01*
X1965000Y-4700000D02*
X7965000Y-4700000D01*
X1965000Y-5460000D02*
X1965000Y-4700000D01*
X7965000Y-5460000D02*
X1965000Y-5460000D01*
X10625000Y-6350000D02*
X7965000Y-6350000D01*
X11022071Y-7240000D02*
X10625000Y-7240000D01*
X11022071Y-8000000D02*
X10625000Y-8000000D01*
X1965000Y-7240000D02*
X7965000Y-7240000D01*
X1965000Y-8000000D02*
X1965000Y-7240000D01*
X7965000Y-8000000D02*
X1965000Y-8000000D01*
X10625000Y-8890000D02*
X7965000Y-8890000D01*
X11022071Y-9780000D02*
X10625000Y-9780000D01*
X11022071Y-10540000D02*
X10625000Y-10540000D01*
X1965000Y-9780000D02*
X7965000Y-9780000D01*
X1965000Y-10540000D02*
X1965000Y-9780000D01*
X7965000Y-10540000D02*
X1965000Y-10540000D01*
X10625000Y-11430000D02*
X7965000Y-11430000D01*
X11022071Y-12320000D02*
X10625000Y-12320000D01*
X11022071Y-13080000D02*
X10625000Y-13080000D01*
X1965000Y-12320000D02*
X7965000Y-12320000D01*
X1965000Y-13080000D02*
X1965000Y-12320000D01*
X7965000Y-13080000D02*
X1965000Y-13080000D01*
X10625000Y-13970000D02*
X7965000Y-13970000D01*
X10955000Y-14860000D02*
X10625000Y-14860000D01*
X10955000Y-15620000D02*
X10625000Y-15620000D01*
X7965000Y-14960000D02*
X1965000Y-14960000D01*
X7965000Y-15080000D02*
X1965000Y-15080000D01*
X7965000Y-15200000D02*
X1965000Y-15200000D01*
X7965000Y-15320000D02*
X1965000Y-15320000D01*
X7965000Y-15440000D02*
X1965000Y-15440000D01*
X7965000Y-15560000D02*
X1965000Y-15560000D01*
X1965000Y-14860000D02*
X7965000Y-14860000D01*
X1965000Y-15620000D02*
X1965000Y-14860000D01*
X7965000Y-15620000D02*
X1965000Y-15620000D01*
X7965000Y-16570000D02*
X10625000Y-16570000D01*
X7965000Y-3750000D02*
X7965000Y-16570000D01*
X10625000Y-3750000D02*
X7965000Y-3750000D01*
X10625000Y-16570000D02*
X10625000Y-3750000D01*
G04 #@! TO.C,J2*
X30480000Y-16570000D02*
X29370000Y-16570000D01*
X29370000Y-16570000D02*
X29370000Y-15240000D01*
X40570000Y-16570000D02*
X40570000Y-3750000D01*
X40570000Y-3750000D02*
X31940000Y-3750000D01*
X31940000Y-16570000D02*
X31940000Y-3750000D01*
X40570000Y-16570000D02*
X31940000Y-16570000D01*
X40570000Y-6350000D02*
X31940000Y-6350000D01*
X40570000Y-8890000D02*
X31940000Y-8890000D01*
X40570000Y-11430000D02*
X31940000Y-11430000D01*
X40570000Y-13970000D02*
X31940000Y-13970000D01*
X31940000Y-4720000D02*
X31530000Y-4720000D01*
X31940000Y-5440000D02*
X31530000Y-5440000D01*
X31940000Y-7260000D02*
X31530000Y-7260000D01*
X31940000Y-7980000D02*
X31530000Y-7980000D01*
X31940000Y-9800000D02*
X31530000Y-9800000D01*
X31940000Y-10520000D02*
X31530000Y-10520000D01*
X31940000Y-12340000D02*
X31530000Y-12340000D01*
X31940000Y-13060000D02*
X31530000Y-13060000D01*
X31940000Y-14880000D02*
X31590000Y-14880000D01*
X31940000Y-15600000D02*
X31590000Y-15600000D01*
X40570000Y-14088100D02*
X31940000Y-14088100D01*
X40570000Y-14206195D02*
X31940000Y-14206195D01*
X40570000Y-14324290D02*
X31940000Y-14324290D01*
X40570000Y-14442385D02*
X31940000Y-14442385D01*
X40570000Y-14560480D02*
X31940000Y-14560480D01*
X40570000Y-14678575D02*
X31940000Y-14678575D01*
X40570000Y-14796670D02*
X31940000Y-14796670D01*
X40570000Y-14914765D02*
X31940000Y-14914765D01*
X40570000Y-15032860D02*
X31940000Y-15032860D01*
X40570000Y-15150955D02*
X31940000Y-15150955D01*
X40570000Y-15269050D02*
X31940000Y-15269050D01*
X40570000Y-15387145D02*
X31940000Y-15387145D01*
X40570000Y-15505240D02*
X31940000Y-15505240D01*
X40570000Y-15623335D02*
X31940000Y-15623335D01*
X40570000Y-15741430D02*
X31940000Y-15741430D01*
X40570000Y-15859525D02*
X31940000Y-15859525D01*
X40570000Y-15977620D02*
X31940000Y-15977620D01*
X40570000Y-16095715D02*
X31940000Y-16095715D01*
X40570000Y-16213810D02*
X31940000Y-16213810D01*
X40570000Y-16331905D02*
X31940000Y-16331905D01*
X40570000Y-16450000D02*
X31940000Y-16450000D01*
D10*
G04 #@! TO.C,U2*
X15065001Y-19115001D02*
X15065001Y-115001D01*
X27665001Y-19115001D02*
X15065001Y-19115001D01*
X27665001Y-115001D02*
X27665001Y-19115001D01*
X15065001Y-115001D02*
X27665001Y-115001D01*
G04 #@! TO.C,J1*
X9191666Y-17232380D02*
X9191666Y-17946666D01*
X9144047Y-18089523D01*
X9048809Y-18184761D01*
X8905952Y-18232380D01*
X8810714Y-18232380D01*
X10191666Y-18232380D02*
X9620238Y-18232380D01*
X9905952Y-18232380D02*
X9905952Y-17232380D01*
X9810714Y-17375238D01*
X9715476Y-17470476D01*
X9620238Y-17518095D01*
G04 #@! TO.C,J2*
X30146666Y-17232380D02*
X30146666Y-17946666D01*
X30099047Y-18089523D01*
X30003809Y-18184761D01*
X29860952Y-18232380D01*
X29765714Y-18232380D01*
X30575238Y-17327619D02*
X30622857Y-17280000D01*
X30718095Y-17232380D01*
X30956190Y-17232380D01*
X31051428Y-17280000D01*
X31099047Y-17327619D01*
X31146666Y-17422857D01*
X31146666Y-17518095D01*
X31099047Y-17660952D01*
X30527619Y-18232380D01*
X31146666Y-18232380D01*
G04 #@! TO.C,U2*
X12573095Y-17232380D02*
X12573095Y-18041904D01*
X12620714Y-18137142D01*
X12668333Y-18184761D01*
X12763571Y-18232380D01*
X12954047Y-18232380D01*
X13049285Y-18184761D01*
X13096904Y-18137142D01*
X13144523Y-18041904D01*
X13144523Y-17232380D01*
X13573095Y-17327619D02*
X13620714Y-17280000D01*
X13715952Y-17232380D01*
X13954047Y-17232380D01*
X14049285Y-17280000D01*
X14096904Y-17327619D01*
X14144523Y-17422857D01*
X14144523Y-17518095D01*
X14096904Y-17660952D01*
X13525476Y-18232380D01*
X14144523Y-18232380D01*
G04 #@! TD*
M02*
