G04 #@! TF.GenerationSoftware,KiCad,Pcbnew,(5.0.2)-1*
G04 #@! TF.CreationDate,2019-05-13T14:34:42-07:00*
G04 #@! TF.ProjectId,7_segment_display,375f7365-676d-4656-9e74-5f646973706c,rev?*
G04 #@! TF.SameCoordinates,Original*
G04 #@! TF.FileFunction,Copper,L1,Top*
G04 #@! TF.FilePolarity,Positive*
%FSLAX46Y46*%
G04 Gerber Fmt 4.6, Leading zero omitted, Abs format (unit mm)*
G04 Created by KiCad (PCBNEW (5.0.2)-1) date 5/13/2019 2:34:42 PM*
%MOMM*%
%LPD*%
G01*
G04 APERTURE LIST*
G04 #@! TA.AperFunction,ComponentPad*
%ADD10O,1.700000X1.700000*%
G04 #@! TD*
G04 #@! TA.AperFunction,ComponentPad*
%ADD11R,1.700000X1.700000*%
G04 #@! TD*
G04 #@! TA.AperFunction,ComponentPad*
%ADD12C,2.000000*%
G04 #@! TD*
G04 #@! TA.AperFunction,ComponentPad*
%ADD13R,2.000000X2.000000*%
G04 #@! TD*
G04 #@! TA.AperFunction,ViaPad*
%ADD14C,0.800000*%
G04 #@! TD*
G04 #@! TA.AperFunction,Conductor*
%ADD15C,0.250000*%
G04 #@! TD*
G04 #@! TA.AperFunction,Conductor*
%ADD16C,0.254000*%
G04 #@! TD*
G04 APERTURE END LIST*
D10*
G04 #@! TO.P,J1,5*
G04 #@! TO.N,/RCLK*
X12065000Y-5080000D03*
G04 #@! TO.P,J1,4*
G04 #@! TO.N,/SRCLK*
X12065000Y-7620000D03*
G04 #@! TO.P,J1,3*
G04 #@! TO.N,/SER_IN*
X12065000Y-10160000D03*
G04 #@! TO.P,J1,2*
G04 #@! TO.N,GND*
X12065000Y-12700000D03*
D11*
G04 #@! TO.P,J1,1*
G04 #@! TO.N,+3V3*
X12065000Y-15240000D03*
G04 #@! TD*
D10*
G04 #@! TO.P,J2,5*
G04 #@! TO.N,/RCLK*
X30480000Y-5080000D03*
G04 #@! TO.P,J2,4*
G04 #@! TO.N,/SRCLK*
X30480000Y-7620000D03*
G04 #@! TO.P,J2,3*
G04 #@! TO.N,/SER_OUT*
X30480000Y-10160000D03*
G04 #@! TO.P,J2,2*
G04 #@! TO.N,GND*
X30480000Y-12700000D03*
D11*
G04 #@! TO.P,J2,1*
G04 #@! TO.N,+3V3*
X30480000Y-15240000D03*
G04 #@! TD*
D12*
G04 #@! TO.P,U2,10*
G04 #@! TO.N,Net-(R9-Pad1)*
X16285001Y-1995001D03*
G04 #@! TO.P,U2,9*
G04 #@! TO.N,Net-(R8-Pad1)*
X18825001Y-1995001D03*
G04 #@! TO.P,U2,8*
G04 #@! TO.N,+3V3*
X21365001Y-1995001D03*
G04 #@! TO.P,U2,7*
G04 #@! TO.N,Net-(R3-Pad1)*
X23905001Y-1995001D03*
G04 #@! TO.P,U2,6*
G04 #@! TO.N,Net-(R4-Pad1)*
X26445001Y-1995001D03*
G04 #@! TO.P,U2,5*
G04 #@! TO.N,Net-(R10-Pad1)*
X26445001Y-17235001D03*
G04 #@! TO.P,U2,4*
G04 #@! TO.N,Net-(R5-Pad1)*
X23905001Y-17235001D03*
G04 #@! TO.P,U2,3*
G04 #@! TO.N,+3V3*
X21365001Y-17235001D03*
G04 #@! TO.P,U2,2*
G04 #@! TO.N,Net-(R6-Pad1)*
X18825001Y-17235001D03*
D13*
G04 #@! TO.P,U2,1*
G04 #@! TO.N,Net-(R7-Pad1)*
X16285001Y-17235001D03*
G04 #@! TD*
D14*
G04 #@! TO.N,+3V3*
X39370000Y-16510000D03*
X30480000Y-17780000D03*
X32385000Y-1905000D03*
G04 #@! TO.N,GND*
X27940000Y-12065000D03*
X33020000Y-15875000D03*
X35379988Y-17822184D03*
X36830000Y-17780000D03*
X27305000Y-9525000D03*
X20320000Y-9525000D03*
X14605000Y-12700000D03*
G04 #@! TO.N,/SRCLK*
X24765000Y-7985013D03*
X38190010Y-8794990D03*
G04 #@! TO.N,/RCLK*
X35469990Y-8680069D03*
G04 #@! TO.N,/SER_OUT*
X38100000Y-5715000D03*
G04 #@! TO.N,/7SEG_A*
X37392239Y-10726468D03*
X37465000Y-13335000D03*
G04 #@! TO.N,/7SEG_C*
X24992154Y-11339990D03*
X32302378Y-13617180D03*
G04 #@! TO.N,/7SEG_D*
X22217859Y-11339990D03*
X31776921Y-12051540D03*
G04 #@! TO.N,/7SEG_E*
X19050000Y-12065000D03*
X34289569Y-11013311D03*
G04 #@! TO.N,/7SEG_F*
X19050000Y-6985000D03*
X29780283Y-8890001D03*
X34254898Y-9563300D03*
X28225846Y-7893154D03*
G04 #@! TO.N,/7SEG_G*
X16510000Y-6985000D03*
X34764589Y-7971245D03*
G04 #@! TD*
D15*
G04 #@! TO.N,GND*
X28575000Y-12700000D02*
X30480000Y-12700000D01*
X27940000Y-12065000D02*
X28575000Y-12700000D01*
X33020000Y-15875000D02*
X34967184Y-17822184D01*
X34967184Y-17822184D02*
X35379988Y-17822184D01*
X35422172Y-17780000D02*
X35379988Y-17822184D01*
X36830000Y-17780000D02*
X35422172Y-17780000D01*
X27305000Y-9525000D02*
X20320000Y-9525000D01*
X12065000Y-12700000D02*
X14605000Y-12700000D01*
G04 #@! TO.N,/SRCLK*
X37579929Y-9405071D02*
X37790011Y-9194989D01*
X35121988Y-9405071D02*
X37579929Y-9405071D01*
X30480000Y-7620000D02*
X33336917Y-7620000D01*
X33336917Y-7620000D02*
X35121988Y-9405071D01*
X37790011Y-9194989D02*
X38190010Y-8794990D01*
X25398143Y-8618156D02*
X25164999Y-8385012D01*
X29572004Y-7620000D02*
X28573848Y-8618156D01*
X28573848Y-8618156D02*
X25398143Y-8618156D01*
X30480000Y-7620000D02*
X29572004Y-7620000D01*
X25164999Y-8385012D02*
X24765000Y-7985013D01*
G04 #@! TO.N,/RCLK*
X12065000Y-5080000D02*
X30480000Y-5080000D01*
X35869989Y-7514708D02*
X35869989Y-8280070D01*
X30480000Y-5080000D02*
X33435281Y-5080000D01*
X33435281Y-5080000D02*
X35869989Y-7514708D01*
X35869989Y-8280070D02*
X35469990Y-8680069D01*
G04 #@! TO.N,/SER_OUT*
X31810382Y-10288301D02*
X31682081Y-10160000D01*
X38915012Y-9142992D02*
X38056536Y-10001468D01*
X38056536Y-10001468D02*
X35915530Y-10001468D01*
X31682081Y-10160000D02*
X30480000Y-10160000D01*
X35915530Y-10001468D02*
X35628697Y-10288301D01*
X38100000Y-5715000D02*
X38915012Y-6530012D01*
X38915012Y-6530012D02*
X38915012Y-9142992D01*
X35628697Y-10288301D02*
X31810382Y-10288301D01*
G04 #@! TO.N,/7SEG_A*
X37392239Y-13262239D02*
X37465000Y-13335000D01*
X37392239Y-10726468D02*
X37392239Y-13262239D01*
G04 #@! TO.N,/7SEG_C*
X31902379Y-14017179D02*
X32302378Y-13617180D01*
X27669343Y-14017179D02*
X31902379Y-14017179D01*
X24992154Y-11339990D02*
X27669343Y-14017179D01*
G04 #@! TO.N,/7SEG_D*
X25340156Y-10614988D02*
X22942861Y-10614988D01*
X22617858Y-10939991D02*
X22217859Y-11339990D01*
X31065371Y-11339990D02*
X26065158Y-11339990D01*
X22942861Y-10614988D02*
X22617858Y-10939991D01*
X26065158Y-11339990D02*
X25340156Y-10614988D01*
X31776921Y-12051540D02*
X31065371Y-11339990D01*
G04 #@! TO.N,/7SEG_E*
X25019998Y-12065000D02*
X29369999Y-16415001D01*
X29369999Y-16415001D02*
X31590001Y-16415001D01*
X34289569Y-13532429D02*
X34289569Y-11578996D01*
X34289569Y-11578996D02*
X34289569Y-11013311D01*
X32294999Y-15526999D02*
X34289569Y-13532429D01*
X31590001Y-16415001D02*
X32294999Y-15710003D01*
X32294999Y-15710003D02*
X32294999Y-15526999D01*
X19050000Y-12065000D02*
X25019998Y-12065000D01*
G04 #@! TO.N,/7SEG_F*
X33581599Y-8890001D02*
X33854899Y-9163301D01*
X29780283Y-8890001D02*
X33581599Y-8890001D01*
X33854899Y-9163301D02*
X34254898Y-9563300D01*
X27317692Y-6985000D02*
X27825847Y-7493155D01*
X27825847Y-7493155D02*
X28225846Y-7893154D01*
X19050000Y-6985000D02*
X27317692Y-6985000D01*
G04 #@! TO.N,/7SEG_G*
X34364590Y-7571246D02*
X34764589Y-7971245D01*
X33053343Y-6259999D02*
X34364590Y-7571246D01*
X17235001Y-6259999D02*
X33053343Y-6259999D01*
X16510000Y-6985000D02*
X17235001Y-6259999D01*
G04 #@! TD*
D16*
G04 #@! TO.N,+3V3*
G36*
X14898915Y-1068848D02*
X14650001Y-1669779D01*
X14650001Y-2320223D01*
X14898915Y-2921154D01*
X15358848Y-3381087D01*
X15959779Y-3630001D01*
X16610223Y-3630001D01*
X17211154Y-3381087D01*
X17555001Y-3037240D01*
X17898848Y-3381087D01*
X18499779Y-3630001D01*
X19150223Y-3630001D01*
X19751154Y-3381087D01*
X19984708Y-3147533D01*
X20392074Y-3147533D01*
X20490737Y-3414388D01*
X21100462Y-3640909D01*
X21750461Y-3616857D01*
X22239265Y-3414388D01*
X22337928Y-3147533D01*
X21365001Y-2174606D01*
X20392074Y-3147533D01*
X19984708Y-3147533D01*
X20177312Y-2954929D01*
X20212469Y-2967928D01*
X21185396Y-1995001D01*
X20212469Y-1022074D01*
X20177312Y-1035073D01*
X19852239Y-710000D01*
X20441051Y-710000D01*
X20392074Y-842469D01*
X21365001Y-1815396D01*
X22337928Y-842469D01*
X22288951Y-710000D01*
X22877763Y-710000D01*
X22552690Y-1035073D01*
X22517533Y-1022074D01*
X21544606Y-1995001D01*
X22517533Y-2967928D01*
X22552690Y-2954929D01*
X22978848Y-3381087D01*
X23579779Y-3630001D01*
X24230223Y-3630001D01*
X24831154Y-3381087D01*
X25175001Y-3037240D01*
X25518848Y-3381087D01*
X26119779Y-3630001D01*
X26770223Y-3630001D01*
X27371154Y-3381087D01*
X27831087Y-2921154D01*
X28080001Y-2320223D01*
X28080001Y-1669779D01*
X27831087Y-1068848D01*
X27472239Y-710000D01*
X39930001Y-710000D01*
X39930000Y-18975000D01*
X8965000Y-18975000D01*
X8965000Y-15525750D01*
X10580000Y-15525750D01*
X10580000Y-16216310D01*
X10676673Y-16449699D01*
X10855302Y-16628327D01*
X11088691Y-16725000D01*
X11779250Y-16725000D01*
X11938000Y-16566250D01*
X11938000Y-15367000D01*
X12192000Y-15367000D01*
X12192000Y-16566250D01*
X12350750Y-16725000D01*
X13041309Y-16725000D01*
X13274698Y-16628327D01*
X13453327Y-16449699D01*
X13542257Y-16235001D01*
X14637561Y-16235001D01*
X14637561Y-18235001D01*
X14686844Y-18482766D01*
X14827192Y-18692810D01*
X15037236Y-18833158D01*
X15285001Y-18882441D01*
X17285001Y-18882441D01*
X17532766Y-18833158D01*
X17742810Y-18692810D01*
X17834039Y-18556278D01*
X17898848Y-18621087D01*
X18499779Y-18870001D01*
X19150223Y-18870001D01*
X19751154Y-18621087D01*
X19984708Y-18387533D01*
X20392074Y-18387533D01*
X20490737Y-18654388D01*
X21100462Y-18880909D01*
X21750461Y-18856857D01*
X22239265Y-18654388D01*
X22337928Y-18387533D01*
X21365001Y-17414606D01*
X20392074Y-18387533D01*
X19984708Y-18387533D01*
X20177312Y-18194929D01*
X20212469Y-18207928D01*
X21185396Y-17235001D01*
X21544606Y-17235001D01*
X22517533Y-18207928D01*
X22552690Y-18194929D01*
X22978848Y-18621087D01*
X23579779Y-18870001D01*
X24230223Y-18870001D01*
X24831154Y-18621087D01*
X25175001Y-18277240D01*
X25518848Y-18621087D01*
X26119779Y-18870001D01*
X26770223Y-18870001D01*
X27371154Y-18621087D01*
X27831087Y-18161154D01*
X28080001Y-17560223D01*
X28080001Y-16909779D01*
X27831087Y-16308848D01*
X27371154Y-15848915D01*
X26770223Y-15600001D01*
X26119779Y-15600001D01*
X25518848Y-15848915D01*
X25175001Y-16192762D01*
X24831154Y-15848915D01*
X24230223Y-15600001D01*
X23579779Y-15600001D01*
X22978848Y-15848915D01*
X22552690Y-16275073D01*
X22517533Y-16262074D01*
X21544606Y-17235001D01*
X21185396Y-17235001D01*
X20212469Y-16262074D01*
X20177312Y-16275073D01*
X19984708Y-16082469D01*
X20392074Y-16082469D01*
X21365001Y-17055396D01*
X22337928Y-16082469D01*
X22239265Y-15815614D01*
X21629540Y-15589093D01*
X20979541Y-15613145D01*
X20490737Y-15815614D01*
X20392074Y-16082469D01*
X19984708Y-16082469D01*
X19751154Y-15848915D01*
X19150223Y-15600001D01*
X18499779Y-15600001D01*
X17898848Y-15848915D01*
X17834039Y-15913724D01*
X17742810Y-15777192D01*
X17532766Y-15636844D01*
X17285001Y-15587561D01*
X15285001Y-15587561D01*
X15037236Y-15636844D01*
X14827192Y-15777192D01*
X14686844Y-15987236D01*
X14637561Y-16235001D01*
X13542257Y-16235001D01*
X13550000Y-16216310D01*
X13550000Y-15525750D01*
X13391250Y-15367000D01*
X12192000Y-15367000D01*
X11938000Y-15367000D01*
X10738750Y-15367000D01*
X10580000Y-15525750D01*
X8965000Y-15525750D01*
X8965000Y-5080000D01*
X10550908Y-5080000D01*
X10666161Y-5659418D01*
X10994375Y-6150625D01*
X11292761Y-6350000D01*
X10994375Y-6549375D01*
X10666161Y-7040582D01*
X10550908Y-7620000D01*
X10666161Y-8199418D01*
X10994375Y-8690625D01*
X11292761Y-8890000D01*
X10994375Y-9089375D01*
X10666161Y-9580582D01*
X10550908Y-10160000D01*
X10666161Y-10739418D01*
X10994375Y-11230625D01*
X11292761Y-11430000D01*
X10994375Y-11629375D01*
X10666161Y-12120582D01*
X10550908Y-12700000D01*
X10666161Y-13279418D01*
X10994375Y-13770625D01*
X11016033Y-13785096D01*
X10855302Y-13851673D01*
X10676673Y-14030301D01*
X10580000Y-14263690D01*
X10580000Y-14954250D01*
X10738750Y-15113000D01*
X11938000Y-15113000D01*
X11938000Y-15093000D01*
X12192000Y-15093000D01*
X12192000Y-15113000D01*
X13391250Y-15113000D01*
X13550000Y-14954250D01*
X13550000Y-14263690D01*
X13453327Y-14030301D01*
X13274698Y-13851673D01*
X13113967Y-13785096D01*
X13135625Y-13770625D01*
X13343178Y-13460000D01*
X13901289Y-13460000D01*
X14018720Y-13577431D01*
X14399126Y-13735000D01*
X14810874Y-13735000D01*
X15191280Y-13577431D01*
X15482431Y-13286280D01*
X15640000Y-12905874D01*
X15640000Y-12494126D01*
X15482431Y-12113720D01*
X15191280Y-11822569D01*
X14810874Y-11665000D01*
X14399126Y-11665000D01*
X14018720Y-11822569D01*
X13901289Y-11940000D01*
X13343178Y-11940000D01*
X13135625Y-11629375D01*
X12837239Y-11430000D01*
X13135625Y-11230625D01*
X13463839Y-10739418D01*
X13579092Y-10160000D01*
X13463839Y-9580582D01*
X13135625Y-9089375D01*
X12837239Y-8890000D01*
X13135625Y-8690625D01*
X13463839Y-8199418D01*
X13579092Y-7620000D01*
X13463839Y-7040582D01*
X13135625Y-6549375D01*
X12837239Y-6350000D01*
X13135625Y-6150625D01*
X13343178Y-5840000D01*
X16580198Y-5840000D01*
X16470198Y-5950000D01*
X16304126Y-5950000D01*
X15923720Y-6107569D01*
X15632569Y-6398720D01*
X15475000Y-6779126D01*
X15475000Y-7190874D01*
X15632569Y-7571280D01*
X15923720Y-7862431D01*
X16304126Y-8020000D01*
X16715874Y-8020000D01*
X17096280Y-7862431D01*
X17387431Y-7571280D01*
X17545000Y-7190874D01*
X17545000Y-7024802D01*
X17549803Y-7019999D01*
X18015000Y-7019999D01*
X18015000Y-7190874D01*
X18172569Y-7571280D01*
X18463720Y-7862431D01*
X18844126Y-8020000D01*
X19255874Y-8020000D01*
X19636280Y-7862431D01*
X19753711Y-7745000D01*
X23744141Y-7745000D01*
X23730000Y-7779139D01*
X23730000Y-8190887D01*
X23887569Y-8571293D01*
X24081276Y-8765000D01*
X21023711Y-8765000D01*
X20906280Y-8647569D01*
X20525874Y-8490000D01*
X20114126Y-8490000D01*
X19733720Y-8647569D01*
X19442569Y-8938720D01*
X19285000Y-9319126D01*
X19285000Y-9730874D01*
X19442569Y-10111280D01*
X19733720Y-10402431D01*
X20114126Y-10560000D01*
X20525874Y-10560000D01*
X20906280Y-10402431D01*
X21023711Y-10285000D01*
X22198048Y-10285000D01*
X22178058Y-10304990D01*
X22011985Y-10304990D01*
X21631579Y-10462559D01*
X21340428Y-10753710D01*
X21182859Y-11134116D01*
X21182859Y-11305000D01*
X19753711Y-11305000D01*
X19636280Y-11187569D01*
X19255874Y-11030000D01*
X18844126Y-11030000D01*
X18463720Y-11187569D01*
X18172569Y-11478720D01*
X18015000Y-11859126D01*
X18015000Y-12270874D01*
X18172569Y-12651280D01*
X18463720Y-12942431D01*
X18844126Y-13100000D01*
X19255874Y-13100000D01*
X19636280Y-12942431D01*
X19753711Y-12825000D01*
X24705197Y-12825000D01*
X28779672Y-16899477D01*
X28822070Y-16962930D01*
X28885523Y-17005328D01*
X28885525Y-17005330D01*
X28960455Y-17055396D01*
X29073462Y-17130905D01*
X29295147Y-17175001D01*
X29295151Y-17175001D01*
X29369998Y-17189889D01*
X29444845Y-17175001D01*
X31515154Y-17175001D01*
X31590001Y-17189889D01*
X31664848Y-17175001D01*
X31664853Y-17175001D01*
X31886538Y-17130905D01*
X32137930Y-16962930D01*
X32180332Y-16899471D01*
X32380546Y-16699257D01*
X32433720Y-16752431D01*
X32814126Y-16910000D01*
X32980199Y-16910000D01*
X34376855Y-18306657D01*
X34419255Y-18370113D01*
X34554723Y-18460630D01*
X34793708Y-18699615D01*
X35174114Y-18857184D01*
X35585862Y-18857184D01*
X35966268Y-18699615D01*
X36125883Y-18540000D01*
X36126289Y-18540000D01*
X36243720Y-18657431D01*
X36624126Y-18815000D01*
X37035874Y-18815000D01*
X37416280Y-18657431D01*
X37707431Y-18366280D01*
X37865000Y-17985874D01*
X37865000Y-17574126D01*
X37707431Y-17193720D01*
X37416280Y-16902569D01*
X37035874Y-16745000D01*
X36624126Y-16745000D01*
X36243720Y-16902569D01*
X36126289Y-17020000D01*
X36041515Y-17020000D01*
X35966268Y-16944753D01*
X35585862Y-16787184D01*
X35174114Y-16787184D01*
X35055936Y-16836135D01*
X34055000Y-15835199D01*
X34055000Y-15669126D01*
X33897431Y-15288720D01*
X33752755Y-15144044D01*
X34774042Y-14122758D01*
X34837498Y-14080358D01*
X35005473Y-13828966D01*
X35049569Y-13607281D01*
X35049569Y-13607276D01*
X35064457Y-13532429D01*
X35049569Y-13457582D01*
X35049569Y-11717022D01*
X35167000Y-11599591D01*
X35324569Y-11219185D01*
X35324569Y-11048301D01*
X35553850Y-11048301D01*
X35628697Y-11063189D01*
X35703544Y-11048301D01*
X35703549Y-11048301D01*
X35925234Y-11004205D01*
X36176626Y-10836230D01*
X36219028Y-10772771D01*
X36230331Y-10761468D01*
X36357239Y-10761468D01*
X36357239Y-10932342D01*
X36514808Y-11312748D01*
X36632239Y-11430179D01*
X36632240Y-12704049D01*
X36587569Y-12748720D01*
X36430000Y-13129126D01*
X36430000Y-13540874D01*
X36587569Y-13921280D01*
X36878720Y-14212431D01*
X37259126Y-14370000D01*
X37670874Y-14370000D01*
X38051280Y-14212431D01*
X38342431Y-13921280D01*
X38500000Y-13540874D01*
X38500000Y-13129126D01*
X38342431Y-12748720D01*
X38152239Y-12558528D01*
X38152239Y-11430179D01*
X38269670Y-11312748D01*
X38427239Y-10932342D01*
X38427239Y-10667816D01*
X38604465Y-10549397D01*
X38646867Y-10485939D01*
X39399487Y-9733319D01*
X39462941Y-9690921D01*
X39505339Y-9627468D01*
X39505341Y-9627466D01*
X39621555Y-9453539D01*
X39630916Y-9439529D01*
X39675012Y-9217844D01*
X39675012Y-9217840D01*
X39689900Y-9142993D01*
X39675012Y-9068146D01*
X39675012Y-6604858D01*
X39689900Y-6530011D01*
X39675012Y-6455164D01*
X39675012Y-6455160D01*
X39630916Y-6233475D01*
X39462941Y-5982083D01*
X39399485Y-5939683D01*
X39135000Y-5675198D01*
X39135000Y-5509126D01*
X38977431Y-5128720D01*
X38686280Y-4837569D01*
X38305874Y-4680000D01*
X37894126Y-4680000D01*
X37513720Y-4837569D01*
X37222569Y-5128720D01*
X37065000Y-5509126D01*
X37065000Y-5920874D01*
X37222569Y-6301280D01*
X37513720Y-6592431D01*
X37894126Y-6750000D01*
X38060198Y-6750000D01*
X38155012Y-6844814D01*
X38155012Y-7759990D01*
X37984136Y-7759990D01*
X37603730Y-7917559D01*
X37312579Y-8208710D01*
X37155010Y-8589116D01*
X37155010Y-8645071D01*
X36540147Y-8645071D01*
X36585893Y-8576607D01*
X36629989Y-8354922D01*
X36629989Y-8354918D01*
X36644877Y-8280071D01*
X36629989Y-8205224D01*
X36629989Y-7589554D01*
X36644877Y-7514707D01*
X36629989Y-7439860D01*
X36629989Y-7439856D01*
X36585893Y-7218171D01*
X36417918Y-6966779D01*
X36354462Y-6924379D01*
X34025612Y-4595530D01*
X33983210Y-4532071D01*
X33731818Y-4364096D01*
X33510133Y-4320000D01*
X33510128Y-4320000D01*
X33435281Y-4305112D01*
X33360434Y-4320000D01*
X31758178Y-4320000D01*
X31550625Y-4009375D01*
X31059418Y-3681161D01*
X30626256Y-3595000D01*
X30333744Y-3595000D01*
X29900582Y-3681161D01*
X29409375Y-4009375D01*
X29201822Y-4320000D01*
X13343178Y-4320000D01*
X13135625Y-4009375D01*
X12644418Y-3681161D01*
X12211256Y-3595000D01*
X11918744Y-3595000D01*
X11485582Y-3681161D01*
X10994375Y-4009375D01*
X10666161Y-4500582D01*
X10550908Y-5080000D01*
X8965000Y-5080000D01*
X8965000Y-710000D01*
X15257763Y-710000D01*
X14898915Y-1068848D01*
X14898915Y-1068848D01*
G37*
X14898915Y-1068848D02*
X14650001Y-1669779D01*
X14650001Y-2320223D01*
X14898915Y-2921154D01*
X15358848Y-3381087D01*
X15959779Y-3630001D01*
X16610223Y-3630001D01*
X17211154Y-3381087D01*
X17555001Y-3037240D01*
X17898848Y-3381087D01*
X18499779Y-3630001D01*
X19150223Y-3630001D01*
X19751154Y-3381087D01*
X19984708Y-3147533D01*
X20392074Y-3147533D01*
X20490737Y-3414388D01*
X21100462Y-3640909D01*
X21750461Y-3616857D01*
X22239265Y-3414388D01*
X22337928Y-3147533D01*
X21365001Y-2174606D01*
X20392074Y-3147533D01*
X19984708Y-3147533D01*
X20177312Y-2954929D01*
X20212469Y-2967928D01*
X21185396Y-1995001D01*
X20212469Y-1022074D01*
X20177312Y-1035073D01*
X19852239Y-710000D01*
X20441051Y-710000D01*
X20392074Y-842469D01*
X21365001Y-1815396D01*
X22337928Y-842469D01*
X22288951Y-710000D01*
X22877763Y-710000D01*
X22552690Y-1035073D01*
X22517533Y-1022074D01*
X21544606Y-1995001D01*
X22517533Y-2967928D01*
X22552690Y-2954929D01*
X22978848Y-3381087D01*
X23579779Y-3630001D01*
X24230223Y-3630001D01*
X24831154Y-3381087D01*
X25175001Y-3037240D01*
X25518848Y-3381087D01*
X26119779Y-3630001D01*
X26770223Y-3630001D01*
X27371154Y-3381087D01*
X27831087Y-2921154D01*
X28080001Y-2320223D01*
X28080001Y-1669779D01*
X27831087Y-1068848D01*
X27472239Y-710000D01*
X39930001Y-710000D01*
X39930000Y-18975000D01*
X8965000Y-18975000D01*
X8965000Y-15525750D01*
X10580000Y-15525750D01*
X10580000Y-16216310D01*
X10676673Y-16449699D01*
X10855302Y-16628327D01*
X11088691Y-16725000D01*
X11779250Y-16725000D01*
X11938000Y-16566250D01*
X11938000Y-15367000D01*
X12192000Y-15367000D01*
X12192000Y-16566250D01*
X12350750Y-16725000D01*
X13041309Y-16725000D01*
X13274698Y-16628327D01*
X13453327Y-16449699D01*
X13542257Y-16235001D01*
X14637561Y-16235001D01*
X14637561Y-18235001D01*
X14686844Y-18482766D01*
X14827192Y-18692810D01*
X15037236Y-18833158D01*
X15285001Y-18882441D01*
X17285001Y-18882441D01*
X17532766Y-18833158D01*
X17742810Y-18692810D01*
X17834039Y-18556278D01*
X17898848Y-18621087D01*
X18499779Y-18870001D01*
X19150223Y-18870001D01*
X19751154Y-18621087D01*
X19984708Y-18387533D01*
X20392074Y-18387533D01*
X20490737Y-18654388D01*
X21100462Y-18880909D01*
X21750461Y-18856857D01*
X22239265Y-18654388D01*
X22337928Y-18387533D01*
X21365001Y-17414606D01*
X20392074Y-18387533D01*
X19984708Y-18387533D01*
X20177312Y-18194929D01*
X20212469Y-18207928D01*
X21185396Y-17235001D01*
X21544606Y-17235001D01*
X22517533Y-18207928D01*
X22552690Y-18194929D01*
X22978848Y-18621087D01*
X23579779Y-18870001D01*
X24230223Y-18870001D01*
X24831154Y-18621087D01*
X25175001Y-18277240D01*
X25518848Y-18621087D01*
X26119779Y-18870001D01*
X26770223Y-18870001D01*
X27371154Y-18621087D01*
X27831087Y-18161154D01*
X28080001Y-17560223D01*
X28080001Y-16909779D01*
X27831087Y-16308848D01*
X27371154Y-15848915D01*
X26770223Y-15600001D01*
X26119779Y-15600001D01*
X25518848Y-15848915D01*
X25175001Y-16192762D01*
X24831154Y-15848915D01*
X24230223Y-15600001D01*
X23579779Y-15600001D01*
X22978848Y-15848915D01*
X22552690Y-16275073D01*
X22517533Y-16262074D01*
X21544606Y-17235001D01*
X21185396Y-17235001D01*
X20212469Y-16262074D01*
X20177312Y-16275073D01*
X19984708Y-16082469D01*
X20392074Y-16082469D01*
X21365001Y-17055396D01*
X22337928Y-16082469D01*
X22239265Y-15815614D01*
X21629540Y-15589093D01*
X20979541Y-15613145D01*
X20490737Y-15815614D01*
X20392074Y-16082469D01*
X19984708Y-16082469D01*
X19751154Y-15848915D01*
X19150223Y-15600001D01*
X18499779Y-15600001D01*
X17898848Y-15848915D01*
X17834039Y-15913724D01*
X17742810Y-15777192D01*
X17532766Y-15636844D01*
X17285001Y-15587561D01*
X15285001Y-15587561D01*
X15037236Y-15636844D01*
X14827192Y-15777192D01*
X14686844Y-15987236D01*
X14637561Y-16235001D01*
X13542257Y-16235001D01*
X13550000Y-16216310D01*
X13550000Y-15525750D01*
X13391250Y-15367000D01*
X12192000Y-15367000D01*
X11938000Y-15367000D01*
X10738750Y-15367000D01*
X10580000Y-15525750D01*
X8965000Y-15525750D01*
X8965000Y-5080000D01*
X10550908Y-5080000D01*
X10666161Y-5659418D01*
X10994375Y-6150625D01*
X11292761Y-6350000D01*
X10994375Y-6549375D01*
X10666161Y-7040582D01*
X10550908Y-7620000D01*
X10666161Y-8199418D01*
X10994375Y-8690625D01*
X11292761Y-8890000D01*
X10994375Y-9089375D01*
X10666161Y-9580582D01*
X10550908Y-10160000D01*
X10666161Y-10739418D01*
X10994375Y-11230625D01*
X11292761Y-11430000D01*
X10994375Y-11629375D01*
X10666161Y-12120582D01*
X10550908Y-12700000D01*
X10666161Y-13279418D01*
X10994375Y-13770625D01*
X11016033Y-13785096D01*
X10855302Y-13851673D01*
X10676673Y-14030301D01*
X10580000Y-14263690D01*
X10580000Y-14954250D01*
X10738750Y-15113000D01*
X11938000Y-15113000D01*
X11938000Y-15093000D01*
X12192000Y-15093000D01*
X12192000Y-15113000D01*
X13391250Y-15113000D01*
X13550000Y-14954250D01*
X13550000Y-14263690D01*
X13453327Y-14030301D01*
X13274698Y-13851673D01*
X13113967Y-13785096D01*
X13135625Y-13770625D01*
X13343178Y-13460000D01*
X13901289Y-13460000D01*
X14018720Y-13577431D01*
X14399126Y-13735000D01*
X14810874Y-13735000D01*
X15191280Y-13577431D01*
X15482431Y-13286280D01*
X15640000Y-12905874D01*
X15640000Y-12494126D01*
X15482431Y-12113720D01*
X15191280Y-11822569D01*
X14810874Y-11665000D01*
X14399126Y-11665000D01*
X14018720Y-11822569D01*
X13901289Y-11940000D01*
X13343178Y-11940000D01*
X13135625Y-11629375D01*
X12837239Y-11430000D01*
X13135625Y-11230625D01*
X13463839Y-10739418D01*
X13579092Y-10160000D01*
X13463839Y-9580582D01*
X13135625Y-9089375D01*
X12837239Y-8890000D01*
X13135625Y-8690625D01*
X13463839Y-8199418D01*
X13579092Y-7620000D01*
X13463839Y-7040582D01*
X13135625Y-6549375D01*
X12837239Y-6350000D01*
X13135625Y-6150625D01*
X13343178Y-5840000D01*
X16580198Y-5840000D01*
X16470198Y-5950000D01*
X16304126Y-5950000D01*
X15923720Y-6107569D01*
X15632569Y-6398720D01*
X15475000Y-6779126D01*
X15475000Y-7190874D01*
X15632569Y-7571280D01*
X15923720Y-7862431D01*
X16304126Y-8020000D01*
X16715874Y-8020000D01*
X17096280Y-7862431D01*
X17387431Y-7571280D01*
X17545000Y-7190874D01*
X17545000Y-7024802D01*
X17549803Y-7019999D01*
X18015000Y-7019999D01*
X18015000Y-7190874D01*
X18172569Y-7571280D01*
X18463720Y-7862431D01*
X18844126Y-8020000D01*
X19255874Y-8020000D01*
X19636280Y-7862431D01*
X19753711Y-7745000D01*
X23744141Y-7745000D01*
X23730000Y-7779139D01*
X23730000Y-8190887D01*
X23887569Y-8571293D01*
X24081276Y-8765000D01*
X21023711Y-8765000D01*
X20906280Y-8647569D01*
X20525874Y-8490000D01*
X20114126Y-8490000D01*
X19733720Y-8647569D01*
X19442569Y-8938720D01*
X19285000Y-9319126D01*
X19285000Y-9730874D01*
X19442569Y-10111280D01*
X19733720Y-10402431D01*
X20114126Y-10560000D01*
X20525874Y-10560000D01*
X20906280Y-10402431D01*
X21023711Y-10285000D01*
X22198048Y-10285000D01*
X22178058Y-10304990D01*
X22011985Y-10304990D01*
X21631579Y-10462559D01*
X21340428Y-10753710D01*
X21182859Y-11134116D01*
X21182859Y-11305000D01*
X19753711Y-11305000D01*
X19636280Y-11187569D01*
X19255874Y-11030000D01*
X18844126Y-11030000D01*
X18463720Y-11187569D01*
X18172569Y-11478720D01*
X18015000Y-11859126D01*
X18015000Y-12270874D01*
X18172569Y-12651280D01*
X18463720Y-12942431D01*
X18844126Y-13100000D01*
X19255874Y-13100000D01*
X19636280Y-12942431D01*
X19753711Y-12825000D01*
X24705197Y-12825000D01*
X28779672Y-16899477D01*
X28822070Y-16962930D01*
X28885523Y-17005328D01*
X28885525Y-17005330D01*
X28960455Y-17055396D01*
X29073462Y-17130905D01*
X29295147Y-17175001D01*
X29295151Y-17175001D01*
X29369998Y-17189889D01*
X29444845Y-17175001D01*
X31515154Y-17175001D01*
X31590001Y-17189889D01*
X31664848Y-17175001D01*
X31664853Y-17175001D01*
X31886538Y-17130905D01*
X32137930Y-16962930D01*
X32180332Y-16899471D01*
X32380546Y-16699257D01*
X32433720Y-16752431D01*
X32814126Y-16910000D01*
X32980199Y-16910000D01*
X34376855Y-18306657D01*
X34419255Y-18370113D01*
X34554723Y-18460630D01*
X34793708Y-18699615D01*
X35174114Y-18857184D01*
X35585862Y-18857184D01*
X35966268Y-18699615D01*
X36125883Y-18540000D01*
X36126289Y-18540000D01*
X36243720Y-18657431D01*
X36624126Y-18815000D01*
X37035874Y-18815000D01*
X37416280Y-18657431D01*
X37707431Y-18366280D01*
X37865000Y-17985874D01*
X37865000Y-17574126D01*
X37707431Y-17193720D01*
X37416280Y-16902569D01*
X37035874Y-16745000D01*
X36624126Y-16745000D01*
X36243720Y-16902569D01*
X36126289Y-17020000D01*
X36041515Y-17020000D01*
X35966268Y-16944753D01*
X35585862Y-16787184D01*
X35174114Y-16787184D01*
X35055936Y-16836135D01*
X34055000Y-15835199D01*
X34055000Y-15669126D01*
X33897431Y-15288720D01*
X33752755Y-15144044D01*
X34774042Y-14122758D01*
X34837498Y-14080358D01*
X35005473Y-13828966D01*
X35049569Y-13607281D01*
X35049569Y-13607276D01*
X35064457Y-13532429D01*
X35049569Y-13457582D01*
X35049569Y-11717022D01*
X35167000Y-11599591D01*
X35324569Y-11219185D01*
X35324569Y-11048301D01*
X35553850Y-11048301D01*
X35628697Y-11063189D01*
X35703544Y-11048301D01*
X35703549Y-11048301D01*
X35925234Y-11004205D01*
X36176626Y-10836230D01*
X36219028Y-10772771D01*
X36230331Y-10761468D01*
X36357239Y-10761468D01*
X36357239Y-10932342D01*
X36514808Y-11312748D01*
X36632239Y-11430179D01*
X36632240Y-12704049D01*
X36587569Y-12748720D01*
X36430000Y-13129126D01*
X36430000Y-13540874D01*
X36587569Y-13921280D01*
X36878720Y-14212431D01*
X37259126Y-14370000D01*
X37670874Y-14370000D01*
X38051280Y-14212431D01*
X38342431Y-13921280D01*
X38500000Y-13540874D01*
X38500000Y-13129126D01*
X38342431Y-12748720D01*
X38152239Y-12558528D01*
X38152239Y-11430179D01*
X38269670Y-11312748D01*
X38427239Y-10932342D01*
X38427239Y-10667816D01*
X38604465Y-10549397D01*
X38646867Y-10485939D01*
X39399487Y-9733319D01*
X39462941Y-9690921D01*
X39505339Y-9627468D01*
X39505341Y-9627466D01*
X39621555Y-9453539D01*
X39630916Y-9439529D01*
X39675012Y-9217844D01*
X39675012Y-9217840D01*
X39689900Y-9142993D01*
X39675012Y-9068146D01*
X39675012Y-6604858D01*
X39689900Y-6530011D01*
X39675012Y-6455164D01*
X39675012Y-6455160D01*
X39630916Y-6233475D01*
X39462941Y-5982083D01*
X39399485Y-5939683D01*
X39135000Y-5675198D01*
X39135000Y-5509126D01*
X38977431Y-5128720D01*
X38686280Y-4837569D01*
X38305874Y-4680000D01*
X37894126Y-4680000D01*
X37513720Y-4837569D01*
X37222569Y-5128720D01*
X37065000Y-5509126D01*
X37065000Y-5920874D01*
X37222569Y-6301280D01*
X37513720Y-6592431D01*
X37894126Y-6750000D01*
X38060198Y-6750000D01*
X38155012Y-6844814D01*
X38155012Y-7759990D01*
X37984136Y-7759990D01*
X37603730Y-7917559D01*
X37312579Y-8208710D01*
X37155010Y-8589116D01*
X37155010Y-8645071D01*
X36540147Y-8645071D01*
X36585893Y-8576607D01*
X36629989Y-8354922D01*
X36629989Y-8354918D01*
X36644877Y-8280071D01*
X36629989Y-8205224D01*
X36629989Y-7589554D01*
X36644877Y-7514707D01*
X36629989Y-7439860D01*
X36629989Y-7439856D01*
X36585893Y-7218171D01*
X36417918Y-6966779D01*
X36354462Y-6924379D01*
X34025612Y-4595530D01*
X33983210Y-4532071D01*
X33731818Y-4364096D01*
X33510133Y-4320000D01*
X33510128Y-4320000D01*
X33435281Y-4305112D01*
X33360434Y-4320000D01*
X31758178Y-4320000D01*
X31550625Y-4009375D01*
X31059418Y-3681161D01*
X30626256Y-3595000D01*
X30333744Y-3595000D01*
X29900582Y-3681161D01*
X29409375Y-4009375D01*
X29201822Y-4320000D01*
X13343178Y-4320000D01*
X13135625Y-4009375D01*
X12644418Y-3681161D01*
X12211256Y-3595000D01*
X11918744Y-3595000D01*
X11485582Y-3681161D01*
X10994375Y-4009375D01*
X10666161Y-4500582D01*
X10550908Y-5080000D01*
X8965000Y-5080000D01*
X8965000Y-710000D01*
X15257763Y-710000D01*
X14898915Y-1068848D01*
G36*
X30607000Y-15113000D02*
X30627000Y-15113000D01*
X30627000Y-15367000D01*
X30607000Y-15367000D01*
X30607000Y-15387000D01*
X30353000Y-15387000D01*
X30353000Y-15367000D01*
X30333000Y-15367000D01*
X30333000Y-15113000D01*
X30353000Y-15113000D01*
X30353000Y-15093000D01*
X30607000Y-15093000D01*
X30607000Y-15113000D01*
X30607000Y-15113000D01*
G37*
X30607000Y-15113000D02*
X30627000Y-15113000D01*
X30627000Y-15367000D01*
X30607000Y-15367000D01*
X30607000Y-15387000D01*
X30353000Y-15387000D01*
X30353000Y-15367000D01*
X30333000Y-15367000D01*
X30333000Y-15113000D01*
X30353000Y-15113000D01*
X30353000Y-15093000D01*
X30607000Y-15093000D01*
X30607000Y-15113000D01*
G04 #@! TD*
M02*
