G04 #@! TF.GenerationSoftware,KiCad,Pcbnew,(5.0.2)-1*
G04 #@! TF.CreationDate,2019-05-12T20:06:40-07:00*
G04 #@! TF.ProjectId,7_segment_display,375f7365-676d-4656-9e74-5f646973706c,rev?*
G04 #@! TF.SameCoordinates,Original*
G04 #@! TF.FileFunction,Copper,L1,Top*
G04 #@! TF.FilePolarity,Positive*
%FSLAX46Y46*%
G04 Gerber Fmt 4.6, Leading zero omitted, Abs format (unit mm)*
G04 Created by KiCad (PCBNEW (5.0.2)-1) date 5/12/2019 8:06:40 PM*
%MOMM*%
%LPD*%
G01*
G04 APERTURE LIST*
G04 #@! TA.AperFunction,ComponentPad*
%ADD10O,1.700000X1.700000*%
G04 #@! TD*
G04 #@! TA.AperFunction,ComponentPad*
%ADD11R,1.700000X1.700000*%
G04 #@! TD*
G04 #@! TA.AperFunction,Conductor*
%ADD12C,0.100000*%
G04 #@! TD*
G04 #@! TA.AperFunction,SMDPad,CuDef*
%ADD13C,0.875000*%
G04 #@! TD*
G04 #@! TA.AperFunction,ComponentPad*
%ADD14C,2.000000*%
G04 #@! TD*
G04 #@! TA.AperFunction,ComponentPad*
%ADD15R,2.000000X2.000000*%
G04 #@! TD*
G04 #@! TA.AperFunction,ViaPad*
%ADD16C,0.800000*%
G04 #@! TD*
G04 #@! TA.AperFunction,Conductor*
%ADD17C,0.400000*%
G04 #@! TD*
G04 APERTURE END LIST*
D10*
G04 #@! TO.P,J1,5*
G04 #@! TO.N,/RCLK*
X3810000Y-5080000D03*
G04 #@! TO.P,J1,4*
G04 #@! TO.N,/SRCLK*
X3810000Y-7620000D03*
G04 #@! TO.P,J1,3*
G04 #@! TO.N,/SER_IN*
X3810000Y-10160000D03*
G04 #@! TO.P,J1,2*
G04 #@! TO.N,GND*
X3810000Y-12700000D03*
D11*
G04 #@! TO.P,J1,1*
G04 #@! TO.N,+3V3*
X3810000Y-15240000D03*
G04 #@! TD*
D10*
G04 #@! TO.P,J2,5*
G04 #@! TO.N,/RCLK*
X30480000Y-5080000D03*
G04 #@! TO.P,J2,4*
G04 #@! TO.N,/SRCLK*
X30480000Y-7620000D03*
G04 #@! TO.P,J2,3*
G04 #@! TO.N,/SER_OUT*
X30480000Y-10160000D03*
G04 #@! TO.P,J2,2*
G04 #@! TO.N,GND*
X30480000Y-12700000D03*
D11*
G04 #@! TO.P,J2,1*
G04 #@! TO.N,+3V3*
X30480000Y-15240000D03*
G04 #@! TD*
D12*
G04 #@! TO.N,Net-(R1-Pad2)*
G04 #@! TO.C,R1*
G36*
X9802691Y-8123553D02*
X9823926Y-8126703D01*
X9844750Y-8131919D01*
X9864962Y-8139151D01*
X9884368Y-8148330D01*
X9902781Y-8159366D01*
X9920024Y-8172154D01*
X9935930Y-8186570D01*
X9950346Y-8202476D01*
X9963134Y-8219719D01*
X9974170Y-8238132D01*
X9983349Y-8257538D01*
X9990581Y-8277750D01*
X9995797Y-8298574D01*
X9998947Y-8319809D01*
X10000000Y-8341250D01*
X10000000Y-8778750D01*
X9998947Y-8800191D01*
X9995797Y-8821426D01*
X9990581Y-8842250D01*
X9983349Y-8862462D01*
X9974170Y-8881868D01*
X9963134Y-8900281D01*
X9950346Y-8917524D01*
X9935930Y-8933430D01*
X9920024Y-8947846D01*
X9902781Y-8960634D01*
X9884368Y-8971670D01*
X9864962Y-8980849D01*
X9844750Y-8988081D01*
X9823926Y-8993297D01*
X9802691Y-8996447D01*
X9781250Y-8997500D01*
X9268750Y-8997500D01*
X9247309Y-8996447D01*
X9226074Y-8993297D01*
X9205250Y-8988081D01*
X9185038Y-8980849D01*
X9165632Y-8971670D01*
X9147219Y-8960634D01*
X9129976Y-8947846D01*
X9114070Y-8933430D01*
X9099654Y-8917524D01*
X9086866Y-8900281D01*
X9075830Y-8881868D01*
X9066651Y-8862462D01*
X9059419Y-8842250D01*
X9054203Y-8821426D01*
X9051053Y-8800191D01*
X9050000Y-8778750D01*
X9050000Y-8341250D01*
X9051053Y-8319809D01*
X9054203Y-8298574D01*
X9059419Y-8277750D01*
X9066651Y-8257538D01*
X9075830Y-8238132D01*
X9086866Y-8219719D01*
X9099654Y-8202476D01*
X9114070Y-8186570D01*
X9129976Y-8172154D01*
X9147219Y-8159366D01*
X9165632Y-8148330D01*
X9185038Y-8139151D01*
X9205250Y-8131919D01*
X9226074Y-8126703D01*
X9247309Y-8123553D01*
X9268750Y-8122500D01*
X9781250Y-8122500D01*
X9802691Y-8123553D01*
X9802691Y-8123553D01*
G37*
D13*
G04 #@! TD*
G04 #@! TO.P,R1,2*
G04 #@! TO.N,Net-(R1-Pad2)*
X9525000Y-8560000D03*
D12*
G04 #@! TO.N,+3V3*
G04 #@! TO.C,R1*
G36*
X9802691Y-6548553D02*
X9823926Y-6551703D01*
X9844750Y-6556919D01*
X9864962Y-6564151D01*
X9884368Y-6573330D01*
X9902781Y-6584366D01*
X9920024Y-6597154D01*
X9935930Y-6611570D01*
X9950346Y-6627476D01*
X9963134Y-6644719D01*
X9974170Y-6663132D01*
X9983349Y-6682538D01*
X9990581Y-6702750D01*
X9995797Y-6723574D01*
X9998947Y-6744809D01*
X10000000Y-6766250D01*
X10000000Y-7203750D01*
X9998947Y-7225191D01*
X9995797Y-7246426D01*
X9990581Y-7267250D01*
X9983349Y-7287462D01*
X9974170Y-7306868D01*
X9963134Y-7325281D01*
X9950346Y-7342524D01*
X9935930Y-7358430D01*
X9920024Y-7372846D01*
X9902781Y-7385634D01*
X9884368Y-7396670D01*
X9864962Y-7405849D01*
X9844750Y-7413081D01*
X9823926Y-7418297D01*
X9802691Y-7421447D01*
X9781250Y-7422500D01*
X9268750Y-7422500D01*
X9247309Y-7421447D01*
X9226074Y-7418297D01*
X9205250Y-7413081D01*
X9185038Y-7405849D01*
X9165632Y-7396670D01*
X9147219Y-7385634D01*
X9129976Y-7372846D01*
X9114070Y-7358430D01*
X9099654Y-7342524D01*
X9086866Y-7325281D01*
X9075830Y-7306868D01*
X9066651Y-7287462D01*
X9059419Y-7267250D01*
X9054203Y-7246426D01*
X9051053Y-7225191D01*
X9050000Y-7203750D01*
X9050000Y-6766250D01*
X9051053Y-6744809D01*
X9054203Y-6723574D01*
X9059419Y-6702750D01*
X9066651Y-6682538D01*
X9075830Y-6663132D01*
X9086866Y-6644719D01*
X9099654Y-6627476D01*
X9114070Y-6611570D01*
X9129976Y-6597154D01*
X9147219Y-6584366D01*
X9165632Y-6573330D01*
X9185038Y-6564151D01*
X9205250Y-6556919D01*
X9226074Y-6551703D01*
X9247309Y-6548553D01*
X9268750Y-6547500D01*
X9781250Y-6547500D01*
X9802691Y-6548553D01*
X9802691Y-6548553D01*
G37*
D13*
G04 #@! TD*
G04 #@! TO.P,R1,1*
G04 #@! TO.N,+3V3*
X9525000Y-6985000D03*
D12*
G04 #@! TO.N,GND*
G04 #@! TO.C,R2*
G36*
X11187691Y-10956053D02*
X11208926Y-10959203D01*
X11229750Y-10964419D01*
X11249962Y-10971651D01*
X11269368Y-10980830D01*
X11287781Y-10991866D01*
X11305024Y-11004654D01*
X11320930Y-11019070D01*
X11335346Y-11034976D01*
X11348134Y-11052219D01*
X11359170Y-11070632D01*
X11368349Y-11090038D01*
X11375581Y-11110250D01*
X11380797Y-11131074D01*
X11383947Y-11152309D01*
X11385000Y-11173750D01*
X11385000Y-11686250D01*
X11383947Y-11707691D01*
X11380797Y-11728926D01*
X11375581Y-11749750D01*
X11368349Y-11769962D01*
X11359170Y-11789368D01*
X11348134Y-11807781D01*
X11335346Y-11825024D01*
X11320930Y-11840930D01*
X11305024Y-11855346D01*
X11287781Y-11868134D01*
X11269368Y-11879170D01*
X11249962Y-11888349D01*
X11229750Y-11895581D01*
X11208926Y-11900797D01*
X11187691Y-11903947D01*
X11166250Y-11905000D01*
X10728750Y-11905000D01*
X10707309Y-11903947D01*
X10686074Y-11900797D01*
X10665250Y-11895581D01*
X10645038Y-11888349D01*
X10625632Y-11879170D01*
X10607219Y-11868134D01*
X10589976Y-11855346D01*
X10574070Y-11840930D01*
X10559654Y-11825024D01*
X10546866Y-11807781D01*
X10535830Y-11789368D01*
X10526651Y-11769962D01*
X10519419Y-11749750D01*
X10514203Y-11728926D01*
X10511053Y-11707691D01*
X10510000Y-11686250D01*
X10510000Y-11173750D01*
X10511053Y-11152309D01*
X10514203Y-11131074D01*
X10519419Y-11110250D01*
X10526651Y-11090038D01*
X10535830Y-11070632D01*
X10546866Y-11052219D01*
X10559654Y-11034976D01*
X10574070Y-11019070D01*
X10589976Y-11004654D01*
X10607219Y-10991866D01*
X10625632Y-10980830D01*
X10645038Y-10971651D01*
X10665250Y-10964419D01*
X10686074Y-10959203D01*
X10707309Y-10956053D01*
X10728750Y-10955000D01*
X11166250Y-10955000D01*
X11187691Y-10956053D01*
X11187691Y-10956053D01*
G37*
D13*
G04 #@! TD*
G04 #@! TO.P,R2,2*
G04 #@! TO.N,GND*
X10947500Y-11430000D03*
D12*
G04 #@! TO.N,Net-(R2-Pad1)*
G04 #@! TO.C,R2*
G36*
X9612691Y-10956053D02*
X9633926Y-10959203D01*
X9654750Y-10964419D01*
X9674962Y-10971651D01*
X9694368Y-10980830D01*
X9712781Y-10991866D01*
X9730024Y-11004654D01*
X9745930Y-11019070D01*
X9760346Y-11034976D01*
X9773134Y-11052219D01*
X9784170Y-11070632D01*
X9793349Y-11090038D01*
X9800581Y-11110250D01*
X9805797Y-11131074D01*
X9808947Y-11152309D01*
X9810000Y-11173750D01*
X9810000Y-11686250D01*
X9808947Y-11707691D01*
X9805797Y-11728926D01*
X9800581Y-11749750D01*
X9793349Y-11769962D01*
X9784170Y-11789368D01*
X9773134Y-11807781D01*
X9760346Y-11825024D01*
X9745930Y-11840930D01*
X9730024Y-11855346D01*
X9712781Y-11868134D01*
X9694368Y-11879170D01*
X9674962Y-11888349D01*
X9654750Y-11895581D01*
X9633926Y-11900797D01*
X9612691Y-11903947D01*
X9591250Y-11905000D01*
X9153750Y-11905000D01*
X9132309Y-11903947D01*
X9111074Y-11900797D01*
X9090250Y-11895581D01*
X9070038Y-11888349D01*
X9050632Y-11879170D01*
X9032219Y-11868134D01*
X9014976Y-11855346D01*
X8999070Y-11840930D01*
X8984654Y-11825024D01*
X8971866Y-11807781D01*
X8960830Y-11789368D01*
X8951651Y-11769962D01*
X8944419Y-11749750D01*
X8939203Y-11728926D01*
X8936053Y-11707691D01*
X8935000Y-11686250D01*
X8935000Y-11173750D01*
X8936053Y-11152309D01*
X8939203Y-11131074D01*
X8944419Y-11110250D01*
X8951651Y-11090038D01*
X8960830Y-11070632D01*
X8971866Y-11052219D01*
X8984654Y-11034976D01*
X8999070Y-11019070D01*
X9014976Y-11004654D01*
X9032219Y-10991866D01*
X9050632Y-10980830D01*
X9070038Y-10971651D01*
X9090250Y-10964419D01*
X9111074Y-10959203D01*
X9132309Y-10956053D01*
X9153750Y-10955000D01*
X9591250Y-10955000D01*
X9612691Y-10956053D01*
X9612691Y-10956053D01*
G37*
D13*
G04 #@! TD*
G04 #@! TO.P,R2,1*
G04 #@! TO.N,Net-(R2-Pad1)*
X9372500Y-11430000D03*
D14*
G04 #@! TO.P,U2,10*
G04 #@! TO.N,Net-(R9-Pad1)*
X16285001Y-1995001D03*
G04 #@! TO.P,U2,9*
G04 #@! TO.N,Net-(R8-Pad1)*
X18825001Y-1995001D03*
G04 #@! TO.P,U2,8*
G04 #@! TO.N,Net-(R10-Pad1)*
X21365001Y-1995001D03*
G04 #@! TO.P,U2,7*
G04 #@! TO.N,Net-(R3-Pad1)*
X23905001Y-1995001D03*
G04 #@! TO.P,U2,6*
G04 #@! TO.N,Net-(R4-Pad1)*
X26445001Y-1995001D03*
G04 #@! TO.P,U2,5*
G04 #@! TO.N,+3V3*
X26445001Y-17235001D03*
G04 #@! TO.P,U2,4*
G04 #@! TO.N,Net-(R5-Pad1)*
X23905001Y-17235001D03*
G04 #@! TO.P,U2,3*
G04 #@! TO.N,Net-(R6-Pad1)*
X21365001Y-17235001D03*
G04 #@! TO.P,U2,2*
G04 #@! TO.N,Net-(R7-Pad1)*
X18825001Y-17235001D03*
D15*
G04 #@! TO.P,U2,1*
G04 #@! TO.N,+3V3*
X16285001Y-17235001D03*
G04 #@! TD*
D16*
G04 #@! TO.N,+3V3*
X10361207Y-6515010D03*
X5715000Y-15240000D03*
X13970000Y-17145000D03*
G04 #@! TO.N,GND*
X5715000Y-12700000D03*
X12065000Y-11430000D03*
G04 #@! TO.N,/RCLK*
X3810000Y-3175000D03*
X29845000Y-3175000D03*
G04 #@! TO.N,Net-(R1-Pad2)*
X10084572Y-9931815D03*
G04 #@! TO.N,Net-(R2-Pad1)*
X8834327Y-10192542D03*
G04 #@! TO.N,/7SEG_A*
X22860000Y-6350000D03*
X8255000Y-6350000D03*
G04 #@! TO.N,/7SEG_B*
X25400000Y-5080000D03*
X14605000Y-4914990D03*
G04 #@! TO.N,/7SEG_C*
X22860000Y-11430000D03*
X11430000Y-6515010D03*
G04 #@! TO.N,/7SEG_D*
X20320000Y-12230010D03*
X11430000Y-7620000D03*
G04 #@! TO.N,/7SEG_E*
X19055428Y-12958398D03*
X11595010Y-8890000D03*
G04 #@! TO.N,/7SEG_F*
X19050000Y-6985000D03*
X15562476Y-9351091D03*
G04 #@! TD*
D17*
G04 #@! TO.N,+3V3*
X9525000Y-6985000D02*
X9994990Y-6515010D01*
X9994990Y-6515010D02*
X10361207Y-6515010D01*
X5715000Y-15240000D02*
X12065000Y-15240000D01*
X12065000Y-15240000D02*
X13970000Y-17145000D01*
G04 #@! TO.N,GND*
X10947500Y-11430000D02*
X9677500Y-12700000D01*
X9677500Y-12700000D02*
X5715000Y-12700000D01*
X10947500Y-11430000D02*
X12065000Y-11430000D01*
G04 #@! TO.N,/RCLK*
X29445001Y-3574999D02*
X29845000Y-3175000D01*
X3810000Y-3175000D02*
X4209999Y-3574999D01*
X4209999Y-3574999D02*
X29445001Y-3574999D01*
G04 #@! TO.N,Net-(R1-Pad2)*
X9525000Y-9372243D02*
X9525000Y-8560000D01*
X10084572Y-9931815D02*
X9525000Y-9372243D01*
G04 #@! TO.N,Net-(R2-Pad1)*
X9372500Y-10730715D02*
X9234326Y-10592541D01*
X9372500Y-11430000D02*
X9372500Y-10730715D01*
X9234326Y-10592541D02*
X8834327Y-10192542D01*
G04 #@! TO.N,/7SEG_A*
X22225000Y-5715000D02*
X22860000Y-6350000D01*
X8890000Y-5715000D02*
X22225000Y-5715000D01*
X8255000Y-6350000D02*
X8890000Y-5715000D01*
G04 #@! TO.N,/7SEG_B*
X25400000Y-5080000D02*
X14770010Y-5080000D01*
X14770010Y-5080000D02*
X14605000Y-4914990D01*
G04 #@! TO.N,/7SEG_C*
X11829999Y-6915009D02*
X11430000Y-6515010D01*
X11995009Y-6915009D02*
X11829999Y-6915009D01*
X22460001Y-11030001D02*
X16110001Y-11030001D01*
X16110001Y-11030001D02*
X11995009Y-6915009D01*
X22860000Y-11430000D02*
X22460001Y-11030001D01*
G04 #@! TO.N,/7SEG_D*
X19920001Y-11830011D02*
X20320000Y-12230010D01*
X19824978Y-11734988D02*
X19920001Y-11830011D01*
X11909013Y-8019999D02*
X15624002Y-11734988D01*
X11430000Y-7620000D02*
X11829999Y-8019999D01*
X15624002Y-11734988D02*
X19824978Y-11734988D01*
X11829999Y-8019999D02*
X11909013Y-8019999D01*
G04 #@! TO.N,/7SEG_E*
X11995009Y-9289999D02*
X11595010Y-8890000D01*
X19055428Y-12958398D02*
X15663408Y-12958398D01*
X15663408Y-12958398D02*
X11995009Y-9289999D01*
G04 #@! TO.N,/7SEG_F*
X15962475Y-8951092D02*
X15562476Y-9351091D01*
X17928567Y-6985000D02*
X15962475Y-8951092D01*
X19050000Y-6985000D02*
X17928567Y-6985000D01*
G04 #@! TD*
M02*
