G04 #@! TF.GenerationSoftware,KiCad,Pcbnew,(5.0.2)-1*
G04 #@! TF.CreationDate,2019-05-13T14:34:42-07:00*
G04 #@! TF.ProjectId,7_segment_display,375f7365-676d-4656-9e74-5f646973706c,rev?*
G04 #@! TF.SameCoordinates,Original*
G04 #@! TF.FileFunction,Soldermask,Bot*
G04 #@! TF.FilePolarity,Negative*
%FSLAX46Y46*%
G04 Gerber Fmt 4.6, Leading zero omitted, Abs format (unit mm)*
G04 Created by KiCad (PCBNEW (5.0.2)-1) date 5/13/2019 2:34:42 PM*
%MOMM*%
%LPD*%
G01*
G04 APERTURE LIST*
%ADD10C,0.100000*%
G04 APERTURE END LIST*
D10*
G36*
X33057091Y-17258085D02*
X33091069Y-17268393D01*
X33122387Y-17285133D01*
X33149839Y-17307661D01*
X33172367Y-17335113D01*
X33189107Y-17366431D01*
X33199415Y-17400409D01*
X33203500Y-17441890D01*
X33203500Y-18118110D01*
X33199415Y-18159591D01*
X33189107Y-18193569D01*
X33172367Y-18224887D01*
X33149839Y-18252339D01*
X33122387Y-18274867D01*
X33091069Y-18291607D01*
X33057091Y-18301915D01*
X33015610Y-18306000D01*
X32414390Y-18306000D01*
X32372909Y-18301915D01*
X32338931Y-18291607D01*
X32307613Y-18274867D01*
X32280161Y-18252339D01*
X32257633Y-18224887D01*
X32240893Y-18193569D01*
X32230585Y-18159591D01*
X32226500Y-18118110D01*
X32226500Y-17441890D01*
X32230585Y-17400409D01*
X32240893Y-17366431D01*
X32257633Y-17335113D01*
X32280161Y-17307661D01*
X32307613Y-17285133D01*
X32338931Y-17268393D01*
X32372909Y-17258085D01*
X32414390Y-17254000D01*
X33015610Y-17254000D01*
X33057091Y-17258085D01*
X33057091Y-17258085D01*
G37*
G36*
X38289591Y-17258085D02*
X38323569Y-17268393D01*
X38354887Y-17285133D01*
X38382339Y-17307661D01*
X38404867Y-17335113D01*
X38421607Y-17366431D01*
X38431915Y-17400409D01*
X38436000Y-17441890D01*
X38436000Y-18118110D01*
X38431915Y-18159591D01*
X38421607Y-18193569D01*
X38404867Y-18224887D01*
X38382339Y-18252339D01*
X38354887Y-18274867D01*
X38323569Y-18291607D01*
X38289591Y-18301915D01*
X38248110Y-18306000D01*
X37646890Y-18306000D01*
X37605409Y-18301915D01*
X37571431Y-18291607D01*
X37540113Y-18274867D01*
X37512661Y-18252339D01*
X37490133Y-18224887D01*
X37473393Y-18193569D01*
X37463085Y-18159591D01*
X37459000Y-18118110D01*
X37459000Y-17441890D01*
X37463085Y-17400409D01*
X37473393Y-17366431D01*
X37490133Y-17335113D01*
X37512661Y-17307661D01*
X37540113Y-17285133D01*
X37571431Y-17268393D01*
X37605409Y-17258085D01*
X37646890Y-17254000D01*
X38248110Y-17254000D01*
X38289591Y-17258085D01*
X38289591Y-17258085D01*
G37*
G36*
X39864591Y-17258085D02*
X39898569Y-17268393D01*
X39929887Y-17285133D01*
X39957339Y-17307661D01*
X39979867Y-17335113D01*
X39996607Y-17366431D01*
X40006915Y-17400409D01*
X40011000Y-17441890D01*
X40011000Y-18118110D01*
X40006915Y-18159591D01*
X39996607Y-18193569D01*
X39979867Y-18224887D01*
X39957339Y-18252339D01*
X39929887Y-18274867D01*
X39898569Y-18291607D01*
X39864591Y-18301915D01*
X39823110Y-18306000D01*
X39221890Y-18306000D01*
X39180409Y-18301915D01*
X39146431Y-18291607D01*
X39115113Y-18274867D01*
X39087661Y-18252339D01*
X39065133Y-18224887D01*
X39048393Y-18193569D01*
X39038085Y-18159591D01*
X39034000Y-18118110D01*
X39034000Y-17441890D01*
X39038085Y-17400409D01*
X39048393Y-17366431D01*
X39065133Y-17335113D01*
X39087661Y-17307661D01*
X39115113Y-17285133D01*
X39146431Y-17268393D01*
X39180409Y-17258085D01*
X39221890Y-17254000D01*
X39823110Y-17254000D01*
X39864591Y-17258085D01*
X39864591Y-17258085D01*
G37*
G36*
X34632091Y-17258085D02*
X34666069Y-17268393D01*
X34697387Y-17285133D01*
X34724839Y-17307661D01*
X34747367Y-17335113D01*
X34764107Y-17366431D01*
X34774415Y-17400409D01*
X34778500Y-17441890D01*
X34778500Y-18118110D01*
X34774415Y-18159591D01*
X34764107Y-18193569D01*
X34747367Y-18224887D01*
X34724839Y-18252339D01*
X34697387Y-18274867D01*
X34666069Y-18291607D01*
X34632091Y-18301915D01*
X34590610Y-18306000D01*
X33989390Y-18306000D01*
X33947909Y-18301915D01*
X33913931Y-18291607D01*
X33882613Y-18274867D01*
X33855161Y-18252339D01*
X33832633Y-18224887D01*
X33815893Y-18193569D01*
X33805585Y-18159591D01*
X33801500Y-18118110D01*
X33801500Y-17441890D01*
X33805585Y-17400409D01*
X33815893Y-17366431D01*
X33832633Y-17335113D01*
X33855161Y-17307661D01*
X33882613Y-17285133D01*
X33913931Y-17268393D01*
X33947909Y-17258085D01*
X33989390Y-17254000D01*
X34590610Y-17254000D01*
X34632091Y-17258085D01*
X34632091Y-17258085D01*
G37*
G36*
X21671566Y-16224390D02*
X21862835Y-16303616D01*
X22034977Y-16418638D01*
X22181364Y-16565025D01*
X22296386Y-16737167D01*
X22375612Y-16928436D01*
X22416001Y-17131485D01*
X22416001Y-17338517D01*
X22375612Y-17541566D01*
X22296386Y-17732835D01*
X22181364Y-17904977D01*
X22034977Y-18051364D01*
X21862835Y-18166386D01*
X21671566Y-18245612D01*
X21468517Y-18286001D01*
X21261485Y-18286001D01*
X21058436Y-18245612D01*
X20867167Y-18166386D01*
X20695025Y-18051364D01*
X20548638Y-17904977D01*
X20433616Y-17732835D01*
X20354390Y-17541566D01*
X20314001Y-17338517D01*
X20314001Y-17131485D01*
X20354390Y-16928436D01*
X20433616Y-16737167D01*
X20548638Y-16565025D01*
X20695025Y-16418638D01*
X20867167Y-16303616D01*
X21058436Y-16224390D01*
X21261485Y-16184001D01*
X21468517Y-16184001D01*
X21671566Y-16224390D01*
X21671566Y-16224390D01*
G37*
G36*
X17336001Y-18286001D02*
X15234001Y-18286001D01*
X15234001Y-16184001D01*
X17336001Y-16184001D01*
X17336001Y-18286001D01*
X17336001Y-18286001D01*
G37*
G36*
X19131566Y-16224390D02*
X19322835Y-16303616D01*
X19494977Y-16418638D01*
X19641364Y-16565025D01*
X19756386Y-16737167D01*
X19835612Y-16928436D01*
X19876001Y-17131485D01*
X19876001Y-17338517D01*
X19835612Y-17541566D01*
X19756386Y-17732835D01*
X19641364Y-17904977D01*
X19494977Y-18051364D01*
X19322835Y-18166386D01*
X19131566Y-18245612D01*
X18928517Y-18286001D01*
X18721485Y-18286001D01*
X18518436Y-18245612D01*
X18327167Y-18166386D01*
X18155025Y-18051364D01*
X18008638Y-17904977D01*
X17893616Y-17732835D01*
X17814390Y-17541566D01*
X17774001Y-17338517D01*
X17774001Y-17131485D01*
X17814390Y-16928436D01*
X17893616Y-16737167D01*
X18008638Y-16565025D01*
X18155025Y-16418638D01*
X18327167Y-16303616D01*
X18518436Y-16224390D01*
X18721485Y-16184001D01*
X18928517Y-16184001D01*
X19131566Y-16224390D01*
X19131566Y-16224390D01*
G37*
G36*
X24211566Y-16224390D02*
X24402835Y-16303616D01*
X24574977Y-16418638D01*
X24721364Y-16565025D01*
X24836386Y-16737167D01*
X24915612Y-16928436D01*
X24956001Y-17131485D01*
X24956001Y-17338517D01*
X24915612Y-17541566D01*
X24836386Y-17732835D01*
X24721364Y-17904977D01*
X24574977Y-18051364D01*
X24402835Y-18166386D01*
X24211566Y-18245612D01*
X24008517Y-18286001D01*
X23801485Y-18286001D01*
X23598436Y-18245612D01*
X23407167Y-18166386D01*
X23235025Y-18051364D01*
X23088638Y-17904977D01*
X22973616Y-17732835D01*
X22894390Y-17541566D01*
X22854001Y-17338517D01*
X22854001Y-17131485D01*
X22894390Y-16928436D01*
X22973616Y-16737167D01*
X23088638Y-16565025D01*
X23235025Y-16418638D01*
X23407167Y-16303616D01*
X23598436Y-16224390D01*
X23801485Y-16184001D01*
X24008517Y-16184001D01*
X24211566Y-16224390D01*
X24211566Y-16224390D01*
G37*
G36*
X26751566Y-16224390D02*
X26942835Y-16303616D01*
X27114977Y-16418638D01*
X27261364Y-16565025D01*
X27376386Y-16737167D01*
X27455612Y-16928436D01*
X27496001Y-17131485D01*
X27496001Y-17338517D01*
X27455612Y-17541566D01*
X27376386Y-17732835D01*
X27261364Y-17904977D01*
X27114977Y-18051364D01*
X26942835Y-18166386D01*
X26751566Y-18245612D01*
X26548517Y-18286001D01*
X26341485Y-18286001D01*
X26138436Y-18245612D01*
X25947167Y-18166386D01*
X25775025Y-18051364D01*
X25628638Y-17904977D01*
X25513616Y-17732835D01*
X25434390Y-17541566D01*
X25394001Y-17338517D01*
X25394001Y-17131485D01*
X25434390Y-16928436D01*
X25513616Y-16737167D01*
X25628638Y-16565025D01*
X25775025Y-16418638D01*
X25947167Y-16303616D01*
X26138436Y-16224390D01*
X26341485Y-16184001D01*
X26548517Y-16184001D01*
X26751566Y-16224390D01*
X26751566Y-16224390D01*
G37*
G36*
X31381000Y-16141000D02*
X29579000Y-16141000D01*
X29579000Y-14339000D01*
X31381000Y-14339000D01*
X31381000Y-16141000D01*
X31381000Y-16141000D01*
G37*
G36*
X12966000Y-16141000D02*
X11164000Y-16141000D01*
X11164000Y-14339000D01*
X12966000Y-14339000D01*
X12966000Y-16141000D01*
X12966000Y-16141000D01*
G37*
G36*
X19429591Y-14273085D02*
X19463569Y-14283393D01*
X19494887Y-14300133D01*
X19522339Y-14322661D01*
X19544867Y-14350113D01*
X19561607Y-14381431D01*
X19571915Y-14415409D01*
X19576000Y-14456890D01*
X19576000Y-15058110D01*
X19571915Y-15099591D01*
X19561607Y-15133569D01*
X19544867Y-15164887D01*
X19522339Y-15192339D01*
X19494887Y-15214867D01*
X19463569Y-15231607D01*
X19429591Y-15241915D01*
X19388110Y-15246000D01*
X18711890Y-15246000D01*
X18670409Y-15241915D01*
X18636431Y-15231607D01*
X18605113Y-15214867D01*
X18577661Y-15192339D01*
X18555133Y-15164887D01*
X18538393Y-15133569D01*
X18528085Y-15099591D01*
X18524000Y-15058110D01*
X18524000Y-14456890D01*
X18528085Y-14415409D01*
X18538393Y-14381431D01*
X18555133Y-14350113D01*
X18577661Y-14322661D01*
X18605113Y-14300133D01*
X18636431Y-14283393D01*
X18670409Y-14273085D01*
X18711890Y-14269000D01*
X19388110Y-14269000D01*
X19429591Y-14273085D01*
X19429591Y-14273085D01*
G37*
G36*
X21969591Y-14273085D02*
X22003569Y-14283393D01*
X22034887Y-14300133D01*
X22062339Y-14322661D01*
X22084867Y-14350113D01*
X22101607Y-14381431D01*
X22111915Y-14415409D01*
X22116000Y-14456890D01*
X22116000Y-15058110D01*
X22111915Y-15099591D01*
X22101607Y-15133569D01*
X22084867Y-15164887D01*
X22062339Y-15192339D01*
X22034887Y-15214867D01*
X22003569Y-15231607D01*
X21969591Y-15241915D01*
X21928110Y-15246000D01*
X21251890Y-15246000D01*
X21210409Y-15241915D01*
X21176431Y-15231607D01*
X21145113Y-15214867D01*
X21117661Y-15192339D01*
X21095133Y-15164887D01*
X21078393Y-15133569D01*
X21068085Y-15099591D01*
X21064000Y-15058110D01*
X21064000Y-14456890D01*
X21068085Y-14415409D01*
X21078393Y-14381431D01*
X21095133Y-14350113D01*
X21117661Y-14322661D01*
X21145113Y-14300133D01*
X21176431Y-14283393D01*
X21210409Y-14273085D01*
X21251890Y-14269000D01*
X21928110Y-14269000D01*
X21969591Y-14273085D01*
X21969591Y-14273085D01*
G37*
G36*
X24509591Y-14273085D02*
X24543569Y-14283393D01*
X24574887Y-14300133D01*
X24602339Y-14322661D01*
X24624867Y-14350113D01*
X24641607Y-14381431D01*
X24651915Y-14415409D01*
X24656000Y-14456890D01*
X24656000Y-15058110D01*
X24651915Y-15099591D01*
X24641607Y-15133569D01*
X24624867Y-15164887D01*
X24602339Y-15192339D01*
X24574887Y-15214867D01*
X24543569Y-15231607D01*
X24509591Y-15241915D01*
X24468110Y-15246000D01*
X23791890Y-15246000D01*
X23750409Y-15241915D01*
X23716431Y-15231607D01*
X23685113Y-15214867D01*
X23657661Y-15192339D01*
X23635133Y-15164887D01*
X23618393Y-15133569D01*
X23608085Y-15099591D01*
X23604000Y-15058110D01*
X23604000Y-14456890D01*
X23608085Y-14415409D01*
X23618393Y-14381431D01*
X23635133Y-14350113D01*
X23657661Y-14322661D01*
X23685113Y-14300133D01*
X23716431Y-14283393D01*
X23750409Y-14273085D01*
X23791890Y-14269000D01*
X24468110Y-14269000D01*
X24509591Y-14273085D01*
X24509591Y-14273085D01*
G37*
G36*
X27049591Y-14273085D02*
X27083569Y-14283393D01*
X27114887Y-14300133D01*
X27142339Y-14322661D01*
X27164867Y-14350113D01*
X27181607Y-14381431D01*
X27191915Y-14415409D01*
X27196000Y-14456890D01*
X27196000Y-15058110D01*
X27191915Y-15099591D01*
X27181607Y-15133569D01*
X27164867Y-15164887D01*
X27142339Y-15192339D01*
X27114887Y-15214867D01*
X27083569Y-15231607D01*
X27049591Y-15241915D01*
X27008110Y-15246000D01*
X26331890Y-15246000D01*
X26290409Y-15241915D01*
X26256431Y-15231607D01*
X26225113Y-15214867D01*
X26197661Y-15192339D01*
X26175133Y-15164887D01*
X26158393Y-15133569D01*
X26148085Y-15099591D01*
X26144000Y-15058110D01*
X26144000Y-14456890D01*
X26148085Y-14415409D01*
X26158393Y-14381431D01*
X26175133Y-14350113D01*
X26197661Y-14322661D01*
X26225113Y-14300133D01*
X26256431Y-14283393D01*
X26290409Y-14273085D01*
X26331890Y-14269000D01*
X27008110Y-14269000D01*
X27049591Y-14273085D01*
X27049591Y-14273085D01*
G37*
G36*
X33746000Y-15061000D02*
X32344000Y-15061000D01*
X32344000Y-14159000D01*
X33746000Y-14159000D01*
X33746000Y-15061000D01*
X33746000Y-15061000D01*
G37*
G36*
X40046000Y-15061000D02*
X38644000Y-15061000D01*
X38644000Y-14159000D01*
X40046000Y-14159000D01*
X40046000Y-15061000D01*
X40046000Y-15061000D01*
G37*
G36*
X40046000Y-13781000D02*
X38644000Y-13781000D01*
X38644000Y-12879000D01*
X40046000Y-12879000D01*
X40046000Y-13781000D01*
X40046000Y-13781000D01*
G37*
G36*
X33746000Y-13781000D02*
X32344000Y-13781000D01*
X32344000Y-12879000D01*
X33746000Y-12879000D01*
X33746000Y-13781000D01*
X33746000Y-13781000D01*
G37*
G36*
X27049591Y-12698085D02*
X27083569Y-12708393D01*
X27114887Y-12725133D01*
X27142339Y-12747661D01*
X27164867Y-12775113D01*
X27181607Y-12806431D01*
X27191915Y-12840409D01*
X27196000Y-12881890D01*
X27196000Y-13483110D01*
X27191915Y-13524591D01*
X27181607Y-13558569D01*
X27164867Y-13589887D01*
X27142339Y-13617339D01*
X27114887Y-13639867D01*
X27083569Y-13656607D01*
X27049591Y-13666915D01*
X27008110Y-13671000D01*
X26331890Y-13671000D01*
X26290409Y-13666915D01*
X26256431Y-13656607D01*
X26225113Y-13639867D01*
X26197661Y-13617339D01*
X26175133Y-13589887D01*
X26158393Y-13558569D01*
X26148085Y-13524591D01*
X26144000Y-13483110D01*
X26144000Y-12881890D01*
X26148085Y-12840409D01*
X26158393Y-12806431D01*
X26175133Y-12775113D01*
X26197661Y-12747661D01*
X26225113Y-12725133D01*
X26256431Y-12708393D01*
X26290409Y-12698085D01*
X26331890Y-12694000D01*
X27008110Y-12694000D01*
X27049591Y-12698085D01*
X27049591Y-12698085D01*
G37*
G36*
X24509591Y-12698085D02*
X24543569Y-12708393D01*
X24574887Y-12725133D01*
X24602339Y-12747661D01*
X24624867Y-12775113D01*
X24641607Y-12806431D01*
X24651915Y-12840409D01*
X24656000Y-12881890D01*
X24656000Y-13483110D01*
X24651915Y-13524591D01*
X24641607Y-13558569D01*
X24624867Y-13589887D01*
X24602339Y-13617339D01*
X24574887Y-13639867D01*
X24543569Y-13656607D01*
X24509591Y-13666915D01*
X24468110Y-13671000D01*
X23791890Y-13671000D01*
X23750409Y-13666915D01*
X23716431Y-13656607D01*
X23685113Y-13639867D01*
X23657661Y-13617339D01*
X23635133Y-13589887D01*
X23618393Y-13558569D01*
X23608085Y-13524591D01*
X23604000Y-13483110D01*
X23604000Y-12881890D01*
X23608085Y-12840409D01*
X23618393Y-12806431D01*
X23635133Y-12775113D01*
X23657661Y-12747661D01*
X23685113Y-12725133D01*
X23716431Y-12708393D01*
X23750409Y-12698085D01*
X23791890Y-12694000D01*
X24468110Y-12694000D01*
X24509591Y-12698085D01*
X24509591Y-12698085D01*
G37*
G36*
X21969591Y-12698085D02*
X22003569Y-12708393D01*
X22034887Y-12725133D01*
X22062339Y-12747661D01*
X22084867Y-12775113D01*
X22101607Y-12806431D01*
X22111915Y-12840409D01*
X22116000Y-12881890D01*
X22116000Y-13483110D01*
X22111915Y-13524591D01*
X22101607Y-13558569D01*
X22084867Y-13589887D01*
X22062339Y-13617339D01*
X22034887Y-13639867D01*
X22003569Y-13656607D01*
X21969591Y-13666915D01*
X21928110Y-13671000D01*
X21251890Y-13671000D01*
X21210409Y-13666915D01*
X21176431Y-13656607D01*
X21145113Y-13639867D01*
X21117661Y-13617339D01*
X21095133Y-13589887D01*
X21078393Y-13558569D01*
X21068085Y-13524591D01*
X21064000Y-13483110D01*
X21064000Y-12881890D01*
X21068085Y-12840409D01*
X21078393Y-12806431D01*
X21095133Y-12775113D01*
X21117661Y-12747661D01*
X21145113Y-12725133D01*
X21176431Y-12708393D01*
X21210409Y-12698085D01*
X21251890Y-12694000D01*
X21928110Y-12694000D01*
X21969591Y-12698085D01*
X21969591Y-12698085D01*
G37*
G36*
X19429591Y-12698085D02*
X19463569Y-12708393D01*
X19494887Y-12725133D01*
X19522339Y-12747661D01*
X19544867Y-12775113D01*
X19561607Y-12806431D01*
X19571915Y-12840409D01*
X19576000Y-12881890D01*
X19576000Y-13483110D01*
X19571915Y-13524591D01*
X19561607Y-13558569D01*
X19544867Y-13589887D01*
X19522339Y-13617339D01*
X19494887Y-13639867D01*
X19463569Y-13656607D01*
X19429591Y-13666915D01*
X19388110Y-13671000D01*
X18711890Y-13671000D01*
X18670409Y-13666915D01*
X18636431Y-13656607D01*
X18605113Y-13639867D01*
X18577661Y-13617339D01*
X18555133Y-13589887D01*
X18538393Y-13558569D01*
X18528085Y-13524591D01*
X18524000Y-13483110D01*
X18524000Y-12881890D01*
X18528085Y-12840409D01*
X18538393Y-12806431D01*
X18555133Y-12775113D01*
X18577661Y-12747661D01*
X18605113Y-12725133D01*
X18636431Y-12708393D01*
X18670409Y-12698085D01*
X18711890Y-12694000D01*
X19388110Y-12694000D01*
X19429591Y-12698085D01*
X19429591Y-12698085D01*
G37*
G36*
X12175443Y-11805519D02*
X12241627Y-11812037D01*
X12354853Y-11846384D01*
X12411467Y-11863557D01*
X12550087Y-11937652D01*
X12567991Y-11947222D01*
X12603729Y-11976552D01*
X12705186Y-12059814D01*
X12788448Y-12161271D01*
X12817778Y-12197009D01*
X12817779Y-12197011D01*
X12901443Y-12353533D01*
X12901443Y-12353534D01*
X12952963Y-12523373D01*
X12970359Y-12700000D01*
X12952963Y-12876627D01*
X12934270Y-12938250D01*
X12901443Y-13046467D01*
X12827348Y-13185087D01*
X12817778Y-13202991D01*
X12788448Y-13238729D01*
X12705186Y-13340186D01*
X12603729Y-13423448D01*
X12567991Y-13452778D01*
X12567989Y-13452779D01*
X12411467Y-13536443D01*
X12354853Y-13553616D01*
X12241627Y-13587963D01*
X12175443Y-13594481D01*
X12109260Y-13601000D01*
X12020740Y-13601000D01*
X11954557Y-13594481D01*
X11888373Y-13587963D01*
X11775147Y-13553616D01*
X11718533Y-13536443D01*
X11562011Y-13452779D01*
X11562009Y-13452778D01*
X11526271Y-13423448D01*
X11424814Y-13340186D01*
X11341552Y-13238729D01*
X11312222Y-13202991D01*
X11302652Y-13185087D01*
X11228557Y-13046467D01*
X11195730Y-12938250D01*
X11177037Y-12876627D01*
X11159641Y-12700000D01*
X11177037Y-12523373D01*
X11228557Y-12353534D01*
X11228557Y-12353533D01*
X11312221Y-12197011D01*
X11312222Y-12197009D01*
X11341552Y-12161271D01*
X11424814Y-12059814D01*
X11526271Y-11976552D01*
X11562009Y-11947222D01*
X11579913Y-11937652D01*
X11718533Y-11863557D01*
X11775147Y-11846384D01*
X11888373Y-11812037D01*
X11954557Y-11805519D01*
X12020740Y-11799000D01*
X12109260Y-11799000D01*
X12175443Y-11805519D01*
X12175443Y-11805519D01*
G37*
G36*
X30590443Y-11805519D02*
X30656627Y-11812037D01*
X30769853Y-11846384D01*
X30826467Y-11863557D01*
X30965087Y-11937652D01*
X30982991Y-11947222D01*
X31018729Y-11976552D01*
X31120186Y-12059814D01*
X31203448Y-12161271D01*
X31232778Y-12197009D01*
X31232779Y-12197011D01*
X31316443Y-12353533D01*
X31316443Y-12353534D01*
X31367963Y-12523373D01*
X31385359Y-12700000D01*
X31367963Y-12876627D01*
X31349270Y-12938250D01*
X31316443Y-13046467D01*
X31242348Y-13185087D01*
X31232778Y-13202991D01*
X31203448Y-13238729D01*
X31120186Y-13340186D01*
X31018729Y-13423448D01*
X30982991Y-13452778D01*
X30982989Y-13452779D01*
X30826467Y-13536443D01*
X30769853Y-13553616D01*
X30656627Y-13587963D01*
X30590443Y-13594481D01*
X30524260Y-13601000D01*
X30435740Y-13601000D01*
X30369557Y-13594481D01*
X30303373Y-13587963D01*
X30190147Y-13553616D01*
X30133533Y-13536443D01*
X29977011Y-13452779D01*
X29977009Y-13452778D01*
X29941271Y-13423448D01*
X29839814Y-13340186D01*
X29756552Y-13238729D01*
X29727222Y-13202991D01*
X29717652Y-13185087D01*
X29643557Y-13046467D01*
X29610730Y-12938250D01*
X29592037Y-12876627D01*
X29574641Y-12700000D01*
X29592037Y-12523373D01*
X29643557Y-12353534D01*
X29643557Y-12353533D01*
X29727221Y-12197011D01*
X29727222Y-12197009D01*
X29756552Y-12161271D01*
X29839814Y-12059814D01*
X29941271Y-11976552D01*
X29977009Y-11947222D01*
X29994913Y-11937652D01*
X30133533Y-11863557D01*
X30190147Y-11846384D01*
X30303373Y-11812037D01*
X30369557Y-11805519D01*
X30435740Y-11799000D01*
X30524260Y-11799000D01*
X30590443Y-11805519D01*
X30590443Y-11805519D01*
G37*
G36*
X40046000Y-12521000D02*
X38644000Y-12521000D01*
X38644000Y-11619000D01*
X40046000Y-11619000D01*
X40046000Y-12521000D01*
X40046000Y-12521000D01*
G37*
G36*
X33746000Y-12521000D02*
X32344000Y-12521000D01*
X32344000Y-11619000D01*
X33746000Y-11619000D01*
X33746000Y-12521000D01*
X33746000Y-12521000D01*
G37*
G36*
X40046000Y-11251000D02*
X38644000Y-11251000D01*
X38644000Y-10349000D01*
X40046000Y-10349000D01*
X40046000Y-11251000D01*
X40046000Y-11251000D01*
G37*
G36*
X33746000Y-11251000D02*
X32344000Y-11251000D01*
X32344000Y-10349000D01*
X33746000Y-10349000D01*
X33746000Y-11251000D01*
X33746000Y-11251000D01*
G37*
G36*
X30590442Y-9265518D02*
X30656627Y-9272037D01*
X30769853Y-9306384D01*
X30826467Y-9323557D01*
X30965087Y-9397652D01*
X30982991Y-9407222D01*
X31018729Y-9436552D01*
X31120186Y-9519814D01*
X31203448Y-9621271D01*
X31232778Y-9657009D01*
X31232779Y-9657011D01*
X31316443Y-9813533D01*
X31316443Y-9813534D01*
X31367963Y-9983373D01*
X31385359Y-10160000D01*
X31367963Y-10336627D01*
X31333616Y-10449853D01*
X31316443Y-10506467D01*
X31242348Y-10645087D01*
X31232778Y-10662991D01*
X31203448Y-10698729D01*
X31120186Y-10800186D01*
X31018729Y-10883448D01*
X30982991Y-10912778D01*
X30982989Y-10912779D01*
X30826467Y-10996443D01*
X30769853Y-11013616D01*
X30656627Y-11047963D01*
X30590443Y-11054481D01*
X30524260Y-11061000D01*
X30435740Y-11061000D01*
X30369557Y-11054481D01*
X30303373Y-11047963D01*
X30190147Y-11013616D01*
X30133533Y-10996443D01*
X29977011Y-10912779D01*
X29977009Y-10912778D01*
X29941271Y-10883448D01*
X29839814Y-10800186D01*
X29756552Y-10698729D01*
X29727222Y-10662991D01*
X29717652Y-10645087D01*
X29643557Y-10506467D01*
X29626384Y-10449853D01*
X29592037Y-10336627D01*
X29574641Y-10160000D01*
X29592037Y-9983373D01*
X29643557Y-9813534D01*
X29643557Y-9813533D01*
X29727221Y-9657011D01*
X29727222Y-9657009D01*
X29756552Y-9621271D01*
X29839814Y-9519814D01*
X29941271Y-9436552D01*
X29977009Y-9407222D01*
X29994913Y-9397652D01*
X30133533Y-9323557D01*
X30190147Y-9306384D01*
X30303373Y-9272037D01*
X30369558Y-9265518D01*
X30435740Y-9259000D01*
X30524260Y-9259000D01*
X30590442Y-9265518D01*
X30590442Y-9265518D01*
G37*
G36*
X12175442Y-9265518D02*
X12241627Y-9272037D01*
X12354853Y-9306384D01*
X12411467Y-9323557D01*
X12550087Y-9397652D01*
X12567991Y-9407222D01*
X12603729Y-9436552D01*
X12705186Y-9519814D01*
X12788448Y-9621271D01*
X12817778Y-9657009D01*
X12817779Y-9657011D01*
X12901443Y-9813533D01*
X12901443Y-9813534D01*
X12952963Y-9983373D01*
X12970359Y-10160000D01*
X12952963Y-10336627D01*
X12918616Y-10449853D01*
X12901443Y-10506467D01*
X12827348Y-10645087D01*
X12817778Y-10662991D01*
X12788448Y-10698729D01*
X12705186Y-10800186D01*
X12603729Y-10883448D01*
X12567991Y-10912778D01*
X12567989Y-10912779D01*
X12411467Y-10996443D01*
X12354853Y-11013616D01*
X12241627Y-11047963D01*
X12175443Y-11054481D01*
X12109260Y-11061000D01*
X12020740Y-11061000D01*
X11954557Y-11054481D01*
X11888373Y-11047963D01*
X11775147Y-11013616D01*
X11718533Y-10996443D01*
X11562011Y-10912779D01*
X11562009Y-10912778D01*
X11526271Y-10883448D01*
X11424814Y-10800186D01*
X11341552Y-10698729D01*
X11312222Y-10662991D01*
X11302652Y-10645087D01*
X11228557Y-10506467D01*
X11211384Y-10449853D01*
X11177037Y-10336627D01*
X11159641Y-10160000D01*
X11177037Y-9983373D01*
X11228557Y-9813534D01*
X11228557Y-9813533D01*
X11312221Y-9657011D01*
X11312222Y-9657009D01*
X11341552Y-9621271D01*
X11424814Y-9519814D01*
X11526271Y-9436552D01*
X11562009Y-9407222D01*
X11579913Y-9397652D01*
X11718533Y-9323557D01*
X11775147Y-9306384D01*
X11888373Y-9272037D01*
X11954558Y-9265518D01*
X12020740Y-9259000D01*
X12109260Y-9259000D01*
X12175442Y-9265518D01*
X12175442Y-9265518D01*
G37*
G36*
X40046000Y-9971000D02*
X38644000Y-9971000D01*
X38644000Y-9069000D01*
X40046000Y-9069000D01*
X40046000Y-9971000D01*
X40046000Y-9971000D01*
G37*
G36*
X33746000Y-9971000D02*
X32344000Y-9971000D01*
X32344000Y-9069000D01*
X33746000Y-9069000D01*
X33746000Y-9971000D01*
X33746000Y-9971000D01*
G37*
G36*
X33746000Y-8701000D02*
X32344000Y-8701000D01*
X32344000Y-7799000D01*
X33746000Y-7799000D01*
X33746000Y-8701000D01*
X33746000Y-8701000D01*
G37*
G36*
X40046000Y-8701000D02*
X38644000Y-8701000D01*
X38644000Y-7799000D01*
X40046000Y-7799000D01*
X40046000Y-8701000D01*
X40046000Y-8701000D01*
G37*
G36*
X30590442Y-6725518D02*
X30656627Y-6732037D01*
X30769853Y-6766384D01*
X30826467Y-6783557D01*
X30965087Y-6857652D01*
X30982991Y-6867222D01*
X31018729Y-6896552D01*
X31120186Y-6979814D01*
X31203448Y-7081271D01*
X31232778Y-7117009D01*
X31232779Y-7117011D01*
X31316443Y-7273533D01*
X31316443Y-7273534D01*
X31367963Y-7443373D01*
X31385359Y-7620000D01*
X31367963Y-7796627D01*
X31367243Y-7799000D01*
X31316443Y-7966467D01*
X31242348Y-8105087D01*
X31232778Y-8122991D01*
X31203448Y-8158729D01*
X31120186Y-8260186D01*
X31018729Y-8343448D01*
X30982991Y-8372778D01*
X30982989Y-8372779D01*
X30826467Y-8456443D01*
X30769853Y-8473616D01*
X30656627Y-8507963D01*
X30590443Y-8514481D01*
X30524260Y-8521000D01*
X30435740Y-8521000D01*
X30369557Y-8514481D01*
X30303373Y-8507963D01*
X30190147Y-8473616D01*
X30133533Y-8456443D01*
X29977011Y-8372779D01*
X29977009Y-8372778D01*
X29941271Y-8343448D01*
X29839814Y-8260186D01*
X29756552Y-8158729D01*
X29727222Y-8122991D01*
X29717652Y-8105087D01*
X29643557Y-7966467D01*
X29592757Y-7799000D01*
X29592037Y-7796627D01*
X29574641Y-7620000D01*
X29592037Y-7443373D01*
X29643557Y-7273534D01*
X29643557Y-7273533D01*
X29727221Y-7117011D01*
X29727222Y-7117009D01*
X29756552Y-7081271D01*
X29839814Y-6979814D01*
X29941271Y-6896552D01*
X29977009Y-6867222D01*
X29994913Y-6857652D01*
X30133533Y-6783557D01*
X30190147Y-6766384D01*
X30303373Y-6732037D01*
X30369558Y-6725518D01*
X30435740Y-6719000D01*
X30524260Y-6719000D01*
X30590442Y-6725518D01*
X30590442Y-6725518D01*
G37*
G36*
X12175442Y-6725518D02*
X12241627Y-6732037D01*
X12354853Y-6766384D01*
X12411467Y-6783557D01*
X12550087Y-6857652D01*
X12567991Y-6867222D01*
X12603729Y-6896552D01*
X12705186Y-6979814D01*
X12788448Y-7081271D01*
X12817778Y-7117009D01*
X12817779Y-7117011D01*
X12901443Y-7273533D01*
X12901443Y-7273534D01*
X12952963Y-7443373D01*
X12970359Y-7620000D01*
X12952963Y-7796627D01*
X12952243Y-7799000D01*
X12901443Y-7966467D01*
X12827348Y-8105087D01*
X12817778Y-8122991D01*
X12788448Y-8158729D01*
X12705186Y-8260186D01*
X12603729Y-8343448D01*
X12567991Y-8372778D01*
X12567989Y-8372779D01*
X12411467Y-8456443D01*
X12354853Y-8473616D01*
X12241627Y-8507963D01*
X12175443Y-8514481D01*
X12109260Y-8521000D01*
X12020740Y-8521000D01*
X11954557Y-8514481D01*
X11888373Y-8507963D01*
X11775147Y-8473616D01*
X11718533Y-8456443D01*
X11562011Y-8372779D01*
X11562009Y-8372778D01*
X11526271Y-8343448D01*
X11424814Y-8260186D01*
X11341552Y-8158729D01*
X11312222Y-8122991D01*
X11302652Y-8105087D01*
X11228557Y-7966467D01*
X11177757Y-7799000D01*
X11177037Y-7796627D01*
X11159641Y-7620000D01*
X11177037Y-7443373D01*
X11228557Y-7273534D01*
X11228557Y-7273533D01*
X11312221Y-7117011D01*
X11312222Y-7117009D01*
X11341552Y-7081271D01*
X11424814Y-6979814D01*
X11526271Y-6896552D01*
X11562009Y-6867222D01*
X11579913Y-6857652D01*
X11718533Y-6783557D01*
X11775147Y-6766384D01*
X11888373Y-6732037D01*
X11954558Y-6725518D01*
X12020740Y-6719000D01*
X12109260Y-6719000D01*
X12175442Y-6725518D01*
X12175442Y-6725518D01*
G37*
G36*
X40046000Y-7441000D02*
X38644000Y-7441000D01*
X38644000Y-6539000D01*
X40046000Y-6539000D01*
X40046000Y-7441000D01*
X40046000Y-7441000D01*
G37*
G36*
X33746000Y-7441000D02*
X32344000Y-7441000D01*
X32344000Y-6539000D01*
X33746000Y-6539000D01*
X33746000Y-7441000D01*
X33746000Y-7441000D01*
G37*
G36*
X19429591Y-5383085D02*
X19463569Y-5393393D01*
X19494887Y-5410133D01*
X19522339Y-5432661D01*
X19544867Y-5460113D01*
X19561607Y-5491431D01*
X19571915Y-5525409D01*
X19576000Y-5566890D01*
X19576000Y-6168110D01*
X19571915Y-6209591D01*
X19561607Y-6243569D01*
X19544867Y-6274887D01*
X19522339Y-6302339D01*
X19494887Y-6324867D01*
X19463569Y-6341607D01*
X19429591Y-6351915D01*
X19388110Y-6356000D01*
X18711890Y-6356000D01*
X18670409Y-6351915D01*
X18636431Y-6341607D01*
X18605113Y-6324867D01*
X18577661Y-6302339D01*
X18555133Y-6274887D01*
X18538393Y-6243569D01*
X18528085Y-6209591D01*
X18524000Y-6168110D01*
X18524000Y-5566890D01*
X18528085Y-5525409D01*
X18538393Y-5491431D01*
X18555133Y-5460113D01*
X18577661Y-5432661D01*
X18605113Y-5410133D01*
X18636431Y-5393393D01*
X18670409Y-5383085D01*
X18711890Y-5379000D01*
X19388110Y-5379000D01*
X19429591Y-5383085D01*
X19429591Y-5383085D01*
G37*
G36*
X16889591Y-5383085D02*
X16923569Y-5393393D01*
X16954887Y-5410133D01*
X16982339Y-5432661D01*
X17004867Y-5460113D01*
X17021607Y-5491431D01*
X17031915Y-5525409D01*
X17036000Y-5566890D01*
X17036000Y-6168110D01*
X17031915Y-6209591D01*
X17021607Y-6243569D01*
X17004867Y-6274887D01*
X16982339Y-6302339D01*
X16954887Y-6324867D01*
X16923569Y-6341607D01*
X16889591Y-6351915D01*
X16848110Y-6356000D01*
X16171890Y-6356000D01*
X16130409Y-6351915D01*
X16096431Y-6341607D01*
X16065113Y-6324867D01*
X16037661Y-6302339D01*
X16015133Y-6274887D01*
X15998393Y-6243569D01*
X15988085Y-6209591D01*
X15984000Y-6168110D01*
X15984000Y-5566890D01*
X15988085Y-5525409D01*
X15998393Y-5491431D01*
X16015133Y-5460113D01*
X16037661Y-5432661D01*
X16065113Y-5410133D01*
X16096431Y-5393393D01*
X16130409Y-5383085D01*
X16171890Y-5379000D01*
X16848110Y-5379000D01*
X16889591Y-5383085D01*
X16889591Y-5383085D01*
G37*
G36*
X24509591Y-5383085D02*
X24543569Y-5393393D01*
X24574887Y-5410133D01*
X24602339Y-5432661D01*
X24624867Y-5460113D01*
X24641607Y-5491431D01*
X24651915Y-5525409D01*
X24656000Y-5566890D01*
X24656000Y-6168110D01*
X24651915Y-6209591D01*
X24641607Y-6243569D01*
X24624867Y-6274887D01*
X24602339Y-6302339D01*
X24574887Y-6324867D01*
X24543569Y-6341607D01*
X24509591Y-6351915D01*
X24468110Y-6356000D01*
X23791890Y-6356000D01*
X23750409Y-6351915D01*
X23716431Y-6341607D01*
X23685113Y-6324867D01*
X23657661Y-6302339D01*
X23635133Y-6274887D01*
X23618393Y-6243569D01*
X23608085Y-6209591D01*
X23604000Y-6168110D01*
X23604000Y-5566890D01*
X23608085Y-5525409D01*
X23618393Y-5491431D01*
X23635133Y-5460113D01*
X23657661Y-5432661D01*
X23685113Y-5410133D01*
X23716431Y-5393393D01*
X23750409Y-5383085D01*
X23791890Y-5379000D01*
X24468110Y-5379000D01*
X24509591Y-5383085D01*
X24509591Y-5383085D01*
G37*
G36*
X27049591Y-5383085D02*
X27083569Y-5393393D01*
X27114887Y-5410133D01*
X27142339Y-5432661D01*
X27164867Y-5460113D01*
X27181607Y-5491431D01*
X27191915Y-5525409D01*
X27196000Y-5566890D01*
X27196000Y-6168110D01*
X27191915Y-6209591D01*
X27181607Y-6243569D01*
X27164867Y-6274887D01*
X27142339Y-6302339D01*
X27114887Y-6324867D01*
X27083569Y-6341607D01*
X27049591Y-6351915D01*
X27008110Y-6356000D01*
X26331890Y-6356000D01*
X26290409Y-6351915D01*
X26256431Y-6341607D01*
X26225113Y-6324867D01*
X26197661Y-6302339D01*
X26175133Y-6274887D01*
X26158393Y-6243569D01*
X26148085Y-6209591D01*
X26144000Y-6168110D01*
X26144000Y-5566890D01*
X26148085Y-5525409D01*
X26158393Y-5491431D01*
X26175133Y-5460113D01*
X26197661Y-5432661D01*
X26225113Y-5410133D01*
X26256431Y-5393393D01*
X26290409Y-5383085D01*
X26331890Y-5379000D01*
X27008110Y-5379000D01*
X27049591Y-5383085D01*
X27049591Y-5383085D01*
G37*
G36*
X33746000Y-6161000D02*
X32344000Y-6161000D01*
X32344000Y-5259000D01*
X33746000Y-5259000D01*
X33746000Y-6161000D01*
X33746000Y-6161000D01*
G37*
G36*
X40046000Y-6161000D02*
X38644000Y-6161000D01*
X38644000Y-5259000D01*
X40046000Y-5259000D01*
X40046000Y-6161000D01*
X40046000Y-6161000D01*
G37*
G36*
X12175443Y-4185519D02*
X12241627Y-4192037D01*
X12354853Y-4226384D01*
X12411467Y-4243557D01*
X12550087Y-4317652D01*
X12567991Y-4327222D01*
X12603729Y-4356552D01*
X12705186Y-4439814D01*
X12784738Y-4536750D01*
X12817778Y-4577009D01*
X12817779Y-4577011D01*
X12901443Y-4733533D01*
X12915842Y-4781000D01*
X12952963Y-4903373D01*
X12970359Y-5080000D01*
X12952963Y-5256627D01*
X12952243Y-5259000D01*
X12901443Y-5426467D01*
X12846220Y-5529780D01*
X12817778Y-5582991D01*
X12788448Y-5618729D01*
X12705186Y-5720186D01*
X12603729Y-5803448D01*
X12567991Y-5832778D01*
X12567989Y-5832779D01*
X12411467Y-5916443D01*
X12354853Y-5933616D01*
X12241627Y-5967963D01*
X12175443Y-5974481D01*
X12109260Y-5981000D01*
X12020740Y-5981000D01*
X11954557Y-5974481D01*
X11888373Y-5967963D01*
X11775147Y-5933616D01*
X11718533Y-5916443D01*
X11562011Y-5832779D01*
X11562009Y-5832778D01*
X11526271Y-5803448D01*
X11424814Y-5720186D01*
X11341552Y-5618729D01*
X11312222Y-5582991D01*
X11283780Y-5529780D01*
X11228557Y-5426467D01*
X11177757Y-5259000D01*
X11177037Y-5256627D01*
X11159641Y-5080000D01*
X11177037Y-4903373D01*
X11214158Y-4781000D01*
X11228557Y-4733533D01*
X11312221Y-4577011D01*
X11312222Y-4577009D01*
X11345262Y-4536750D01*
X11424814Y-4439814D01*
X11526271Y-4356552D01*
X11562009Y-4327222D01*
X11579913Y-4317652D01*
X11718533Y-4243557D01*
X11775147Y-4226384D01*
X11888373Y-4192037D01*
X11954557Y-4185519D01*
X12020740Y-4179000D01*
X12109260Y-4179000D01*
X12175443Y-4185519D01*
X12175443Y-4185519D01*
G37*
G36*
X30590443Y-4185519D02*
X30656627Y-4192037D01*
X30769853Y-4226384D01*
X30826467Y-4243557D01*
X30965087Y-4317652D01*
X30982991Y-4327222D01*
X31018729Y-4356552D01*
X31120186Y-4439814D01*
X31199738Y-4536750D01*
X31232778Y-4577009D01*
X31232779Y-4577011D01*
X31316443Y-4733533D01*
X31330842Y-4781000D01*
X31367963Y-4903373D01*
X31385359Y-5080000D01*
X31367963Y-5256627D01*
X31367243Y-5259000D01*
X31316443Y-5426467D01*
X31261220Y-5529780D01*
X31232778Y-5582991D01*
X31203448Y-5618729D01*
X31120186Y-5720186D01*
X31018729Y-5803448D01*
X30982991Y-5832778D01*
X30982989Y-5832779D01*
X30826467Y-5916443D01*
X30769853Y-5933616D01*
X30656627Y-5967963D01*
X30590443Y-5974481D01*
X30524260Y-5981000D01*
X30435740Y-5981000D01*
X30369557Y-5974481D01*
X30303373Y-5967963D01*
X30190147Y-5933616D01*
X30133533Y-5916443D01*
X29977011Y-5832779D01*
X29977009Y-5832778D01*
X29941271Y-5803448D01*
X29839814Y-5720186D01*
X29756552Y-5618729D01*
X29727222Y-5582991D01*
X29698780Y-5529780D01*
X29643557Y-5426467D01*
X29592757Y-5259000D01*
X29592037Y-5256627D01*
X29574641Y-5080000D01*
X29592037Y-4903373D01*
X29629158Y-4781000D01*
X29643557Y-4733533D01*
X29727221Y-4577011D01*
X29727222Y-4577009D01*
X29760262Y-4536750D01*
X29839814Y-4439814D01*
X29941271Y-4356552D01*
X29977009Y-4327222D01*
X29994913Y-4317652D01*
X30133533Y-4243557D01*
X30190147Y-4226384D01*
X30303373Y-4192037D01*
X30369558Y-4185518D01*
X30435740Y-4179000D01*
X30524260Y-4179000D01*
X30590443Y-4185519D01*
X30590443Y-4185519D01*
G37*
G36*
X24509591Y-3808085D02*
X24543569Y-3818393D01*
X24574887Y-3835133D01*
X24602339Y-3857661D01*
X24624867Y-3885113D01*
X24641607Y-3916431D01*
X24651915Y-3950409D01*
X24656000Y-3991890D01*
X24656000Y-4593110D01*
X24651915Y-4634591D01*
X24641607Y-4668569D01*
X24624867Y-4699887D01*
X24602339Y-4727339D01*
X24574887Y-4749867D01*
X24543569Y-4766607D01*
X24509591Y-4776915D01*
X24468110Y-4781000D01*
X23791890Y-4781000D01*
X23750409Y-4776915D01*
X23716431Y-4766607D01*
X23685113Y-4749867D01*
X23657661Y-4727339D01*
X23635133Y-4699887D01*
X23618393Y-4668569D01*
X23608085Y-4634591D01*
X23604000Y-4593110D01*
X23604000Y-3991890D01*
X23608085Y-3950409D01*
X23618393Y-3916431D01*
X23635133Y-3885113D01*
X23657661Y-3857661D01*
X23685113Y-3835133D01*
X23716431Y-3818393D01*
X23750409Y-3808085D01*
X23791890Y-3804000D01*
X24468110Y-3804000D01*
X24509591Y-3808085D01*
X24509591Y-3808085D01*
G37*
G36*
X19429591Y-3808085D02*
X19463569Y-3818393D01*
X19494887Y-3835133D01*
X19522339Y-3857661D01*
X19544867Y-3885113D01*
X19561607Y-3916431D01*
X19571915Y-3950409D01*
X19576000Y-3991890D01*
X19576000Y-4593110D01*
X19571915Y-4634591D01*
X19561607Y-4668569D01*
X19544867Y-4699887D01*
X19522339Y-4727339D01*
X19494887Y-4749867D01*
X19463569Y-4766607D01*
X19429591Y-4776915D01*
X19388110Y-4781000D01*
X18711890Y-4781000D01*
X18670409Y-4776915D01*
X18636431Y-4766607D01*
X18605113Y-4749867D01*
X18577661Y-4727339D01*
X18555133Y-4699887D01*
X18538393Y-4668569D01*
X18528085Y-4634591D01*
X18524000Y-4593110D01*
X18524000Y-3991890D01*
X18528085Y-3950409D01*
X18538393Y-3916431D01*
X18555133Y-3885113D01*
X18577661Y-3857661D01*
X18605113Y-3835133D01*
X18636431Y-3818393D01*
X18670409Y-3808085D01*
X18711890Y-3804000D01*
X19388110Y-3804000D01*
X19429591Y-3808085D01*
X19429591Y-3808085D01*
G37*
G36*
X27049591Y-3808085D02*
X27083569Y-3818393D01*
X27114887Y-3835133D01*
X27142339Y-3857661D01*
X27164867Y-3885113D01*
X27181607Y-3916431D01*
X27191915Y-3950409D01*
X27196000Y-3991890D01*
X27196000Y-4593110D01*
X27191915Y-4634591D01*
X27181607Y-4668569D01*
X27164867Y-4699887D01*
X27142339Y-4727339D01*
X27114887Y-4749867D01*
X27083569Y-4766607D01*
X27049591Y-4776915D01*
X27008110Y-4781000D01*
X26331890Y-4781000D01*
X26290409Y-4776915D01*
X26256431Y-4766607D01*
X26225113Y-4749867D01*
X26197661Y-4727339D01*
X26175133Y-4699887D01*
X26158393Y-4668569D01*
X26148085Y-4634591D01*
X26144000Y-4593110D01*
X26144000Y-3991890D01*
X26148085Y-3950409D01*
X26158393Y-3916431D01*
X26175133Y-3885113D01*
X26197661Y-3857661D01*
X26225113Y-3835133D01*
X26256431Y-3818393D01*
X26290409Y-3808085D01*
X26331890Y-3804000D01*
X27008110Y-3804000D01*
X27049591Y-3808085D01*
X27049591Y-3808085D01*
G37*
G36*
X16889591Y-3808085D02*
X16923569Y-3818393D01*
X16954887Y-3835133D01*
X16982339Y-3857661D01*
X17004867Y-3885113D01*
X17021607Y-3916431D01*
X17031915Y-3950409D01*
X17036000Y-3991890D01*
X17036000Y-4593110D01*
X17031915Y-4634591D01*
X17021607Y-4668569D01*
X17004867Y-4699887D01*
X16982339Y-4727339D01*
X16954887Y-4749867D01*
X16923569Y-4766607D01*
X16889591Y-4776915D01*
X16848110Y-4781000D01*
X16171890Y-4781000D01*
X16130409Y-4776915D01*
X16096431Y-4766607D01*
X16065113Y-4749867D01*
X16037661Y-4727339D01*
X16015133Y-4699887D01*
X15998393Y-4668569D01*
X15988085Y-4634591D01*
X15984000Y-4593110D01*
X15984000Y-3991890D01*
X15988085Y-3950409D01*
X15998393Y-3916431D01*
X16015133Y-3885113D01*
X16037661Y-3857661D01*
X16065113Y-3835133D01*
X16096431Y-3818393D01*
X16130409Y-3808085D01*
X16171890Y-3804000D01*
X16848110Y-3804000D01*
X16889591Y-3808085D01*
X16889591Y-3808085D01*
G37*
G36*
X24211566Y-984390D02*
X24402835Y-1063616D01*
X24574977Y-1178638D01*
X24721364Y-1325025D01*
X24836386Y-1497167D01*
X24915612Y-1688436D01*
X24956001Y-1891485D01*
X24956001Y-2098517D01*
X24915612Y-2301566D01*
X24836386Y-2492835D01*
X24721364Y-2664977D01*
X24574977Y-2811364D01*
X24402835Y-2926386D01*
X24211566Y-3005612D01*
X24008517Y-3046001D01*
X23801485Y-3046001D01*
X23598436Y-3005612D01*
X23407167Y-2926386D01*
X23235025Y-2811364D01*
X23088638Y-2664977D01*
X22973616Y-2492835D01*
X22894390Y-2301566D01*
X22854001Y-2098517D01*
X22854001Y-1891485D01*
X22894390Y-1688436D01*
X22973616Y-1497167D01*
X23088638Y-1325025D01*
X23235025Y-1178638D01*
X23407167Y-1063616D01*
X23598436Y-984390D01*
X23801485Y-944001D01*
X24008517Y-944001D01*
X24211566Y-984390D01*
X24211566Y-984390D01*
G37*
G36*
X21671566Y-984390D02*
X21862835Y-1063616D01*
X22034977Y-1178638D01*
X22181364Y-1325025D01*
X22296386Y-1497167D01*
X22375612Y-1688436D01*
X22416001Y-1891485D01*
X22416001Y-2098517D01*
X22375612Y-2301566D01*
X22296386Y-2492835D01*
X22181364Y-2664977D01*
X22034977Y-2811364D01*
X21862835Y-2926386D01*
X21671566Y-3005612D01*
X21468517Y-3046001D01*
X21261485Y-3046001D01*
X21058436Y-3005612D01*
X20867167Y-2926386D01*
X20695025Y-2811364D01*
X20548638Y-2664977D01*
X20433616Y-2492835D01*
X20354390Y-2301566D01*
X20314001Y-2098517D01*
X20314001Y-1891485D01*
X20354390Y-1688436D01*
X20433616Y-1497167D01*
X20548638Y-1325025D01*
X20695025Y-1178638D01*
X20867167Y-1063616D01*
X21058436Y-984390D01*
X21261485Y-944001D01*
X21468517Y-944001D01*
X21671566Y-984390D01*
X21671566Y-984390D01*
G37*
G36*
X19131566Y-984390D02*
X19322835Y-1063616D01*
X19494977Y-1178638D01*
X19641364Y-1325025D01*
X19756386Y-1497167D01*
X19835612Y-1688436D01*
X19876001Y-1891485D01*
X19876001Y-2098517D01*
X19835612Y-2301566D01*
X19756386Y-2492835D01*
X19641364Y-2664977D01*
X19494977Y-2811364D01*
X19322835Y-2926386D01*
X19131566Y-3005612D01*
X18928517Y-3046001D01*
X18721485Y-3046001D01*
X18518436Y-3005612D01*
X18327167Y-2926386D01*
X18155025Y-2811364D01*
X18008638Y-2664977D01*
X17893616Y-2492835D01*
X17814390Y-2301566D01*
X17774001Y-2098517D01*
X17774001Y-1891485D01*
X17814390Y-1688436D01*
X17893616Y-1497167D01*
X18008638Y-1325025D01*
X18155025Y-1178638D01*
X18327167Y-1063616D01*
X18518436Y-984390D01*
X18721485Y-944001D01*
X18928517Y-944001D01*
X19131566Y-984390D01*
X19131566Y-984390D01*
G37*
G36*
X16591566Y-984390D02*
X16782835Y-1063616D01*
X16954977Y-1178638D01*
X17101364Y-1325025D01*
X17216386Y-1497167D01*
X17295612Y-1688436D01*
X17336001Y-1891485D01*
X17336001Y-2098517D01*
X17295612Y-2301566D01*
X17216386Y-2492835D01*
X17101364Y-2664977D01*
X16954977Y-2811364D01*
X16782835Y-2926386D01*
X16591566Y-3005612D01*
X16388517Y-3046001D01*
X16181485Y-3046001D01*
X15978436Y-3005612D01*
X15787167Y-2926386D01*
X15615025Y-2811364D01*
X15468638Y-2664977D01*
X15353616Y-2492835D01*
X15274390Y-2301566D01*
X15234001Y-2098517D01*
X15234001Y-1891485D01*
X15274390Y-1688436D01*
X15353616Y-1497167D01*
X15468638Y-1325025D01*
X15615025Y-1178638D01*
X15787167Y-1063616D01*
X15978436Y-984390D01*
X16181485Y-944001D01*
X16388517Y-944001D01*
X16591566Y-984390D01*
X16591566Y-984390D01*
G37*
G36*
X26751566Y-984390D02*
X26942835Y-1063616D01*
X27114977Y-1178638D01*
X27261364Y-1325025D01*
X27376386Y-1497167D01*
X27455612Y-1688436D01*
X27496001Y-1891485D01*
X27496001Y-2098517D01*
X27455612Y-2301566D01*
X27376386Y-2492835D01*
X27261364Y-2664977D01*
X27114977Y-2811364D01*
X26942835Y-2926386D01*
X26751566Y-3005612D01*
X26548517Y-3046001D01*
X26341485Y-3046001D01*
X26138436Y-3005612D01*
X25947167Y-2926386D01*
X25775025Y-2811364D01*
X25628638Y-2664977D01*
X25513616Y-2492835D01*
X25434390Y-2301566D01*
X25394001Y-2098517D01*
X25394001Y-1891485D01*
X25434390Y-1688436D01*
X25513616Y-1497167D01*
X25628638Y-1325025D01*
X25775025Y-1178638D01*
X25947167Y-1063616D01*
X26138436Y-984390D01*
X26341485Y-944001D01*
X26548517Y-944001D01*
X26751566Y-984390D01*
X26751566Y-984390D01*
G37*
G36*
X34479591Y-1383085D02*
X34513569Y-1393393D01*
X34544887Y-1410133D01*
X34572339Y-1432661D01*
X34594867Y-1460113D01*
X34611607Y-1491431D01*
X34621915Y-1525409D01*
X34626000Y-1566890D01*
X34626000Y-2243110D01*
X34621915Y-2284591D01*
X34611607Y-2318569D01*
X34594867Y-2349887D01*
X34572339Y-2377339D01*
X34544887Y-2399867D01*
X34513569Y-2416607D01*
X34479591Y-2426915D01*
X34438110Y-2431000D01*
X33836890Y-2431000D01*
X33795409Y-2426915D01*
X33761431Y-2416607D01*
X33730113Y-2399867D01*
X33702661Y-2377339D01*
X33680133Y-2349887D01*
X33663393Y-2318569D01*
X33653085Y-2284591D01*
X33649000Y-2243110D01*
X33649000Y-1566890D01*
X33653085Y-1525409D01*
X33663393Y-1491431D01*
X33680133Y-1460113D01*
X33702661Y-1432661D01*
X33730113Y-1410133D01*
X33761431Y-1393393D01*
X33795409Y-1383085D01*
X33836890Y-1379000D01*
X34438110Y-1379000D01*
X34479591Y-1383085D01*
X34479591Y-1383085D01*
G37*
G36*
X36054591Y-1383085D02*
X36088569Y-1393393D01*
X36119887Y-1410133D01*
X36147339Y-1432661D01*
X36169867Y-1460113D01*
X36186607Y-1491431D01*
X36196915Y-1525409D01*
X36201000Y-1566890D01*
X36201000Y-2243110D01*
X36196915Y-2284591D01*
X36186607Y-2318569D01*
X36169867Y-2349887D01*
X36147339Y-2377339D01*
X36119887Y-2399867D01*
X36088569Y-2416607D01*
X36054591Y-2426915D01*
X36013110Y-2431000D01*
X35411890Y-2431000D01*
X35370409Y-2426915D01*
X35336431Y-2416607D01*
X35305113Y-2399867D01*
X35277661Y-2377339D01*
X35255133Y-2349887D01*
X35238393Y-2318569D01*
X35228085Y-2284591D01*
X35224000Y-2243110D01*
X35224000Y-1566890D01*
X35228085Y-1525409D01*
X35238393Y-1491431D01*
X35255133Y-1460113D01*
X35277661Y-1432661D01*
X35305113Y-1410133D01*
X35336431Y-1393393D01*
X35370409Y-1383085D01*
X35411890Y-1379000D01*
X36013110Y-1379000D01*
X36054591Y-1383085D01*
X36054591Y-1383085D01*
G37*
M02*
